<svg width="1920" height="1080" viewBox="0 0 1920 1080" fill="none" xmlns="http://www.w3.org/2000/svg">
<rect width="1920" height="1080" fill="#EEEEEE"/>
<rect width="1920" height="91" fill="white"/>
<rect width="125" height="91" transform="translate(218)" fill="white"/>
<path d="M242.966 42.5H241.205C241.1 41.9934 240.918 41.5483 240.658 41.1648C240.402 40.7812 240.089 40.4593 239.72 40.1989C239.356 39.9337 238.951 39.7348 238.506 39.6023C238.061 39.4697 237.597 39.4034 237.114 39.4034C236.233 39.4034 235.435 39.6259 234.72 40.071C234.01 40.5161 233.444 41.1719 233.023 42.0384C232.606 42.9048 232.398 43.9678 232.398 45.2273C232.398 46.4867 232.606 47.5497 233.023 48.4162C233.444 49.2827 234.01 49.9384 234.72 50.3835C235.435 50.8286 236.233 51.0511 237.114 51.0511C237.597 51.0511 238.061 50.9848 238.506 50.8523C238.951 50.7197 239.356 50.5232 239.72 50.2628C240.089 49.9976 240.402 49.6733 240.658 49.2898C240.918 48.9015 241.1 48.4564 241.205 47.9545H242.966C242.833 48.6979 242.592 49.3632 242.241 49.9503C241.891 50.5374 241.455 51.0369 240.935 51.4489C240.414 51.8561 239.829 52.1662 239.18 52.3793C238.536 52.5923 237.848 52.6989 237.114 52.6989C235.873 52.6989 234.77 52.3958 233.804 51.7898C232.838 51.1837 232.078 50.322 231.524 49.2045C230.97 48.0871 230.693 46.7614 230.693 45.2273C230.693 43.6932 230.97 42.3674 231.524 41.25C232.078 40.1326 232.838 39.2708 233.804 38.6648C234.77 38.0587 235.873 37.7557 237.114 37.7557C237.848 37.7557 238.536 37.8622 239.18 38.0753C239.829 38.2884 240.414 38.6009 240.935 39.0128C241.455 39.42 241.891 39.9171 242.241 40.5043C242.592 41.0866 242.833 41.7519 242.966 42.5ZM248.795 52.7557C248.104 52.7557 247.476 52.6255 246.913 52.3651C246.35 52.0999 245.902 51.7188 245.571 51.2216C245.239 50.7197 245.074 50.1136 245.074 49.4034C245.074 48.7784 245.197 48.2718 245.443 47.8835C245.689 47.4905 246.018 47.1828 246.43 46.9602C246.842 46.7377 247.297 46.572 247.794 46.4631C248.296 46.3494 248.8 46.2595 249.306 46.1932C249.969 46.108 250.507 46.044 250.919 46.0014C251.335 45.9541 251.638 45.8759 251.828 45.767C252.022 45.6581 252.119 45.4687 252.119 45.1989V45.142C252.119 44.4413 251.927 43.8968 251.544 43.5085C251.165 43.1203 250.59 42.9261 249.818 42.9261C249.018 42.9261 248.39 43.1013 247.936 43.4517C247.481 43.8021 247.162 44.1761 246.977 44.5739L245.386 44.0057C245.67 43.3428 246.049 42.8267 246.522 42.4574C247.001 42.0833 247.521 41.8229 248.085 41.6761C248.653 41.5246 249.212 41.4489 249.761 41.4489C250.111 41.4489 250.514 41.4915 250.968 41.5767C251.428 41.6572 251.87 41.8253 252.297 42.081C252.727 42.3366 253.085 42.7225 253.369 43.2386C253.653 43.7547 253.795 44.446 253.795 45.3125V52.5H252.119V51.0227H252.034C251.92 51.2595 251.731 51.5128 251.466 51.7827C251.2 52.0526 250.848 52.2822 250.407 52.4716C249.967 52.661 249.43 52.7557 248.795 52.7557ZM249.051 51.25C249.714 51.25 250.272 51.1198 250.727 50.8594C251.186 50.599 251.532 50.2628 251.764 49.8509C252.001 49.4389 252.119 49.0057 252.119 48.5511V47.017C252.048 47.1023 251.892 47.1804 251.65 47.2514C251.413 47.3177 251.139 47.3769 250.826 47.429C250.519 47.4763 250.218 47.5189 249.924 47.5568C249.636 47.59 249.401 47.6184 249.221 47.642C248.786 47.6989 248.378 47.7912 248 47.919C247.626 48.0421 247.323 48.2292 247.091 48.4801C246.863 48.7263 246.75 49.0625 246.75 49.4886C246.75 50.071 246.965 50.5114 247.396 50.8097C247.832 51.1032 248.383 51.25 249.051 51.25ZM262.82 50.2273L266.627 41.5909H268.218L263.502 52.5H262.138L257.508 41.5909H259.07L262.82 50.2273ZM258.531 41.5909V52.5H256.854V41.5909H258.531ZM267.11 52.5V41.5909H268.786V52.5H267.11ZM276.286 52.7273C275.301 52.7273 274.437 52.4929 273.694 52.0241C272.955 51.5554 272.378 50.8996 271.961 50.0568C271.549 49.214 271.343 48.2292 271.343 47.1023C271.343 45.9659 271.549 44.974 271.961 44.1264C272.378 43.2789 272.955 42.6207 273.694 42.152C274.437 41.6832 275.301 41.4489 276.286 41.4489C277.271 41.4489 278.133 41.6832 278.871 42.152C279.615 42.6207 280.192 43.2789 280.604 44.1264C281.021 44.974 281.229 45.9659 281.229 47.1023C281.229 48.2292 281.021 49.214 280.604 50.0568C280.192 50.8996 279.615 51.5554 278.871 52.0241C278.133 52.4929 277.271 52.7273 276.286 52.7273ZM276.286 51.2216C277.034 51.2216 277.65 51.0298 278.133 50.6463C278.616 50.2628 278.973 49.7585 279.205 49.1335C279.437 48.5085 279.553 47.8314 279.553 47.1023C279.553 46.3731 279.437 45.6937 279.205 45.0639C278.973 44.4342 278.616 43.9252 278.133 43.5369C277.65 43.1487 277.034 42.9545 276.286 42.9545C275.538 42.9545 274.923 43.1487 274.44 43.5369C273.957 43.9252 273.599 44.4342 273.367 45.0639C273.135 45.6937 273.019 46.3731 273.019 47.1023C273.019 47.8314 273.135 48.5085 273.367 49.1335C273.599 49.7585 273.957 50.2628 274.44 50.6463C274.923 51.0298 275.538 51.2216 276.286 51.2216ZM282.822 52.5V50.9375H283.22C283.547 50.9375 283.819 50.8736 284.037 50.7457C284.254 50.6132 284.43 50.3835 284.562 50.0568C284.699 49.7254 284.804 49.2661 284.875 48.679C284.95 48.0871 285.005 47.3343 285.038 46.4205L285.237 41.5909H292.51V52.5H290.833V43.1534H286.828L286.657 47.0455C286.619 47.9403 286.539 48.7287 286.416 49.4105C286.297 50.0876 286.115 50.6558 285.869 51.1151C285.627 51.5743 285.306 51.92 284.903 52.152C284.501 52.384 283.996 52.5 283.39 52.5H282.822ZM300.159 52.7273C299.108 52.7273 298.201 52.4953 297.439 52.0312C296.681 51.5625 296.096 50.9091 295.684 50.071C295.277 49.2282 295.074 48.2481 295.074 47.1307C295.074 46.0133 295.277 45.0284 295.684 44.1761C296.096 43.3191 296.669 42.6515 297.403 42.1733C298.142 41.6903 299.003 41.4489 299.988 41.4489C300.556 41.4489 301.118 41.5436 301.672 41.733C302.225 41.9223 302.73 42.2301 303.184 42.6562C303.639 43.0777 304.001 43.6364 304.271 44.3324C304.541 45.0284 304.676 45.8854 304.676 46.9034V47.6136H296.267V46.1648H302.971C302.971 45.5492 302.848 45 302.602 44.517C302.36 44.0341 302.015 43.6529 301.565 43.3736C301.12 43.0942 300.594 42.9545 299.988 42.9545C299.321 42.9545 298.743 43.1203 298.255 43.4517C297.772 43.7784 297.401 44.2045 297.14 44.7301C296.88 45.2557 296.75 45.8191 296.75 46.4205V47.3864C296.75 48.2102 296.892 48.9086 297.176 49.4815C297.465 50.0497 297.865 50.483 298.376 50.7812C298.887 51.0748 299.482 51.2216 300.159 51.2216C300.599 51.2216 300.997 51.16 301.352 51.0369C301.712 50.9091 302.022 50.7197 302.282 50.4688C302.543 50.2131 302.744 49.8958 302.886 49.517L304.505 49.9716C304.335 50.5208 304.048 51.0038 303.646 51.4205C303.243 51.8324 302.746 52.1544 302.154 52.3864C301.563 52.6136 300.897 52.7273 300.159 52.7273ZM306.21 43.1534V41.5909H315.074V43.1534H311.494V52.5H309.818V43.1534H306.21ZM318.967 45.5398H322.092C323.371 45.5398 324.348 45.8641 325.026 46.5128C325.703 47.1615 326.041 47.983 326.041 48.9773C326.041 49.6307 325.89 50.2249 325.587 50.7599C325.284 51.2902 324.839 51.714 324.251 52.0312C323.664 52.3438 322.945 52.5 322.092 52.5H317.518V41.5909H319.195V50.9375H322.092C322.755 50.9375 323.3 50.7623 323.726 50.4119C324.152 50.0616 324.365 49.6117 324.365 49.0625C324.365 48.4848 324.152 48.0137 323.726 47.6491C323.3 47.2846 322.755 47.1023 322.092 47.1023H318.967V45.5398ZM327.774 52.5V41.5909H329.45V52.5H327.774Z" fill="black"/>
<rect width="75" height="91" transform="translate(1582)" fill="white"/>
<path d="M1590.26 52.5V37.9545H1595.35C1596.36 37.9545 1597.2 38.1297 1597.85 38.4801C1598.51 38.8258 1599 39.2921 1599.32 39.8793C1599.65 40.4616 1599.81 41.108 1599.81 41.8182C1599.81 42.4432 1599.7 42.9593 1599.47 43.3665C1599.26 43.7737 1598.97 44.0956 1598.61 44.3324C1598.25 44.5691 1597.87 44.7443 1597.45 44.858V45C1597.89 45.0284 1598.34 45.1847 1598.79 45.4688C1599.24 45.7528 1599.62 46.16 1599.92 46.6903C1600.22 47.2206 1600.38 47.8693 1600.38 48.6364C1600.38 49.3655 1600.21 50.0213 1599.88 50.6037C1599.55 51.1861 1599.02 51.6477 1598.31 51.9886C1597.59 52.3295 1596.66 52.5 1595.52 52.5H1590.26ZM1592.02 50.9375H1595.52C1596.67 50.9375 1597.48 50.715 1597.97 50.2699C1598.46 49.8201 1598.7 49.2756 1598.7 48.6364C1598.7 48.1439 1598.57 47.6894 1598.32 47.2727C1598.07 46.8513 1597.71 46.5152 1597.25 46.2642C1596.79 46.0085 1596.24 45.8807 1595.6 45.8807H1592.02V50.9375ZM1592.02 44.3466H1595.29C1595.82 44.3466 1596.3 44.2424 1596.72 44.0341C1597.16 43.8258 1597.5 43.5322 1597.75 43.1534C1598 42.7746 1598.13 42.3295 1598.13 41.8182C1598.13 41.179 1597.91 40.6368 1597.46 40.1918C1597.02 39.742 1596.31 39.517 1595.35 39.517H1592.02V44.3466ZM1604.49 45.5398H1607.62C1608.89 45.5398 1609.87 45.8641 1610.55 46.5128C1611.23 47.1615 1611.56 47.983 1611.56 48.9773C1611.56 49.6307 1611.41 50.2249 1611.11 50.7599C1610.81 51.2902 1610.36 51.714 1609.77 52.0312C1609.19 52.3438 1608.47 52.5 1607.62 52.5H1603.04V41.5909H1604.72V50.9375H1607.62C1608.28 50.9375 1608.82 50.7623 1609.25 50.4119C1609.68 50.0616 1609.89 49.6117 1609.89 49.0625C1609.89 48.4848 1609.68 48.0137 1609.25 47.6491C1608.82 47.2846 1608.28 47.1023 1607.62 47.1023H1604.49V45.5398ZM1613.3 52.5V41.5909H1614.97V52.5H1613.3ZM1619.72 50.0284L1624.97 41.5909H1626.91V52.5H1625.23V44.0625L1620 52.5H1618.04V41.5909H1619.72V50.0284ZM1623.87 37.9545H1625.43C1625.43 38.7216 1625.16 39.349 1624.63 39.8366C1624.1 40.3243 1623.38 40.5682 1622.47 40.5682C1621.58 40.5682 1620.87 40.3243 1620.34 39.8366C1619.81 39.349 1619.55 38.7216 1619.55 37.9545H1621.11C1621.11 38.3239 1621.21 38.6482 1621.42 38.9276C1621.62 39.2069 1621.98 39.3466 1622.47 39.3466C1622.97 39.3466 1623.33 39.2069 1623.54 38.9276C1623.76 38.6482 1623.87 38.3239 1623.87 37.9545ZM1628.49 43.1534V41.5909H1637.35V43.1534H1633.78V52.5H1632.1V43.1534H1628.49ZM1641.48 50.0284L1646.73 41.5909H1648.66V52.5H1646.99V44.0625L1641.76 52.5H1639.8V41.5909H1641.48V50.0284Z" fill="black"/>
<rect width="162" height="91" transform="translate(1420)" fill="white"/>
<path d="M1449.26 52.5V37.9545H1451.02V44.4318H1458.78V37.9545H1460.54V52.5H1458.78V45.9943H1451.02V52.5H1449.26ZM1467.05 52.7557C1466.36 52.7557 1465.73 52.6255 1465.17 52.3651C1464.6 52.0999 1464.16 51.7188 1463.82 51.2216C1463.49 50.7197 1463.33 50.1136 1463.33 49.4034C1463.33 48.7784 1463.45 48.2718 1463.7 47.8835C1463.94 47.4905 1464.27 47.1828 1464.68 46.9602C1465.1 46.7377 1465.55 46.572 1466.05 46.4631C1466.55 46.3494 1467.05 46.2595 1467.56 46.1932C1468.22 46.108 1468.76 46.044 1469.17 46.0014C1469.59 45.9541 1469.89 45.8759 1470.08 45.767C1470.28 45.6581 1470.37 45.4687 1470.37 45.1989V45.142C1470.37 44.4413 1470.18 43.8968 1469.8 43.5085C1469.42 43.1203 1468.84 42.9261 1468.07 42.9261C1467.27 42.9261 1466.64 43.1013 1466.19 43.4517C1465.74 43.8021 1465.42 44.1761 1465.23 44.5739L1463.64 44.0057C1463.92 43.3428 1464.3 42.8267 1464.78 42.4574C1465.25 42.0833 1465.78 41.8229 1466.34 41.6761C1466.91 41.5246 1467.47 41.4489 1468.01 41.4489C1468.37 41.4489 1468.77 41.4915 1469.22 41.5767C1469.68 41.6572 1470.12 41.8253 1470.55 42.081C1470.98 42.3366 1471.34 42.7225 1471.62 43.2386C1471.91 43.7547 1472.05 44.446 1472.05 45.3125V52.5H1470.37V51.0227H1470.29C1470.17 51.2595 1469.98 51.5128 1469.72 51.7827C1469.45 52.0526 1469.1 52.2822 1468.66 52.4716C1468.22 52.661 1467.68 52.7557 1467.05 52.7557ZM1467.3 51.25C1467.97 51.25 1468.53 51.1198 1468.98 50.8594C1469.44 50.599 1469.79 50.2628 1470.02 49.8509C1470.25 49.4389 1470.37 49.0057 1470.37 48.5511V47.017C1470.3 47.1023 1470.15 47.1804 1469.9 47.2514C1469.67 47.3177 1469.39 47.3769 1469.08 47.429C1468.77 47.4763 1468.47 47.5189 1468.18 47.5568C1467.89 47.59 1467.66 47.6184 1467.48 47.642C1467.04 47.6989 1466.63 47.7912 1466.25 47.919C1465.88 48.0421 1465.58 48.2292 1465.34 48.4801C1465.12 48.7263 1465 49.0625 1465 49.4886C1465 50.071 1465.22 50.5114 1465.65 50.8097C1466.09 51.1032 1466.64 51.25 1467.3 51.25ZM1479.54 52.7273C1478.52 52.7273 1477.64 52.4858 1476.9 52.0028C1476.16 51.5199 1475.59 50.8546 1475.19 50.0071C1474.8 49.1596 1474.6 48.1913 1474.6 47.1023C1474.6 45.9943 1474.8 45.0166 1475.21 44.169C1475.62 43.3168 1476.19 42.6515 1476.93 42.1733C1477.67 41.6903 1478.53 41.4489 1479.51 41.4489C1480.28 41.4489 1480.97 41.5909 1481.59 41.875C1482.2 42.1591 1482.71 42.5568 1483.1 43.0682C1483.49 43.5795 1483.74 44.1761 1483.83 44.858H1482.15C1482.03 44.3608 1481.74 43.9205 1481.3 43.5369C1480.87 43.1487 1480.28 42.9545 1479.54 42.9545C1478.89 42.9545 1478.31 43.125 1477.82 43.4659C1477.33 43.8021 1476.95 44.2779 1476.68 44.8935C1476.41 45.5043 1476.27 46.2216 1476.27 47.0455C1476.27 47.8883 1476.41 48.6222 1476.67 49.2472C1476.94 49.8722 1477.32 50.3575 1477.81 50.7031C1478.3 51.0488 1478.88 51.2216 1479.54 51.2216C1479.98 51.2216 1480.37 51.1458 1480.73 50.9943C1481.08 50.8428 1481.38 50.625 1481.63 50.3409C1481.87 50.0568 1482.05 49.7159 1482.15 49.3182H1483.83C1483.74 49.9621 1483.5 50.5421 1483.13 51.0582C1482.76 51.5696 1482.27 51.9768 1481.66 52.2798C1481.05 52.5781 1480.35 52.7273 1479.54 52.7273ZM1485.42 43.1534V41.5909H1494.28V43.1534H1490.7V52.5H1489.03V43.1534H1485.42ZM1496.73 56.5909V41.5909H1498.35V43.3239H1498.55C1498.67 43.1345 1498.84 42.893 1499.06 42.5994C1499.28 42.3011 1499.6 42.036 1500.01 41.804C1500.43 41.5672 1500.99 41.4489 1501.7 41.4489C1502.62 41.4489 1503.43 41.6785 1504.13 42.1378C1504.83 42.5971 1505.38 43.2481 1505.77 44.0909C1506.16 44.9337 1506.36 45.928 1506.36 47.0739C1506.36 48.2292 1506.16 49.2306 1505.77 50.0781C1505.38 50.9209 1504.83 51.5743 1504.14 52.0384C1503.44 52.4976 1502.64 52.7273 1501.73 52.7273C1501.03 52.7273 1500.47 52.6113 1500.05 52.3793C1499.62 52.1425 1499.3 51.875 1499.07 51.5767C1498.85 51.2737 1498.67 51.0227 1498.55 50.8239H1498.41V56.5909H1496.73ZM1498.38 47.0455C1498.38 47.8693 1498.5 48.5961 1498.74 49.2259C1498.98 49.8509 1499.33 50.3409 1499.8 50.696C1500.26 51.0464 1500.83 51.2216 1501.5 51.2216C1502.2 51.2216 1502.79 51.0369 1503.26 50.6676C1503.73 50.2936 1504.08 49.7917 1504.32 49.1619C1504.56 48.5275 1504.68 47.822 1504.68 47.0455C1504.68 46.2784 1504.57 45.5871 1504.33 44.9716C1504.1 44.3513 1503.74 43.8613 1503.27 43.5014C1502.8 43.1368 1502.21 42.9545 1501.5 42.9545C1500.82 42.9545 1500.25 43.1274 1499.78 43.473C1499.32 43.8139 1498.97 44.2921 1498.73 44.9077C1498.5 45.5185 1498.38 46.2311 1498.38 47.0455ZM1513.35 52.7273C1512.36 52.7273 1511.5 52.4929 1510.76 52.0241C1510.02 51.5554 1509.44 50.8996 1509.02 50.0568C1508.61 49.214 1508.41 48.2292 1508.41 47.1023C1508.41 45.9659 1508.61 44.974 1509.02 44.1264C1509.44 43.2789 1510.02 42.6207 1510.76 42.152C1511.5 41.6832 1512.36 41.4489 1513.35 41.4489C1514.33 41.4489 1515.2 41.6832 1515.93 42.152C1516.68 42.6207 1517.25 43.2789 1517.67 44.1264C1518.08 44.974 1518.29 45.9659 1518.29 47.1023C1518.29 48.2292 1518.08 49.214 1517.67 50.0568C1517.25 50.8996 1516.68 51.5554 1515.93 52.0241C1515.2 52.4929 1514.33 52.7273 1513.35 52.7273ZM1513.35 51.2216C1514.1 51.2216 1514.71 51.0298 1515.2 50.6463C1515.68 50.2628 1516.04 49.7585 1516.27 49.1335C1516.5 48.5085 1516.62 47.8314 1516.62 47.1023C1516.62 46.3731 1516.5 45.6937 1516.27 45.0639C1516.04 44.4342 1515.68 43.9252 1515.2 43.5369C1514.71 43.1487 1514.1 42.9545 1513.35 42.9545C1512.6 42.9545 1511.99 43.1487 1511.5 43.5369C1511.02 43.9252 1510.66 44.4342 1510.43 45.0639C1510.2 45.6937 1510.08 46.3731 1510.08 47.1023C1510.08 47.8314 1510.2 48.5085 1510.43 49.1335C1510.66 49.7585 1511.02 50.2628 1511.5 50.6463C1511.99 51.0298 1512.6 51.2216 1513.35 51.2216ZM1522.53 50.0284L1527.78 41.5909H1529.71V52.5H1528.04V44.0625L1522.81 52.5H1520.85V41.5909H1522.53V50.0284ZM1526.67 37.9545H1528.24C1528.24 38.7216 1527.97 39.349 1527.44 39.8366C1526.91 40.3243 1526.19 40.5682 1525.28 40.5682C1524.39 40.5682 1523.67 40.3243 1523.14 39.8366C1522.62 39.349 1522.36 38.7216 1522.36 37.9545H1523.92C1523.92 38.3239 1524.02 38.6482 1524.22 38.9276C1524.43 39.2069 1524.79 39.3466 1525.28 39.3466C1525.78 39.3466 1526.13 39.2069 1526.35 38.9276C1526.57 38.6482 1526.67 38.3239 1526.67 37.9545ZM1532.78 52.5V41.5909H1534.46V46.3352H1535.57L1539.49 41.5909H1541.65L1537.24 46.8466L1541.7 52.5H1539.55L1535.97 47.8977H1534.46V52.5H1532.78ZM1545.2 50.0284L1550.46 41.5909H1552.39V52.5H1550.71V44.0625L1545.49 52.5H1543.53V41.5909H1545.2V50.0284Z" fill="black"/>
<rect width="125" height="91" transform="translate(343)" fill="white"/>
<path d="M375.028 52.6989V51.0511H375.938C376.288 51.0511 376.581 50.9825 376.818 50.8452C377.06 50.7079 377.259 50.5303 377.415 50.3125C377.576 50.0947 377.708 49.8674 377.812 49.6307L378.04 49.0909L373.011 37.9545H374.915L378.92 46.9886L382.585 37.9545H384.46L379.432 50.142C379.233 50.5966 379.006 51.018 378.75 51.4062C378.499 51.7945 378.156 52.107 377.72 52.3438C377.289 52.5805 376.705 52.6989 375.966 52.6989H375.028ZM389.403 52.7273C388.381 52.7273 387.5 52.4858 386.761 52.0028C386.023 51.5199 385.455 50.8546 385.057 50.0071C384.659 49.1596 384.46 48.1913 384.46 47.1023C384.46 45.9943 384.664 45.0166 385.071 44.169C385.483 43.3168 386.056 42.6515 386.79 42.1733C387.528 41.6903 388.39 41.4489 389.375 41.4489C390.142 41.4489 390.833 41.5909 391.449 41.875C392.064 42.1591 392.569 42.5568 392.962 43.0682C393.355 43.5795 393.598 44.1761 393.693 44.858H392.017C391.889 44.3608 391.605 43.9205 391.165 43.5369C390.729 43.1487 390.142 42.9545 389.403 42.9545C388.75 42.9545 388.177 43.125 387.685 43.4659C387.197 43.8021 386.816 44.2779 386.541 44.8935C386.271 45.5043 386.136 46.2216 386.136 47.0455C386.136 47.8883 386.269 48.6222 386.534 49.2472C386.804 49.8722 387.183 50.3575 387.67 50.7031C388.163 51.0488 388.741 51.2216 389.403 51.2216C389.839 51.2216 390.234 51.1458 390.589 50.9943C390.945 50.8428 391.245 50.625 391.491 50.3409C391.738 50.0568 391.913 49.7159 392.017 49.3182H393.693C393.598 49.9621 393.364 50.5421 392.99 51.0582C392.621 51.5696 392.131 51.9768 391.52 52.2798C390.914 52.5781 390.208 52.7273 389.403 52.7273ZM395.178 52.5V50.9375H395.575C395.902 50.9375 396.174 50.8736 396.392 50.7457C396.61 50.6132 396.785 50.3835 396.918 50.0568C397.055 49.7254 397.159 49.2661 397.23 48.679C397.306 48.0871 397.36 47.3343 397.393 46.4205L397.592 41.5909H404.865V52.5H403.189V43.1534H399.183L399.013 47.0455C398.975 47.9403 398.894 48.7287 398.771 49.4105C398.653 50.0876 398.471 50.6558 398.224 51.1151C397.983 51.5743 397.661 51.92 397.259 52.152C396.856 52.384 396.352 52.5 395.746 52.5H395.178ZM408.629 56.5909C408.345 56.5909 408.092 56.5672 407.869 56.5199C407.647 56.4773 407.493 56.4347 407.408 56.392L407.834 54.9148C408.241 55.0189 408.601 55.0568 408.913 55.0284C409.226 55 409.503 54.8603 409.744 54.6094C409.991 54.3632 410.215 53.9631 410.419 53.4091L410.732 52.5568L406.697 41.5909H408.516L411.527 50.2841H411.641L414.652 41.5909H416.47L411.839 54.0909C411.631 54.6544 411.373 55.1207 411.065 55.4901C410.758 55.8641 410.4 56.1411 409.993 56.321C409.59 56.5009 409.136 56.5909 408.629 56.5909ZM425.415 41.5909V43.1534H420.359V52.5H418.683V41.5909H425.415ZM429.538 50.0284L434.794 41.5909H436.726V52.5H435.05V44.0625L429.822 52.5H427.862V41.5909H429.538V50.0284Z" fill="black"/>
<rect width="90" height="91" transform="translate(468)" fill="white"/>
<path d="M477.761 52.5V37.9545H486.54V39.517H479.523V44.0625H483.216C484.258 44.0625 485.136 44.233 485.851 44.5739C486.571 44.9148 487.115 45.3954 487.484 46.0156C487.858 46.6359 488.045 47.3674 488.045 48.2102C488.045 49.053 487.858 49.7964 487.484 50.4403C487.115 51.0843 486.571 51.5885 485.851 51.9531C485.136 52.3177 484.258 52.5 483.216 52.5H477.761ZM479.523 50.9659H483.216C483.879 50.9659 484.44 50.8333 484.899 50.5682C485.363 50.2983 485.714 49.9527 485.95 49.5312C486.192 49.1051 486.312 48.6553 486.312 48.1818C486.312 47.4858 486.045 46.8868 485.51 46.3849C484.975 45.8783 484.21 45.625 483.216 45.625H479.523V50.9659ZM492.394 50.0284L497.65 41.5909H499.581V52.5H497.905V44.0625L492.678 52.5H490.718V41.5909H492.394V50.0284ZM501.685 52.5V50.9375H502.083C502.41 50.9375 502.682 50.8736 502.9 50.7457C503.118 50.6132 503.293 50.3835 503.425 50.0568C503.563 49.7254 503.667 49.2661 503.738 48.679C503.814 48.0871 503.868 47.3343 503.901 46.4205L504.1 41.5909H511.373V52.5H509.697V43.1534H505.691L505.521 47.0455C505.483 47.9403 505.402 48.7287 505.279 49.4105C505.161 50.0876 504.978 50.6558 504.732 51.1151C504.491 51.5743 504.169 51.92 503.766 52.152C503.364 52.384 502.86 52.5 502.254 52.5H501.685ZM519.022 52.7273C517.971 52.7273 517.064 52.4953 516.302 52.0312C515.544 51.5625 514.96 50.9091 514.548 50.071C514.14 49.2282 513.937 48.2481 513.937 47.1307C513.937 46.0133 514.14 45.0284 514.548 44.1761C514.96 43.3191 515.532 42.6515 516.266 42.1733C517.005 41.6903 517.867 41.4489 518.852 41.4489C519.42 41.4489 519.981 41.5436 520.535 41.733C521.089 41.9223 521.593 42.2301 522.048 42.6562C522.502 43.0777 522.864 43.6364 523.134 44.3324C523.404 45.0284 523.539 45.8854 523.539 46.9034V47.6136H515.13V46.1648H521.835C521.835 45.5492 521.711 45 521.465 44.517C521.224 44.0341 520.878 43.6529 520.428 43.3736C519.983 43.0942 519.458 42.9545 518.852 42.9545C518.184 42.9545 517.606 43.1203 517.119 43.4517C516.636 43.7784 516.264 44.2045 516.004 44.7301C515.743 45.2557 515.613 45.8191 515.613 46.4205V47.3864C515.613 48.2102 515.755 48.9086 516.039 49.4815C516.328 50.0497 516.728 50.483 517.239 50.7812C517.751 51.0748 518.345 51.2216 519.022 51.2216C519.462 51.2216 519.86 51.16 520.215 51.0369C520.575 50.9091 520.885 50.7197 521.146 50.4688C521.406 50.2131 521.607 49.8958 521.749 49.517L523.369 49.9716C523.198 50.5208 522.912 51.0038 522.509 51.4205C522.107 51.8324 521.61 52.1544 521.018 52.3864C520.426 52.6136 519.761 52.7273 519.022 52.7273ZM525.073 43.1534V41.5909H533.937V43.1534H530.357V52.5H528.681V43.1534H525.073ZM537.831 45.5398H540.956C542.234 45.5398 543.212 45.8641 543.889 46.5128C544.566 47.1615 544.904 47.983 544.904 48.9773C544.904 49.6307 544.753 50.2249 544.45 50.7599C544.147 51.2902 543.702 51.714 543.115 52.0312C542.528 52.3438 541.808 52.5 540.956 52.5H536.382V41.5909H538.058V50.9375H540.956C541.618 50.9375 542.163 50.7623 542.589 50.4119C543.015 50.0616 543.228 49.6117 543.228 49.0625C543.228 48.4848 543.015 48.0137 542.589 47.6491C542.163 47.2846 541.618 47.1023 540.956 47.1023H537.831V45.5398ZM546.637 52.5V41.5909H548.314V52.5H546.637Z" fill="black"/>
<rect width="116" height="91" transform="translate(558)" fill="white"/>
<path d="M594.42 52.6989C593.483 52.6989 592.647 52.5379 591.913 52.2159C591.184 51.8939 590.604 51.4465 590.173 50.8736C589.747 50.2959 589.515 49.6259 589.477 48.8636H591.267C591.305 49.3324 591.466 49.7372 591.75 50.0781C592.034 50.4143 592.406 50.6747 592.865 50.8594C593.324 51.044 593.833 51.1364 594.392 51.1364C595.017 51.1364 595.571 51.0275 596.054 50.8097C596.537 50.5919 596.916 50.2888 597.19 49.9006C597.465 49.5123 597.602 49.0625 597.602 48.5511C597.602 48.0161 597.47 47.545 597.205 47.1378C596.939 46.7259 596.551 46.4039 596.04 46.1719C595.528 45.9399 594.903 45.8239 594.165 45.8239H593V44.2614H594.165C594.742 44.2614 595.249 44.1572 595.685 43.9489C596.125 43.7405 596.468 43.447 596.714 43.0682C596.965 42.6894 597.091 42.2443 597.091 41.733C597.091 41.2405 596.982 40.812 596.764 40.4474C596.546 40.0829 596.239 39.7988 595.841 39.5952C595.448 39.3916 594.984 39.2898 594.449 39.2898C593.947 39.2898 593.473 39.3821 593.028 39.5668C592.588 39.7467 592.228 40.0095 591.949 40.3551C591.67 40.696 591.518 41.108 591.494 41.5909H589.79C589.818 40.8286 590.048 40.161 590.479 39.5881C590.91 39.0104 591.473 38.5606 592.169 38.2386C592.87 37.9167 593.639 37.7557 594.477 37.7557C595.377 37.7557 596.149 37.938 596.793 38.3026C597.437 38.6624 597.931 39.1383 598.277 39.7301C598.623 40.322 598.795 40.9612 598.795 41.6477C598.795 42.4669 598.58 43.1652 598.149 43.7429C597.723 44.3205 597.143 44.7206 596.409 44.9432V45.0568C597.328 45.2083 598.045 45.599 598.561 46.2287C599.077 46.8537 599.335 47.6278 599.335 48.5511C599.335 49.3419 599.12 50.0521 598.689 50.6818C598.263 51.3068 597.68 51.7992 596.942 52.1591C596.203 52.5189 595.363 52.6989 594.42 52.6989ZM605.479 52.7557C604.787 52.7557 604.16 52.6255 603.597 52.3651C603.033 52.0999 602.586 51.7188 602.254 51.2216C601.923 50.7197 601.757 50.1136 601.757 49.4034C601.757 48.7784 601.88 48.2718 602.126 47.8835C602.373 47.4905 602.702 47.1828 603.114 46.9602C603.526 46.7377 603.98 46.572 604.477 46.4631C604.979 46.3494 605.483 46.2595 605.99 46.1932C606.653 46.108 607.19 46.044 607.602 46.0014C608.019 45.9541 608.322 45.8759 608.511 45.767C608.705 45.6581 608.803 45.4687 608.803 45.1989V45.142C608.803 44.4413 608.611 43.8968 608.227 43.5085C607.848 43.1203 607.273 42.9261 606.501 42.9261C605.701 42.9261 605.074 43.1013 604.619 43.4517C604.165 43.8021 603.845 44.1761 603.661 44.5739L602.07 44.0057C602.354 43.3428 602.732 42.8267 603.206 42.4574C603.684 42.0833 604.205 41.8229 604.768 41.6761C605.337 41.5246 605.895 41.4489 606.445 41.4489C606.795 41.4489 607.197 41.4915 607.652 41.5767C608.111 41.6572 608.554 41.8253 608.98 42.081C609.411 42.3366 609.768 42.7225 610.053 43.2386C610.337 43.7547 610.479 44.446 610.479 45.3125V52.5H608.803V51.0227H608.717C608.604 51.2595 608.414 51.5128 608.149 51.7827C607.884 52.0526 607.531 52.2822 607.091 52.4716C606.651 52.661 606.113 52.7557 605.479 52.7557ZM605.734 51.25C606.397 51.25 606.956 51.1198 607.411 50.8594C607.87 50.599 608.215 50.2628 608.447 49.8509C608.684 49.4389 608.803 49.0057 608.803 48.5511V47.017C608.732 47.1023 608.575 47.1804 608.334 47.2514C608.097 47.3177 607.822 47.3769 607.51 47.429C607.202 47.4763 606.902 47.5189 606.608 47.5568C606.319 47.59 606.085 47.6184 605.905 47.642C605.469 47.6989 605.062 47.7912 604.683 47.919C604.309 48.0421 604.006 48.2292 603.774 48.4801C603.547 48.7263 603.433 49.0625 603.433 49.4886C603.433 50.071 603.649 50.5114 604.08 50.8097C604.515 51.1032 605.067 51.25 605.734 51.25ZM613.538 52.5V41.5909H615.214V46.3352H616.322L620.243 41.5909H622.402L617.998 46.8466L622.458 52.5H620.299L616.72 47.8977H615.214V52.5H613.538ZM627.49 52.7557C626.799 52.7557 626.172 52.6255 625.608 52.3651C625.045 52.0999 624.597 51.7188 624.266 51.2216C623.935 50.7197 623.769 50.1136 623.769 49.4034C623.769 48.7784 623.892 48.2718 624.138 47.8835C624.384 47.4905 624.713 47.1828 625.125 46.9602C625.537 46.7377 625.992 46.572 626.489 46.4631C626.991 46.3494 627.495 46.2595 628.002 46.1932C628.665 46.108 629.202 46.044 629.614 46.0014C630.031 45.9541 630.334 45.8759 630.523 45.767C630.717 45.6581 630.814 45.4687 630.814 45.1989V45.142C630.814 44.4413 630.623 43.8968 630.239 43.5085C629.86 43.1203 629.285 42.9261 628.513 42.9261C627.713 42.9261 627.086 43.1013 626.631 43.4517C626.176 43.8021 625.857 44.1761 625.672 44.5739L624.081 44.0057C624.365 43.3428 624.744 42.8267 625.218 42.4574C625.696 42.0833 626.217 41.8229 626.78 41.6761C627.348 41.5246 627.907 41.4489 628.456 41.4489C628.807 41.4489 629.209 41.4915 629.664 41.5767C630.123 41.6572 630.566 41.8253 630.992 42.081C631.423 42.3366 631.78 42.7225 632.064 43.2386C632.348 43.7547 632.49 44.446 632.49 45.3125V52.5H630.814V51.0227H630.729C630.615 51.2595 630.426 51.5128 630.161 51.7827C629.896 52.0526 629.543 52.2822 629.103 52.4716C628.662 52.661 628.125 52.7557 627.49 52.7557ZM627.746 51.25C628.409 51.25 628.968 51.1198 629.422 50.8594C629.882 50.599 630.227 50.2628 630.459 49.8509C630.696 49.4389 630.814 49.0057 630.814 48.5511V47.017C630.743 47.1023 630.587 47.1804 630.346 47.2514C630.109 47.3177 629.834 47.3769 629.522 47.429C629.214 47.4763 628.913 47.5189 628.62 47.5568C628.331 47.59 628.096 47.6184 627.917 47.642C627.481 47.6989 627.074 47.7912 626.695 47.919C626.321 48.0421 626.018 48.2292 625.786 48.4801C625.559 48.7263 625.445 49.0625 625.445 49.4886C625.445 50.071 625.66 50.5114 626.091 50.8097C626.527 51.1032 627.078 51.25 627.746 51.25ZM634.868 49.7159H636.658C636.696 50.2083 636.918 50.5824 637.325 50.8381C637.737 51.0938 638.272 51.2216 638.93 51.2216C639.603 51.2216 640.178 51.0843 640.656 50.8097C641.134 50.5303 641.374 50.0805 641.374 49.4602C641.374 49.0956 641.284 48.7784 641.104 48.5085C640.924 48.2339 640.67 48.0208 640.344 47.8693C640.017 47.7178 639.631 47.642 639.186 47.642H637.311V46.1364H639.186C639.854 46.1364 640.346 45.9848 640.663 45.6818C640.985 45.3788 641.146 45 641.146 44.5455C641.146 44.0578 640.973 43.6671 640.628 43.3736C640.282 43.0753 639.792 42.9261 639.158 42.9261C638.518 42.9261 637.986 43.0705 637.56 43.3594C637.134 43.6435 636.909 44.0104 636.885 44.4602H635.124C635.143 43.8731 635.322 43.3546 635.663 42.9048C636.004 42.4503 636.468 42.0952 637.055 41.8395C637.643 41.5791 638.315 41.4489 639.072 41.4489C639.839 41.4489 640.505 41.5838 641.068 41.8537C641.636 42.1188 642.074 42.4811 642.382 42.9403C642.695 43.3949 642.851 43.911 642.851 44.4886C642.851 45.1042 642.678 45.6013 642.332 45.9801C641.987 46.3589 641.554 46.6288 641.033 46.7898V46.9034C641.445 46.9318 641.802 47.0644 642.105 47.3011C642.413 47.5331 642.652 47.8385 642.822 48.2173C642.993 48.5914 643.078 49.0057 643.078 49.4602C643.078 50.1231 642.901 50.7008 642.545 51.1932C642.19 51.6809 641.703 52.0597 641.082 52.3295C640.462 52.5947 639.754 52.7273 638.959 52.7273C638.187 52.7273 637.496 52.6018 636.885 52.3509C636.274 52.0952 635.789 51.7424 635.429 51.2926C635.074 50.8381 634.887 50.3125 634.868 49.7159Z" fill="black"/>
<path d="M836.016 182V147.091H840.244V162.636H858.857V147.091H863.085V182H858.857V166.386H840.244V182H836.016ZM878.707 182.614C877.048 182.614 875.542 182.301 874.19 181.676C872.837 181.04 871.763 180.125 870.968 178.932C870.173 177.727 869.775 176.273 869.775 174.568C869.775 173.068 870.07 171.852 870.661 170.92C871.252 169.977 872.042 169.239 873.031 168.705C874.019 168.17 875.11 167.773 876.303 167.511C877.508 167.239 878.718 167.023 879.934 166.864C881.525 166.659 882.815 166.506 883.803 166.403C884.803 166.29 885.531 166.102 885.985 165.841C886.451 165.58 886.684 165.125 886.684 164.477V164.341C886.684 162.659 886.224 161.352 885.303 160.42C884.394 159.489 883.013 159.023 881.161 159.023C879.241 159.023 877.735 159.443 876.644 160.284C875.553 161.125 874.786 162.023 874.343 162.977L870.525 161.614C871.207 160.023 872.116 158.784 873.252 157.898C874.4 157 875.65 156.375 877.002 156.023C878.366 155.659 879.707 155.477 881.025 155.477C881.866 155.477 882.832 155.58 883.923 155.784C885.025 155.977 886.087 156.381 887.11 156.994C888.144 157.608 889.002 158.534 889.684 159.773C890.366 161.011 890.707 162.67 890.707 164.75V182H886.684V178.455H886.479C886.207 179.023 885.752 179.631 885.116 180.278C884.479 180.926 883.633 181.477 882.576 181.932C881.519 182.386 880.229 182.614 878.707 182.614ZM879.32 179C880.911 179 882.252 178.688 883.343 178.062C884.445 177.438 885.275 176.631 885.832 175.642C886.4 174.653 886.684 173.614 886.684 172.523V168.841C886.513 169.045 886.138 169.233 885.559 169.403C884.991 169.562 884.332 169.705 883.582 169.83C882.843 169.943 882.121 170.045 881.417 170.136C880.724 170.216 880.161 170.284 879.729 170.341C878.684 170.477 877.707 170.699 876.798 171.006C875.9 171.301 875.173 171.75 874.616 172.352C874.07 172.943 873.798 173.75 873.798 174.773C873.798 176.17 874.315 177.227 875.349 177.943C876.394 178.648 877.718 179 879.32 179ZM908.685 182.545C906.231 182.545 904.117 181.966 902.344 180.807C900.572 179.648 899.208 178.051 898.254 176.017C897.299 173.983 896.822 171.659 896.822 169.045C896.822 166.386 897.31 164.04 898.288 162.006C899.276 159.96 900.651 158.364 902.413 157.216C904.185 156.057 906.254 155.477 908.617 155.477C910.458 155.477 912.117 155.818 913.594 156.5C915.072 157.182 916.282 158.136 917.225 159.364C918.168 160.591 918.754 162.023 918.981 163.659H914.958C914.651 162.466 913.969 161.409 912.913 160.489C911.867 159.557 910.458 159.091 908.685 159.091C907.117 159.091 905.742 159.5 904.56 160.318C903.39 161.125 902.475 162.267 901.816 163.744C901.168 165.21 900.844 166.932 900.844 168.909C900.844 170.932 901.163 172.693 901.799 174.193C902.447 175.693 903.356 176.858 904.526 177.688C905.708 178.517 907.094 178.932 908.685 178.932C909.731 178.932 910.68 178.75 911.532 178.386C912.384 178.023 913.106 177.5 913.697 176.818C914.288 176.136 914.708 175.318 914.958 174.364H918.981C918.754 175.909 918.191 177.301 917.293 178.54C916.407 179.767 915.231 180.744 913.765 181.472C912.31 182.188 910.617 182.545 908.685 182.545ZM922.799 159.568V155.818H944.072V159.568H935.481V182H931.458V159.568H922.799ZM949.94 191.818V155.818H953.826V159.977H954.303C954.599 159.523 955.008 158.943 955.531 158.239C956.065 157.523 956.826 156.886 957.815 156.33C958.815 155.761 960.167 155.477 961.871 155.477C964.076 155.477 966.019 156.028 967.701 157.131C969.383 158.233 970.695 159.795 971.638 161.818C972.582 163.841 973.053 166.227 973.053 168.977C973.053 171.75 972.582 174.153 971.638 176.188C970.695 178.21 969.388 179.778 967.718 180.892C966.048 181.994 964.121 182.545 961.94 182.545C960.258 182.545 958.911 182.267 957.9 181.71C956.888 181.142 956.11 180.5 955.565 179.784C955.019 179.057 954.599 178.455 954.303 177.977H953.962V191.818H949.94ZM953.894 168.909C953.894 170.886 954.184 172.631 954.763 174.142C955.343 175.642 956.19 176.818 957.303 177.67C958.417 178.511 959.781 178.932 961.394 178.932C963.076 178.932 964.479 178.489 965.604 177.602C966.741 176.705 967.593 175.5 968.161 173.989C968.741 172.466 969.031 170.773 969.031 168.909C969.031 167.068 968.746 165.409 968.178 163.932C967.621 162.443 966.775 161.267 965.638 160.403C964.513 159.528 963.099 159.091 961.394 159.091C959.758 159.091 958.383 159.506 957.269 160.335C956.156 161.153 955.315 162.301 954.746 163.778C954.178 165.244 953.894 166.955 953.894 168.909ZM989.826 182.545C987.462 182.545 985.388 181.983 983.604 180.858C981.832 179.733 980.445 178.159 979.445 176.136C978.457 174.114 977.962 171.75 977.962 169.045C977.962 166.318 978.457 163.937 979.445 161.903C980.445 159.869 981.832 158.29 983.604 157.165C985.388 156.04 987.462 155.477 989.826 155.477C992.19 155.477 994.258 156.04 996.031 157.165C997.815 158.29 999.201 159.869 1000.19 161.903C1001.19 163.937 1001.69 166.318 1001.69 169.045C1001.69 171.75 1001.19 174.114 1000.19 176.136C999.201 178.159 997.815 179.733 996.031 180.858C994.258 181.983 992.19 182.545 989.826 182.545ZM989.826 178.932C991.621 178.932 993.099 178.472 994.258 177.551C995.417 176.631 996.275 175.42 996.832 173.92C997.388 172.42 997.667 170.795 997.667 169.045C997.667 167.295 997.388 165.665 996.832 164.153C996.275 162.642 995.417 161.42 994.258 160.489C993.099 159.557 991.621 159.091 989.826 159.091C988.031 159.091 986.553 159.557 985.394 160.489C984.235 161.42 983.377 162.642 982.82 164.153C982.263 165.665 981.985 167.295 981.985 169.045C981.985 170.795 982.263 172.42 982.82 173.92C983.377 175.42 984.235 176.631 985.394 177.551C986.553 178.472 988.031 178.932 989.826 178.932ZM1011.85 176.068L1024.47 155.818H1029.1V182H1025.08V161.75L1012.53 182H1007.83V155.818H1011.85V176.068ZM1021.81 147.091H1025.56C1025.56 148.932 1024.92 150.438 1023.65 151.608C1022.38 152.778 1020.65 153.364 1018.47 153.364C1016.32 153.364 1014.61 152.778 1013.34 151.608C1012.07 150.438 1011.44 148.932 1011.44 147.091H1015.19C1015.19 147.977 1015.44 148.756 1015.93 149.426C1016.43 150.097 1017.27 150.432 1018.47 150.432C1019.66 150.432 1020.51 150.097 1021.02 149.426C1021.55 148.756 1021.81 147.977 1021.81 147.091ZM1036.47 182V155.818H1040.49V167.205H1043.15L1052.56 155.818H1057.74L1047.18 168.432L1057.88 182H1052.7L1044.11 170.955H1040.49V182H1036.47ZM1066.27 176.068L1078.89 155.818H1083.52V182H1079.5V161.75L1066.96 182H1062.25V155.818H1066.27V176.068Z" fill="black"/>
<g filter="url(#filter0_d_4_1909)">
<rect x="730" y="254" width="459" height="79" rx="20" fill="white"/>
</g>
<path d="M761.83 303H759.614L766.023 285.545H768.205L774.614 303H772.398L767.182 288.307H767.045L761.83 303ZM762.648 296.182H771.58V298.057H762.648V296.182ZM775.662 306.75V301.125H776.753C777.02 300.847 777.25 300.545 777.443 300.222C777.636 299.898 777.804 299.514 777.946 299.071C778.094 298.622 778.219 298.077 778.321 297.435C778.423 296.787 778.514 296.006 778.594 295.091L779.037 289.909H787.355V301.125H789.366V306.75H787.355V303H777.673V306.75H775.662ZM779.037 301.125H785.344V291.784H780.912L780.571 295.091C780.429 296.46 780.253 297.656 780.043 298.679C779.832 299.702 779.497 300.517 779.037 301.125ZM792.036 307.909V289.909H793.979V291.989H794.218C794.366 291.761 794.57 291.472 794.832 291.119C795.099 290.761 795.479 290.443 795.974 290.165C796.474 289.881 797.15 289.739 798.002 289.739C799.104 289.739 800.076 290.014 800.917 290.565C801.758 291.116 802.414 291.898 802.886 292.909C803.357 293.92 803.593 295.114 803.593 296.489C803.593 297.875 803.357 299.077 802.886 300.094C802.414 301.105 801.761 301.889 800.925 302.446C800.09 302.997 799.127 303.273 798.036 303.273C797.195 303.273 796.522 303.134 796.016 302.855C795.511 302.571 795.121 302.25 794.849 301.892C794.576 301.528 794.366 301.227 794.218 300.989H794.048V307.909H792.036ZM794.013 296.455C794.013 297.443 794.158 298.315 794.448 299.071C794.738 299.821 795.161 300.409 795.718 300.835C796.275 301.256 796.957 301.466 797.763 301.466C798.604 301.466 799.306 301.244 799.869 300.801C800.437 300.352 800.863 299.75 801.147 298.994C801.437 298.233 801.582 297.386 801.582 296.455C801.582 295.534 801.44 294.705 801.156 293.966C800.877 293.222 800.454 292.634 799.886 292.202C799.323 291.764 798.616 291.545 797.763 291.545C796.945 291.545 796.258 291.753 795.701 292.168C795.144 292.577 794.724 293.151 794.44 293.889C794.156 294.622 794.013 295.477 794.013 296.455ZM812.15 303.273C810.888 303.273 809.8 302.994 808.886 302.438C807.977 301.875 807.275 301.091 806.781 300.085C806.292 299.074 806.048 297.898 806.048 296.557C806.048 295.216 806.292 294.034 806.781 293.011C807.275 291.983 807.962 291.182 808.843 290.608C809.729 290.028 810.763 289.739 811.945 289.739C812.627 289.739 813.3 289.852 813.965 290.08C814.63 290.307 815.235 290.676 815.781 291.188C816.326 291.693 816.761 292.364 817.085 293.199C817.408 294.034 817.57 295.062 817.57 296.284V297.136H807.479V295.398H815.525C815.525 294.659 815.377 294 815.082 293.42C814.792 292.841 814.377 292.384 813.837 292.048C813.303 291.713 812.673 291.545 811.945 291.545C811.144 291.545 810.451 291.744 809.866 292.142C809.286 292.534 808.84 293.045 808.528 293.676C808.215 294.307 808.059 294.983 808.059 295.705V296.864C808.059 297.852 808.229 298.69 808.57 299.378C808.917 300.06 809.397 300.58 810.011 300.938C810.624 301.29 811.337 301.466 812.15 301.466C812.678 301.466 813.156 301.392 813.582 301.244C814.013 301.091 814.386 300.864 814.698 300.562C815.011 300.256 815.252 299.875 815.423 299.42L817.366 299.966C817.161 300.625 816.817 301.205 816.335 301.705C815.852 302.199 815.255 302.585 814.545 302.864C813.835 303.136 813.036 303.273 812.15 303.273ZM825.948 303.273C824.721 303.273 823.664 302.983 822.778 302.403C821.891 301.824 821.21 301.026 820.732 300.009C820.255 298.991 820.016 297.83 820.016 296.523C820.016 295.193 820.261 294.02 820.749 293.003C821.244 291.98 821.931 291.182 822.812 290.608C823.698 290.028 824.732 289.739 825.914 289.739C826.835 289.739 827.664 289.909 828.403 290.25C829.141 290.591 829.746 291.068 830.218 291.682C830.69 292.295 830.982 293.011 831.096 293.83H829.085C828.931 293.233 828.59 292.705 828.062 292.244C827.539 291.778 826.835 291.545 825.948 291.545C825.164 291.545 824.477 291.75 823.886 292.159C823.3 292.562 822.843 293.134 822.513 293.872C822.19 294.605 822.028 295.466 822.028 296.455C822.028 297.466 822.187 298.347 822.505 299.097C822.829 299.847 823.283 300.429 823.869 300.844C824.46 301.259 825.153 301.466 825.948 301.466C826.471 301.466 826.945 301.375 827.371 301.193C827.798 301.011 828.158 300.75 828.454 300.409C828.749 300.068 828.96 299.659 829.085 299.182H831.096C830.982 299.955 830.701 300.651 830.252 301.27C829.809 301.884 829.221 302.372 828.488 302.736C827.761 303.094 826.914 303.273 825.948 303.273ZM845.116 291.614C844.661 291.619 844.204 291.736 843.744 291.963C843.289 292.19 842.908 292.491 842.602 292.866C842.3 293.236 842.15 293.648 842.15 294.102H840.173C840.173 293.534 840.309 292.989 840.582 292.466C840.854 291.943 841.221 291.477 841.681 291.068C842.147 290.659 842.675 290.335 843.266 290.097C843.863 289.858 844.479 289.739 845.116 289.739C846.309 289.739 847.32 290.04 848.15 290.642C848.985 291.244 849.619 292.04 850.05 293.028C850.488 294.017 850.707 295.091 850.707 296.25V296.727C850.707 297.881 850.488 298.955 850.05 299.949C849.619 300.937 848.985 301.733 848.15 302.335C847.32 302.937 846.309 303.239 845.116 303.239C844.161 303.239 843.312 303.028 842.567 302.608C841.823 302.182 841.238 301.614 840.812 300.903C840.386 300.193 840.173 299.403 840.173 298.534H842.15C842.15 299.028 842.289 299.491 842.567 299.923C842.852 300.349 843.218 300.696 843.667 300.963C844.121 301.224 844.604 301.358 845.116 301.364C845.877 301.358 846.525 301.119 847.059 300.648C847.593 300.176 847.999 299.585 848.278 298.875C848.556 298.165 848.695 297.449 848.695 296.727V296.25C848.695 295.511 848.556 294.79 848.278 294.085C848.005 293.375 847.602 292.787 847.067 292.321C846.539 291.855 845.888 291.619 845.116 291.614ZM849.513 295.466V297.341H843.786V295.466H849.513ZM852.612 303V301.125H853.089C853.481 301.125 853.808 301.048 854.069 300.895C854.33 300.736 854.54 300.46 854.7 300.068C854.864 299.67 854.989 299.119 855.075 298.415C855.165 297.705 855.231 296.801 855.271 295.705L855.509 289.909H864.237V303H862.225V291.784H857.418L857.214 296.455C857.168 297.528 857.072 298.474 856.924 299.293C856.782 300.105 856.563 300.787 856.268 301.338C855.978 301.889 855.592 302.304 855.109 302.582C854.626 302.861 854.021 303 853.293 303H852.612ZM873.415 303.273C872.154 303.273 871.066 302.994 870.151 302.438C869.242 301.875 868.54 301.091 868.046 300.085C867.558 299.074 867.313 297.898 867.313 296.557C867.313 295.216 867.558 294.034 868.046 293.011C868.54 291.983 869.228 291.182 870.109 290.608C870.995 290.028 872.029 289.739 873.211 289.739C873.893 289.739 874.566 289.852 875.231 290.08C875.896 290.307 876.501 290.676 877.046 291.188C877.592 291.693 878.026 292.364 878.35 293.199C878.674 294.034 878.836 295.062 878.836 296.284V297.136H868.745V295.398H876.79C876.79 294.659 876.643 294 876.347 293.42C876.058 292.841 875.643 292.384 875.103 292.048C874.569 291.713 873.938 291.545 873.211 291.545C872.41 291.545 871.717 291.744 871.131 292.142C870.552 292.534 870.106 293.045 869.793 293.676C869.481 294.307 869.325 294.983 869.325 295.705V296.864C869.325 297.852 869.495 298.69 869.836 299.378C870.183 300.06 870.663 300.58 871.276 300.938C871.89 301.29 872.603 301.466 873.415 301.466C873.944 301.466 874.421 301.392 874.847 301.244C875.279 301.091 875.651 300.864 875.964 300.562C876.276 300.256 876.518 299.875 876.688 299.42L878.631 299.966C878.427 300.625 878.083 301.205 877.6 301.705C877.117 302.199 876.521 302.585 875.81 302.864C875.1 303.136 874.302 303.273 873.415 303.273ZM881.896 303V289.909H883.907V295.602H885.237L889.941 289.909H892.532L887.248 296.216L892.6 303H890.009L885.714 297.477H883.907V303H881.896ZM894.036 291.784V289.909H904.673V291.784H900.377V303H898.366V291.784H894.036ZM907.607 307.909V289.909H909.55V291.989H909.788C909.936 291.761 910.141 291.472 910.402 291.119C910.669 290.761 911.05 290.443 911.544 290.165C912.044 289.881 912.72 289.739 913.572 289.739C914.675 289.739 915.646 290.014 916.487 290.565C917.328 291.116 917.984 291.898 918.456 292.909C918.928 293.92 919.163 295.114 919.163 296.489C919.163 297.875 918.928 299.077 918.456 300.094C917.984 301.105 917.331 301.889 916.496 302.446C915.661 302.997 914.697 303.273 913.607 303.273C912.766 303.273 912.092 303.134 911.587 302.855C911.081 302.571 910.692 302.25 910.419 301.892C910.146 301.528 909.936 301.227 909.788 300.989H909.618V307.909H907.607ZM909.584 296.455C909.584 297.443 909.729 298.315 910.018 299.071C910.308 299.821 910.732 300.409 911.288 300.835C911.845 301.256 912.527 301.466 913.334 301.466C914.175 301.466 914.876 301.244 915.439 300.801C916.007 300.352 916.433 299.75 916.717 298.994C917.007 298.233 917.152 297.386 917.152 296.455C917.152 295.534 917.01 294.705 916.726 293.966C916.447 293.222 916.024 292.634 915.456 292.202C914.893 291.764 914.186 291.545 913.334 291.545C912.516 291.545 911.828 291.753 911.271 292.168C910.714 292.577 910.294 293.151 910.01 293.889C909.726 294.622 909.584 295.477 909.584 296.455ZM927.55 303.273C926.368 303.273 925.331 302.991 924.439 302.429C923.553 301.866 922.859 301.08 922.359 300.068C921.865 299.057 921.618 297.875 921.618 296.523C921.618 295.159 921.865 293.969 922.359 292.952C922.859 291.935 923.553 291.145 924.439 290.582C925.331 290.02 926.368 289.739 927.55 289.739C928.732 289.739 929.766 290.02 930.652 290.582C931.544 291.145 932.237 291.935 932.732 292.952C933.232 293.969 933.482 295.159 933.482 296.523C933.482 297.875 933.232 299.057 932.732 300.068C932.237 301.08 931.544 301.866 930.652 302.429C929.766 302.991 928.732 303.273 927.55 303.273ZM927.55 301.466C928.447 301.466 929.186 301.236 929.766 300.776C930.345 300.315 930.774 299.71 931.053 298.96C931.331 298.21 931.47 297.398 931.47 296.523C931.47 295.648 931.331 294.832 931.053 294.077C930.774 293.321 930.345 292.71 929.766 292.244C929.186 291.778 928.447 291.545 927.55 291.545C926.652 291.545 925.913 291.778 925.334 292.244C924.754 292.71 924.325 293.321 924.047 294.077C923.768 294.832 923.629 295.648 923.629 296.523C923.629 297.398 923.768 298.21 924.047 298.96C924.325 299.71 924.754 300.315 925.334 300.776C925.913 301.236 926.652 301.466 927.55 301.466ZM945.313 295.534V297.409H938.086V295.534H945.313ZM938.563 289.909V303H936.552V289.909H938.563ZM946.847 289.909V303H944.836V289.909H946.847ZM959.282 295.534V297.409H952.055V295.534H959.282ZM952.532 289.909V303H950.521V289.909H952.532ZM960.816 289.909V303H958.805V289.909H960.816ZM969.808 303.273C968.626 303.273 967.589 302.991 966.697 302.429C965.81 301.866 965.117 301.08 964.617 300.068C964.123 299.057 963.876 297.875 963.876 296.523C963.876 295.159 964.123 293.969 964.617 292.952C965.117 291.935 965.81 291.145 966.697 290.582C967.589 290.02 968.626 289.739 969.808 289.739C970.989 289.739 972.023 290.02 972.91 290.582C973.802 291.145 974.495 291.935 974.989 292.952C975.489 293.969 975.739 295.159 975.739 296.523C975.739 297.875 975.489 299.057 974.989 300.068C974.495 301.08 973.802 301.866 972.91 302.429C972.023 302.991 970.989 303.273 969.808 303.273ZM969.808 301.466C970.705 301.466 971.444 301.236 972.023 300.776C972.603 300.315 973.032 299.71 973.31 298.96C973.589 298.21 973.728 297.398 973.728 296.523C973.728 295.648 973.589 294.832 973.31 294.077C973.032 293.321 972.603 292.71 972.023 292.244C971.444 291.778 970.705 291.545 969.808 291.545C968.91 291.545 968.171 291.778 967.592 292.244C967.012 292.71 966.583 293.321 966.305 294.077C966.026 294.832 965.887 295.648 965.887 296.523C965.887 297.398 966.026 298.21 966.305 298.96C966.583 299.71 967.012 300.315 967.592 300.776C968.171 301.236 968.91 301.466 969.808 301.466ZM980.821 300.034L987.128 289.909H989.446V303H987.435V292.875L981.162 303H978.81V289.909H980.821V300.034ZM985.798 285.545H987.673C987.673 286.466 987.355 287.219 986.719 287.804C986.082 288.389 985.219 288.682 984.128 288.682C983.054 288.682 982.199 288.389 981.562 287.804C980.932 287.219 980.616 286.466 980.616 285.545H982.491C982.491 285.989 982.614 286.378 982.858 286.713C983.108 287.048 983.531 287.216 984.128 287.216C984.724 287.216 985.151 287.048 985.406 286.713C985.668 286.378 985.798 285.989 985.798 285.545ZM999.88 303V289.909H1010.18V303H1008.16V291.784H1001.89V303H999.88ZM1019.17 303.273C1017.99 303.273 1016.95 302.991 1016.06 302.429C1015.17 301.866 1014.48 301.08 1013.98 300.068C1013.48 299.057 1013.24 297.875 1013.24 296.523C1013.24 295.159 1013.48 293.969 1013.98 292.952C1014.48 291.935 1015.17 291.145 1016.06 290.582C1016.95 290.02 1017.99 289.739 1019.17 289.739C1020.35 289.739 1021.38 290.02 1022.27 290.582C1023.16 291.145 1023.85 291.935 1024.35 292.952C1024.85 293.969 1025.1 295.159 1025.1 296.523C1025.1 297.875 1024.85 299.057 1024.35 300.068C1023.85 301.08 1023.16 301.866 1022.27 302.429C1021.38 302.991 1020.35 303.273 1019.17 303.273ZM1019.17 301.466C1020.06 301.466 1020.8 301.236 1021.38 300.776C1021.96 300.315 1022.39 299.71 1022.67 298.96C1022.95 298.21 1023.09 297.398 1023.09 296.523C1023.09 295.648 1022.95 294.832 1022.67 294.077C1022.39 293.321 1021.96 292.71 1021.38 292.244C1020.8 291.778 1020.06 291.545 1019.17 291.545C1018.27 291.545 1017.53 291.778 1016.95 292.244C1016.37 292.71 1015.94 293.321 1015.66 294.077C1015.39 294.832 1015.25 295.648 1015.25 296.523C1015.25 297.398 1015.39 298.21 1015.66 298.96C1015.94 299.71 1016.37 300.315 1016.95 300.776C1017.53 301.236 1018.27 301.466 1019.17 301.466ZM1038.26 289.909V303H1036.25V289.909H1038.26ZM1037.48 296.148V298.023C1037.02 298.193 1036.57 298.344 1036.12 298.474C1035.67 298.599 1035.2 298.699 1034.71 298.773C1034.21 298.841 1033.67 298.875 1033.08 298.875C1031.6 298.875 1030.4 298.474 1029.51 297.673C1028.62 296.872 1028.17 295.67 1028.17 294.068V289.875H1030.18V294.068C1030.18 294.739 1030.31 295.29 1030.56 295.722C1030.82 296.153 1031.17 296.474 1031.6 296.685C1032.04 296.895 1032.53 297 1033.08 297C1033.93 297 1034.7 296.923 1035.39 296.77C1036.08 296.611 1036.78 296.403 1037.48 296.148ZM1040.17 291.784V289.909H1050.81V291.784H1046.51V303H1044.5V291.784H1040.17ZM1055.48 294.648H1059.23C1060.76 294.648 1061.94 295.037 1062.75 295.815C1063.56 296.594 1063.97 297.58 1063.97 298.773C1063.97 299.557 1063.78 300.27 1063.42 300.912C1063.06 301.548 1062.52 302.057 1061.82 302.438C1061.11 302.812 1060.25 303 1059.23 303H1053.74V289.909H1055.75V301.125H1059.23C1060.02 301.125 1060.68 300.915 1061.19 300.494C1061.7 300.074 1061.96 299.534 1061.96 298.875C1061.96 298.182 1061.7 297.616 1061.19 297.179C1060.68 296.741 1060.02 296.523 1059.23 296.523H1055.48V294.648ZM1066.05 303V289.909H1068.06V303H1066.05Z" fill="#747373"/>
<g filter="url(#filter1_d_4_1909)">
<rect x="730" y="376" width="459" height="79" rx="20" fill="white"/>
</g>
<path d="M775.159 413H773.045C772.92 412.392 772.702 411.858 772.389 411.398C772.082 410.938 771.707 410.551 771.264 410.239C770.827 409.92 770.341 409.682 769.807 409.523C769.273 409.364 768.716 409.284 768.136 409.284C767.08 409.284 766.122 409.551 765.264 410.085C764.412 410.619 763.733 411.406 763.227 412.446C762.727 413.486 762.477 414.761 762.477 416.273C762.477 417.784 762.727 419.06 763.227 420.099C763.733 421.139 764.412 421.926 765.264 422.46C766.122 422.994 767.08 423.261 768.136 423.261C768.716 423.261 769.273 423.182 769.807 423.023C770.341 422.864 770.827 422.628 771.264 422.315C771.707 421.997 772.082 421.608 772.389 421.148C772.702 420.682 772.92 420.148 773.045 419.545H775.159C775 420.437 774.71 421.236 774.29 421.94C773.869 422.645 773.347 423.244 772.722 423.739C772.097 424.227 771.395 424.599 770.616 424.855C769.844 425.111 769.017 425.239 768.136 425.239C766.648 425.239 765.324 424.875 764.165 424.148C763.006 423.42 762.094 422.386 761.429 421.045C760.764 419.705 760.432 418.114 760.432 416.273C760.432 414.432 760.764 412.841 761.429 411.5C762.094 410.159 763.006 409.125 764.165 408.398C765.324 407.67 766.648 407.307 768.136 407.307C769.017 407.307 769.844 407.435 770.616 407.69C771.395 407.946 772.097 408.321 772.722 408.815C773.347 409.304 773.869 409.901 774.29 410.605C774.71 411.304 775 412.102 775.159 413ZM777.552 413.784V411.909H788.188V413.784H783.893V425H781.881V413.784H777.552ZM794.295 425.307C793.465 425.307 792.712 425.151 792.036 424.838C791.36 424.52 790.823 424.062 790.425 423.466C790.028 422.864 789.829 422.136 789.829 421.284C789.829 420.534 789.977 419.926 790.272 419.46C790.567 418.989 790.962 418.619 791.457 418.352C791.951 418.085 792.496 417.886 793.093 417.756C793.695 417.619 794.3 417.511 794.908 417.432C795.704 417.33 796.349 417.253 796.843 417.202C797.343 417.145 797.707 417.051 797.934 416.92C798.167 416.79 798.283 416.562 798.283 416.239V416.17C798.283 415.33 798.053 414.676 797.593 414.21C797.138 413.744 796.448 413.511 795.522 413.511C794.562 413.511 793.809 413.722 793.263 414.142C792.718 414.562 792.335 415.011 792.113 415.489L790.204 414.807C790.545 414.011 790.999 413.392 791.567 412.949C792.141 412.5 792.766 412.187 793.442 412.011C794.124 411.83 794.795 411.739 795.454 411.739C795.874 411.739 796.357 411.79 796.903 411.892C797.454 411.989 797.985 412.19 798.496 412.497C799.013 412.804 799.442 413.267 799.783 413.886C800.124 414.506 800.295 415.335 800.295 416.375V425H798.283V423.227H798.181C798.045 423.511 797.817 423.815 797.499 424.139C797.181 424.463 796.758 424.739 796.229 424.966C795.701 425.193 795.056 425.307 794.295 425.307ZM794.602 423.5C795.397 423.5 796.067 423.344 796.613 423.031C797.164 422.719 797.579 422.315 797.857 421.821C798.141 421.327 798.283 420.807 798.283 420.261V418.42C798.198 418.523 798.011 418.616 797.721 418.702C797.437 418.781 797.107 418.852 796.732 418.915C796.363 418.972 796.002 419.023 795.65 419.068C795.303 419.108 795.022 419.142 794.806 419.17C794.283 419.239 793.795 419.349 793.34 419.503C792.891 419.651 792.528 419.875 792.249 420.176C791.977 420.472 791.84 420.875 791.84 421.386C791.84 422.085 792.099 422.614 792.616 422.972C793.138 423.324 793.8 423.5 794.602 423.5ZM803.966 429.909V411.909H805.909V413.989H806.148C806.295 413.761 806.5 413.472 806.761 413.119C807.028 412.761 807.409 412.443 807.903 412.165C808.403 411.881 809.08 411.739 809.932 411.739C811.034 411.739 812.006 412.014 812.847 412.565C813.688 413.116 814.344 413.898 814.815 414.909C815.287 415.92 815.523 417.114 815.523 418.489C815.523 419.875 815.287 421.077 814.815 422.094C814.344 423.105 813.69 423.889 812.855 424.446C812.02 424.997 811.057 425.273 809.966 425.273C809.125 425.273 808.452 425.134 807.946 424.855C807.44 424.571 807.051 424.25 806.778 423.892C806.506 423.528 806.295 423.227 806.148 422.989H805.977V429.909H803.966ZM805.943 418.455C805.943 419.443 806.088 420.315 806.378 421.071C806.668 421.821 807.091 422.409 807.648 422.835C808.205 423.256 808.886 423.466 809.693 423.466C810.534 423.466 811.236 423.244 811.798 422.801C812.366 422.352 812.793 421.75 813.077 420.994C813.366 420.233 813.511 419.386 813.511 418.455C813.511 417.534 813.369 416.705 813.085 415.966C812.807 415.222 812.384 414.634 811.815 414.202C811.253 413.764 810.545 413.545 809.693 413.545C808.875 413.545 808.188 413.753 807.631 414.168C807.074 414.577 806.653 415.151 806.369 415.889C806.085 416.622 805.943 417.477 805.943 418.455ZM820.33 416.648H824.08C825.614 416.648 826.787 417.037 827.599 417.815C828.412 418.594 828.818 419.58 828.818 420.773C828.818 421.557 828.636 422.27 828.273 422.912C827.909 423.548 827.375 424.057 826.67 424.438C825.966 424.812 825.102 425 824.08 425H818.591V411.909H820.602V423.125H824.08C824.875 423.125 825.528 422.915 826.04 422.494C826.551 422.074 826.807 421.534 826.807 420.875C826.807 420.182 826.551 419.616 826.04 419.179C825.528 418.741 824.875 418.523 824.08 418.523H820.33V416.648ZM830.898 425V411.909H832.909V425H830.898ZM838.602 422.034L844.909 411.909H847.227V425H845.216V414.875L838.943 425H836.591V411.909H838.602V422.034ZM843.58 407.545H845.455C845.455 408.466 845.136 409.219 844.5 409.804C843.864 410.389 843 410.682 841.909 410.682C840.835 410.682 839.98 410.389 839.344 409.804C838.713 409.219 838.398 408.466 838.398 407.545H840.273C840.273 407.989 840.395 408.378 840.639 408.713C840.889 409.048 841.313 409.216 841.909 409.216C842.506 409.216 842.932 409.048 843.188 408.713C843.449 408.378 843.58 407.989 843.58 407.545ZM857.661 425V411.909H867.957V425H865.945V413.784H859.673V425H857.661ZM875.482 425.307C874.653 425.307 873.9 425.151 873.224 424.838C872.548 424.52 872.011 424.062 871.613 423.466C871.215 422.864 871.016 422.136 871.016 421.284C871.016 420.534 871.164 419.926 871.46 419.46C871.755 418.989 872.15 418.619 872.644 418.352C873.138 418.085 873.684 417.886 874.281 417.756C874.883 417.619 875.488 417.511 876.096 417.432C876.891 417.33 877.536 417.253 878.031 417.202C878.531 417.145 878.894 417.051 879.121 416.92C879.354 416.79 879.471 416.562 879.471 416.239V416.17C879.471 415.33 879.241 414.676 878.781 414.21C878.326 413.744 877.636 413.511 876.71 413.511C875.749 413.511 874.996 413.722 874.451 414.142C873.906 414.562 873.522 415.011 873.3 415.489L871.391 414.807C871.732 414.011 872.187 413.392 872.755 412.949C873.329 412.5 873.954 412.187 874.63 412.011C875.312 411.83 875.982 411.739 876.641 411.739C877.062 411.739 877.545 411.79 878.09 411.892C878.641 411.989 879.173 412.19 879.684 412.497C880.201 412.804 880.63 413.267 880.971 413.886C881.312 414.506 881.482 415.335 881.482 416.375V425H879.471V423.227H879.369C879.232 423.511 879.005 423.815 878.687 424.139C878.369 424.463 877.945 424.739 877.417 424.966C876.888 425.193 876.244 425.307 875.482 425.307ZM875.789 423.5C876.585 423.5 877.255 423.344 877.8 423.031C878.352 422.719 878.766 422.315 879.045 421.821C879.329 421.327 879.471 420.807 879.471 420.261V418.42C879.386 418.523 879.198 418.616 878.908 418.702C878.624 418.781 878.295 418.852 877.92 418.915C877.55 418.972 877.19 419.023 876.837 419.068C876.491 419.108 876.21 419.142 875.994 419.17C875.471 419.239 874.982 419.349 874.528 419.503C874.079 419.651 873.715 419.875 873.437 420.176C873.164 420.472 873.028 420.875 873.028 421.386C873.028 422.085 873.286 422.614 873.803 422.972C874.326 423.324 874.988 423.5 875.789 423.5ZM885.153 429.909V411.909H887.097V413.989H887.335C887.483 413.761 887.688 413.472 887.949 413.119C888.216 412.761 888.597 412.443 889.091 412.165C889.591 411.881 890.267 411.739 891.119 411.739C892.222 411.739 893.193 412.014 894.034 412.565C894.875 413.116 895.531 413.898 896.003 414.909C896.474 415.92 896.71 417.114 896.71 418.489C896.71 419.875 896.474 421.077 896.003 422.094C895.531 423.105 894.878 423.889 894.043 424.446C893.207 424.997 892.244 425.273 891.153 425.273C890.313 425.273 889.639 425.134 889.134 424.855C888.628 424.571 888.239 424.25 887.966 423.892C887.693 423.528 887.483 423.227 887.335 422.989H887.165V429.909H885.153ZM887.131 418.455C887.131 419.443 887.276 420.315 887.565 421.071C887.855 421.821 888.278 422.409 888.835 422.835C889.392 423.256 890.074 423.466 890.881 423.466C891.722 423.466 892.423 423.244 892.986 422.801C893.554 422.352 893.98 421.75 894.264 420.994C894.554 420.233 894.699 419.386 894.699 418.455C894.699 417.534 894.557 416.705 894.273 415.966C893.994 415.222 893.571 414.634 893.003 414.202C892.44 413.764 891.733 413.545 890.881 413.545C890.063 413.545 889.375 413.753 888.818 414.168C888.261 414.577 887.841 415.151 887.557 415.889C887.273 416.622 887.131 417.477 887.131 418.455ZM905.097 425.273C903.915 425.273 902.878 424.991 901.986 424.429C901.099 423.866 900.406 423.08 899.906 422.068C899.412 421.057 899.165 419.875 899.165 418.523C899.165 417.159 899.412 415.969 899.906 414.952C900.406 413.935 901.099 413.145 901.986 412.582C902.878 412.02 903.915 411.739 905.097 411.739C906.278 411.739 907.313 412.02 908.199 412.582C909.091 413.145 909.784 413.935 910.278 414.952C910.778 415.969 911.028 417.159 911.028 418.523C911.028 419.875 910.778 421.057 910.278 422.068C909.784 423.08 909.091 423.866 908.199 424.429C907.313 424.991 906.278 425.273 905.097 425.273ZM905.097 423.466C905.994 423.466 906.733 423.236 907.312 422.776C907.892 422.315 908.321 421.71 908.599 420.96C908.878 420.21 909.017 419.398 909.017 418.523C909.017 417.648 908.878 416.832 908.599 416.077C908.321 415.321 907.892 414.71 907.312 414.244C906.733 413.778 905.994 413.545 905.097 413.545C904.199 413.545 903.46 413.778 902.881 414.244C902.301 414.71 901.872 415.321 901.594 416.077C901.315 416.832 901.176 417.648 901.176 418.523C901.176 419.398 901.315 420.21 901.594 420.96C901.872 421.71 902.301 422.315 902.881 422.776C903.46 423.236 904.199 423.466 905.097 423.466ZM912.94 425V423.125H913.417C913.809 423.125 914.136 423.048 914.397 422.895C914.658 422.736 914.869 422.46 915.028 422.068C915.192 421.67 915.317 421.119 915.403 420.415C915.494 419.705 915.559 418.801 915.599 417.705L915.837 411.909H924.565V425H922.553V413.784H917.746L917.542 418.455C917.496 419.528 917.4 420.474 917.252 421.293C917.11 422.105 916.891 422.787 916.596 423.338C916.306 423.889 915.92 424.304 915.437 424.582C914.954 424.861 914.349 425 913.621 425H912.94ZM929.994 416.648H933.744C935.278 416.648 936.451 417.037 937.263 417.815C938.076 418.594 938.482 419.58 938.482 420.773C938.482 421.557 938.3 422.27 937.937 422.912C937.573 423.548 937.039 424.057 936.335 424.438C935.63 424.812 934.766 425 933.744 425H928.255V411.909H930.266V423.125H933.744C934.539 423.125 935.192 422.915 935.704 422.494C936.215 422.074 936.471 421.534 936.471 420.875C936.471 420.182 936.215 419.616 935.704 419.179C935.192 418.741 934.539 418.523 933.744 418.523H929.994V416.648Z" fill="#747373"/>
<g filter="url(#filter2_d_4_1909)">
<rect x="730" y="498" width="459" height="79" rx="20" fill="white"/>
</g>
<path d="M761.114 547V529.545H763.227V537.318H772.534V529.545H774.648V547H772.534V539.193H763.227V547H761.114ZM783.925 547.273C782.743 547.273 781.706 546.991 780.814 546.429C779.928 545.866 779.234 545.08 778.734 544.068C778.24 543.057 777.993 541.875 777.993 540.523C777.993 539.159 778.24 537.969 778.734 536.952C779.234 535.935 779.928 535.145 780.814 534.582C781.706 534.02 782.743 533.739 783.925 533.739C785.107 533.739 786.141 534.02 787.027 534.582C787.919 535.145 788.612 535.935 789.107 536.952C789.607 537.969 789.857 539.159 789.857 540.523C789.857 541.875 789.607 543.057 789.107 544.068C788.612 545.08 787.919 545.866 787.027 546.429C786.141 546.991 785.107 547.273 783.925 547.273ZM783.925 545.466C784.822 545.466 785.561 545.236 786.141 544.776C786.72 544.315 787.149 543.71 787.428 542.96C787.706 542.21 787.845 541.398 787.845 540.523C787.845 539.648 787.706 538.832 787.428 538.077C787.149 537.321 786.72 536.71 786.141 536.244C785.561 535.778 784.822 535.545 783.925 535.545C783.027 535.545 782.288 535.778 781.709 536.244C781.129 536.71 780.7 537.321 780.422 538.077C780.143 538.832 780.004 539.648 780.004 540.523C780.004 541.398 780.143 542.21 780.422 542.96C780.7 543.71 781.129 544.315 781.709 544.776C782.288 545.236 783.027 545.466 783.925 545.466ZM792.927 547V533.909H798.279C799.688 533.909 800.808 534.227 801.637 534.864C802.467 535.5 802.881 536.341 802.881 537.386C802.881 538.182 802.646 538.798 802.174 539.236C801.702 539.668 801.097 539.96 800.359 540.114C800.842 540.182 801.31 540.352 801.765 540.625C802.225 540.898 802.606 541.273 802.907 541.75C803.208 542.222 803.359 542.801 803.359 543.489C803.359 544.159 803.188 544.759 802.847 545.287C802.506 545.815 802.018 546.233 801.381 546.54C800.745 546.847 799.984 547 799.097 547H792.927ZM794.836 545.159H799.097C799.79 545.159 800.333 544.994 800.725 544.665C801.117 544.335 801.313 543.886 801.313 543.318C801.313 542.642 801.117 542.111 800.725 541.724C800.333 541.332 799.79 541.136 799.097 541.136H794.836V545.159ZM794.836 539.398H798.279C798.819 539.398 799.282 539.324 799.668 539.176C800.055 539.023 800.35 538.807 800.555 538.528C800.765 538.244 800.87 537.909 800.87 537.523C800.87 536.972 800.64 536.54 800.18 536.227C799.719 535.909 799.086 535.75 798.279 535.75H794.836V539.398ZM808.142 538.648H811.892C813.426 538.648 814.599 539.037 815.412 539.815C816.224 540.594 816.631 541.58 816.631 542.773C816.631 543.557 816.449 544.27 816.085 544.912C815.722 545.548 815.188 546.057 814.483 546.438C813.778 546.812 812.915 547 811.892 547H806.403V533.909H808.415V545.125H811.892C812.688 545.125 813.341 544.915 813.852 544.494C814.364 544.074 814.619 543.534 814.619 542.875C814.619 542.182 814.364 541.616 813.852 541.179C813.341 540.741 812.688 540.523 811.892 540.523H808.142V538.648ZM818.71 547V533.909H820.722V547H818.71ZM826.415 544.034L832.722 533.909H835.04V547H833.028V536.875L826.756 547H824.403V533.909H826.415V544.034ZM831.392 529.545H833.267C833.267 530.466 832.949 531.219 832.312 531.804C831.676 532.389 830.813 532.682 829.722 532.682C828.648 532.682 827.793 532.389 827.156 531.804C826.526 531.219 826.21 530.466 826.21 529.545H828.085C828.085 529.989 828.207 530.378 828.452 530.713C828.702 531.048 829.125 531.216 829.722 531.216C830.318 531.216 830.744 531.048 831 530.713C831.261 530.378 831.392 529.989 831.392 529.545ZM845.474 547V533.909H855.769V547H853.758V535.784H847.485V547H845.474ZM863.295 547.307C862.465 547.307 861.712 547.151 861.036 546.838C860.36 546.52 859.823 546.062 859.425 545.466C859.028 544.864 858.829 544.136 858.829 543.284C858.829 542.534 858.977 541.926 859.272 541.46C859.567 540.989 859.962 540.619 860.457 540.352C860.951 540.085 861.496 539.886 862.093 539.756C862.695 539.619 863.3 539.511 863.908 539.432C864.704 539.33 865.349 539.253 865.843 539.202C866.343 539.145 866.707 539.051 866.934 538.92C867.167 538.79 867.283 538.562 867.283 538.239V538.17C867.283 537.33 867.053 536.676 866.593 536.21C866.138 535.744 865.448 535.511 864.522 535.511C863.562 535.511 862.809 535.722 862.263 536.142C861.718 536.562 861.335 537.011 861.113 537.489L859.204 536.807C859.545 536.011 859.999 535.392 860.567 534.949C861.141 534.5 861.766 534.187 862.442 534.011C863.124 533.83 863.795 533.739 864.454 533.739C864.874 533.739 865.357 533.79 865.903 533.892C866.454 533.989 866.985 534.19 867.496 534.497C868.013 534.804 868.442 535.267 868.783 535.886C869.124 536.506 869.295 537.335 869.295 538.375V547H867.283V545.227H867.181C867.045 545.511 866.817 545.815 866.499 546.139C866.181 546.463 865.758 546.739 865.229 546.966C864.701 547.193 864.056 547.307 863.295 547.307ZM863.602 545.5C864.397 545.5 865.067 545.344 865.613 545.031C866.164 544.719 866.579 544.315 866.857 543.821C867.141 543.327 867.283 542.807 867.283 542.261V540.42C867.198 540.523 867.011 540.616 866.721 540.702C866.437 540.781 866.107 540.852 865.732 540.915C865.363 540.972 865.002 541.023 864.65 541.068C864.303 541.108 864.022 541.142 863.806 541.17C863.283 541.239 862.795 541.349 862.34 541.503C861.891 541.651 861.528 541.875 861.249 542.176C860.977 542.472 860.84 542.875 860.84 543.386C860.84 544.085 861.099 544.614 861.616 544.972C862.138 545.324 862.8 545.5 863.602 545.5ZM872.966 551.909V533.909H874.909V535.989H875.148C875.295 535.761 875.5 535.472 875.761 535.119C876.028 534.761 876.409 534.443 876.903 534.165C877.403 533.881 878.08 533.739 878.932 533.739C880.034 533.739 881.006 534.014 881.847 534.565C882.688 535.116 883.344 535.898 883.815 536.909C884.287 537.92 884.523 539.114 884.523 540.489C884.523 541.875 884.287 543.077 883.815 544.094C883.344 545.105 882.69 545.889 881.855 546.446C881.02 546.997 880.057 547.273 878.966 547.273C878.125 547.273 877.452 547.134 876.946 546.855C876.44 546.571 876.051 546.25 875.778 545.892C875.506 545.528 875.295 545.227 875.148 544.989H874.977V551.909H872.966ZM874.943 540.455C874.943 541.443 875.088 542.315 875.378 543.071C875.668 543.821 876.091 544.409 876.648 544.835C877.205 545.256 877.886 545.466 878.693 545.466C879.534 545.466 880.236 545.244 880.798 544.801C881.366 544.352 881.793 543.75 882.077 542.994C882.366 542.233 882.511 541.386 882.511 540.455C882.511 539.534 882.369 538.705 882.085 537.966C881.807 537.222 881.384 536.634 880.815 536.202C880.253 535.764 879.545 535.545 878.693 535.545C877.875 535.545 877.188 535.753 876.631 536.168C876.074 536.577 875.653 537.151 875.369 537.889C875.085 538.622 874.943 539.477 874.943 540.455ZM892.909 547.273C891.727 547.273 890.69 546.991 889.798 546.429C888.912 545.866 888.219 545.08 887.719 544.068C887.224 543.057 886.977 541.875 886.977 540.523C886.977 539.159 887.224 537.969 887.719 536.952C888.219 535.935 888.912 535.145 889.798 534.582C890.69 534.02 891.727 533.739 892.909 533.739C894.091 533.739 895.125 534.02 896.011 534.582C896.903 535.145 897.597 535.935 898.091 536.952C898.591 537.969 898.841 539.159 898.841 540.523C898.841 541.875 898.591 543.057 898.091 544.068C897.597 545.08 896.903 545.866 896.011 546.429C895.125 546.991 894.091 547.273 892.909 547.273ZM892.909 545.466C893.807 545.466 894.545 545.236 895.125 544.776C895.705 544.315 896.134 543.71 896.412 542.96C896.69 542.21 896.83 541.398 896.83 540.523C896.83 539.648 896.69 538.832 896.412 538.077C896.134 537.321 895.705 536.71 895.125 536.244C894.545 535.778 893.807 535.545 892.909 535.545C892.011 535.545 891.273 535.778 890.693 536.244C890.114 536.71 889.685 537.321 889.406 538.077C889.128 538.832 888.989 539.648 888.989 540.523C888.989 541.398 889.128 542.21 889.406 542.96C889.685 543.71 890.114 544.315 890.693 544.776C891.273 545.236 892.011 545.466 892.909 545.466ZM900.752 547V545.125H901.229C901.621 545.125 901.948 545.048 902.21 544.895C902.471 544.736 902.681 544.46 902.84 544.068C903.005 543.67 903.13 543.119 903.215 542.415C903.306 541.705 903.371 540.801 903.411 539.705L903.65 533.909H912.377V547H910.366V535.784H905.559L905.354 540.455C905.309 541.528 905.212 542.474 905.065 543.293C904.923 544.105 904.704 544.787 904.408 545.338C904.119 545.889 903.732 546.304 903.249 546.582C902.766 546.861 902.161 547 901.434 547H900.752ZM917.806 538.648H921.556C923.09 538.648 924.263 539.037 925.076 539.815C925.888 540.594 926.295 541.58 926.295 542.773C926.295 543.557 926.113 544.27 925.749 544.912C925.386 545.548 924.852 546.057 924.147 546.438C923.442 546.812 922.579 547 921.556 547H916.067V533.909H918.079V545.125H921.556C922.352 545.125 923.005 544.915 923.516 544.494C924.028 544.074 924.283 543.534 924.283 542.875C924.283 542.182 924.028 541.616 923.516 541.179C923.005 540.741 922.352 540.523 921.556 540.523H917.806V538.648Z" fill="#747373"/>
<g filter="url(#filter3_d_4_1909)">
<rect x="730" y="620" width="459" height="79" rx="20" fill="white"/>
</g>
<path d="M761.114 651.545H763.193V665.284H763.364L772.909 651.545H774.955V669H772.841V655.295H772.67L763.159 669H761.114V651.545ZM786.07 666.273L790.638 655.909H792.548L786.888 669H785.252L779.695 655.909H781.57L786.07 666.273ZM780.923 655.909V669H778.911V655.909H780.923ZM791.218 669V655.909H793.229V669H791.218ZM804.786 669V657.75H801.309C800.525 657.75 799.908 657.932 799.46 658.295C799.011 658.659 798.786 659.159 798.786 659.795C798.786 660.42 798.988 660.912 799.391 661.27C799.8 661.628 800.36 661.807 801.07 661.807H805.298V663.682H801.07C800.184 663.682 799.42 663.526 798.778 663.213C798.136 662.901 797.641 662.455 797.295 661.875C796.948 661.29 796.775 660.597 796.775 659.795C796.775 658.989 796.957 658.295 797.32 657.716C797.684 657.136 798.204 656.69 798.88 656.378C799.562 656.065 800.371 655.909 801.309 655.909H806.695V669H804.786ZM796.059 669L799.775 662.489H801.957L798.241 669H796.059Z" fill="#747373"/>
<g filter="url(#filter4_d_4_1909)">
<rect x="730" y="742" width="459" height="79" rx="20" fill="white"/>
</g>
<path d="M767.114 775.625H769.875C771.17 775.625 772.321 775.915 773.327 776.494C774.332 777.074 775.122 777.881 775.696 778.915C776.27 779.949 776.557 781.148 776.557 782.511C776.557 783.875 776.27 785.077 775.696 786.116C775.122 787.156 774.332 787.969 773.327 788.554C772.321 789.139 771.17 789.432 769.875 789.432H767.114C765.818 789.432 764.668 789.142 763.662 788.562C762.656 787.983 761.866 787.176 761.293 786.142C760.719 785.108 760.432 783.909 760.432 782.545C760.432 781.182 760.719 779.98 761.293 778.94C761.866 777.901 762.656 777.088 763.662 776.503C764.668 775.918 765.818 775.625 767.114 775.625ZM767.114 777.5C766.125 777.5 765.29 777.707 764.608 778.122C763.932 778.537 763.418 779.122 763.065 779.878C762.719 780.634 762.545 781.523 762.545 782.545C762.545 783.557 762.719 784.438 763.065 785.188C763.418 785.938 763.932 786.52 764.608 786.935C765.29 787.349 766.125 787.557 767.114 787.557H769.875C770.864 787.557 771.696 787.349 772.372 786.935C773.054 786.52 773.568 785.935 773.915 785.179C774.267 784.423 774.443 783.534 774.443 782.511C774.443 781.5 774.267 780.619 773.915 779.869C773.568 779.119 773.054 778.537 772.372 778.122C771.696 777.707 770.864 777.5 769.875 777.5H767.114ZM769.568 773.239V791.716H767.455V773.239H769.568ZM783.678 791.307C782.848 791.307 782.095 791.151 781.419 790.838C780.743 790.52 780.206 790.062 779.808 789.466C779.411 788.864 779.212 788.136 779.212 787.284C779.212 786.534 779.359 785.926 779.655 785.46C779.95 784.989 780.345 784.619 780.839 784.352C781.334 784.085 781.879 783.886 782.476 783.756C783.078 783.619 783.683 783.511 784.291 783.432C785.087 783.33 785.732 783.253 786.226 783.202C786.726 783.145 787.089 783.051 787.317 782.92C787.55 782.79 787.666 782.562 787.666 782.239V782.17C787.666 781.33 787.436 780.676 786.976 780.21C786.521 779.744 785.831 779.511 784.905 779.511C783.945 779.511 783.192 779.722 782.646 780.142C782.101 780.562 781.717 781.011 781.496 781.489L779.587 780.807C779.928 780.011 780.382 779.392 780.95 778.949C781.524 778.5 782.149 778.187 782.825 778.011C783.507 777.83 784.178 777.739 784.837 777.739C785.257 777.739 785.74 777.79 786.286 777.892C786.837 777.989 787.368 778.19 787.879 778.497C788.396 778.804 788.825 779.267 789.166 779.886C789.507 780.506 789.678 781.335 789.678 782.375V791H787.666V789.227H787.564C787.428 789.511 787.2 789.815 786.882 790.139C786.564 790.463 786.141 790.739 785.612 790.966C785.084 791.193 784.439 791.307 783.678 791.307ZM783.984 789.5C784.78 789.5 785.45 789.344 785.996 789.031C786.547 788.719 786.962 788.315 787.24 787.821C787.524 787.327 787.666 786.807 787.666 786.261V784.42C787.581 784.523 787.393 784.616 787.104 784.702C786.82 784.781 786.49 784.852 786.115 784.915C785.746 784.972 785.385 785.023 785.033 785.068C784.686 785.108 784.405 785.142 784.189 785.17C783.666 785.239 783.178 785.349 782.723 785.503C782.274 785.651 781.911 785.875 781.632 786.176C781.359 786.472 781.223 786.875 781.223 787.386C781.223 788.085 781.482 788.614 781.999 788.972C782.521 789.324 783.183 789.5 783.984 789.5ZM800.508 788.273L805.076 777.909H806.985L801.326 791H799.69L794.133 777.909H796.008L800.508 788.273ZM795.36 777.909V791H793.349V777.909H795.36ZM805.656 791V777.909H807.667V791H805.656ZM813.36 788.034L819.667 777.909H821.985V791H819.974V780.875L813.701 791H811.349V777.909H813.36V788.034ZM824.51 791V789.125H824.987C825.379 789.125 825.706 789.048 825.967 788.895C826.229 788.736 826.439 788.46 826.598 788.068C826.763 787.67 826.888 787.119 826.973 786.415C827.064 785.705 827.129 784.801 827.169 783.705L827.408 777.909H836.135V791H834.124V779.784H829.317L829.112 784.455C829.067 785.528 828.97 786.474 828.822 787.293C828.68 788.105 828.462 788.787 828.166 789.338C827.876 789.889 827.49 790.304 827.007 790.582C826.524 790.861 825.919 791 825.192 791H824.51ZM841.837 788.034L848.143 777.909H850.462V791H848.45V780.875L842.178 791H839.825V777.909H841.837V788.034ZM862.021 791V779.75H858.543C857.759 779.75 857.143 779.932 856.694 780.295C856.245 780.659 856.021 781.159 856.021 781.795C856.021 782.42 856.222 782.912 856.626 783.27C857.035 783.628 857.594 783.807 858.305 783.807H862.532V785.682H858.305C857.418 785.682 856.654 785.526 856.012 785.213C855.37 784.901 854.876 784.455 854.529 783.875C854.183 783.29 854.009 782.597 854.009 781.795C854.009 780.989 854.191 780.295 854.555 779.716C854.918 779.136 855.438 778.69 856.114 778.378C856.796 778.065 857.606 777.909 858.543 777.909H863.93V791H862.021ZM853.293 791L857.009 784.489H859.191L855.475 791H853.293Z" fill="#747373"/>
<g filter="url(#filter5_d_4_1909)">
<rect x="730" y="864" width="459" height="80" rx="20" fill="#C7DDFF"/>
<path d="M884.225 911.5V895.122H896.52V911.5H894.479V896.934H886.289V911.5H884.225ZM912.105 905.33C912.105 906.354 911.968 907.264 911.693 908.059C911.433 908.839 911.05 909.504 910.546 910.055C910.056 910.605 909.452 911.026 908.734 911.316C908.03 911.592 907.243 911.729 906.371 911.729C905.56 911.729 904.811 911.592 904.123 911.316C903.435 911.026 902.838 910.605 902.334 910.055C901.829 909.504 901.431 908.839 901.141 908.059C900.866 907.264 900.728 906.354 900.728 905.33C900.728 903.969 900.957 902.822 901.416 901.889C901.875 900.941 902.532 900.222 903.389 899.733C904.245 899.228 905.262 898.976 906.44 898.976C907.556 898.976 908.535 899.228 909.376 899.733C910.232 900.222 910.897 900.941 911.371 901.889C911.861 902.822 912.105 903.969 912.105 905.33ZM902.815 905.33C902.815 906.293 902.938 907.134 903.182 907.853C903.442 908.556 903.84 909.099 904.375 909.481C904.91 909.864 905.591 910.055 906.417 910.055C907.243 910.055 907.923 909.864 908.458 909.481C908.993 909.099 909.383 908.556 909.628 907.853C909.888 907.134 910.018 906.293 910.018 905.33C910.018 904.351 909.888 903.517 909.628 902.829C909.368 902.141 908.971 901.614 908.435 901.247C907.915 900.864 907.235 900.673 906.394 900.673C905.14 900.673 904.23 901.086 903.664 901.912C903.098 902.738 902.815 903.877 902.815 905.33ZM925.122 899.205V909.803H926.912V915.767H924.962V911.5H916.406V915.767H914.479V909.803H915.465C916.169 908.824 916.75 907.761 917.209 906.614C917.683 905.452 918.034 904.244 918.264 902.99C918.508 901.721 918.638 900.459 918.654 899.205H925.122ZM920.443 900.788C920.382 901.828 920.221 902.906 919.961 904.022C919.701 905.123 919.365 906.178 918.952 907.188C918.554 908.197 918.088 909.069 917.553 909.803H923.173V900.788H920.443ZM938.497 900.902H934.482V911.5H932.487V900.902H928.518V899.205H938.497V900.902ZM951.493 902.302C951.493 903.066 951.264 903.663 950.805 904.091C950.346 904.519 949.758 904.81 949.039 904.963V905.054C949.804 905.161 950.469 905.437 951.035 905.88C951.6 906.308 951.883 906.981 951.883 907.899C951.883 908.419 951.784 908.9 951.585 909.344C951.402 909.787 951.111 910.17 950.713 910.491C950.316 910.812 949.804 911.064 949.177 911.248C948.55 911.416 947.793 911.5 946.906 911.5H941.607V899.205H946.883C947.754 899.205 948.534 899.304 949.222 899.503C949.926 899.687 950.476 900.008 950.874 900.467C951.287 900.91 951.493 901.522 951.493 902.302ZM949.796 907.899C949.796 907.195 949.528 906.691 948.993 906.385C948.458 906.079 947.67 905.926 946.63 905.926H943.625V909.871H946.676C947.686 909.871 948.458 909.726 948.993 909.436C949.528 909.13 949.796 908.617 949.796 907.899ZM949.452 902.554C949.452 901.973 949.238 901.552 948.81 901.292C948.397 901.017 947.716 900.879 946.768 900.879H943.625V904.251H946.401C947.395 904.251 948.152 904.114 948.672 903.839C949.192 903.563 949.452 903.135 949.452 902.554ZM960.26 898.976C961.315 898.976 962.217 899.205 962.966 899.664C963.731 900.123 964.312 900.772 964.71 901.614C965.123 902.439 965.329 903.41 965.329 904.527V905.742H956.911C956.941 907.134 957.293 908.197 957.966 908.931C958.654 909.65 959.61 910.009 960.833 910.009C961.613 910.009 962.301 909.94 962.898 909.803C963.509 909.65 964.136 909.436 964.779 909.16V910.927C964.152 911.202 963.532 911.401 962.921 911.523C962.309 911.661 961.583 911.729 960.741 911.729C959.579 911.729 958.547 911.492 957.645 911.018C956.758 910.544 956.062 909.841 955.557 908.908C955.068 907.96 954.823 906.805 954.823 905.444C954.823 904.099 955.045 902.944 955.489 901.981C955.947 901.017 956.582 900.275 957.392 899.756C958.218 899.236 959.174 898.976 960.26 898.976ZM960.237 900.627C959.273 900.627 958.509 900.941 957.943 901.568C957.392 902.179 957.064 903.036 956.957 904.137H963.219C963.219 903.433 963.112 902.822 962.898 902.302C962.684 901.782 962.355 901.376 961.911 901.086C961.483 900.78 960.925 900.627 960.237 900.627ZM974.997 898.976C976.511 898.976 977.726 899.503 978.644 900.558C979.577 901.614 980.043 903.204 980.043 905.33C980.043 906.721 979.829 907.899 979.401 908.862C978.988 909.81 978.399 910.529 977.635 911.018C976.885 911.492 975.998 911.729 974.974 911.729C974.347 911.729 973.789 911.645 973.299 911.477C972.81 911.309 972.389 911.095 972.038 910.835C971.701 910.56 971.411 910.261 971.166 909.94H971.028C971.059 910.2 971.089 910.529 971.12 910.927C971.151 911.324 971.166 911.668 971.166 911.959V917.005H969.147V899.205H970.799L971.074 900.879H971.166C971.411 900.528 971.701 900.207 972.038 899.916C972.389 899.626 972.802 899.396 973.276 899.228C973.766 899.06 974.339 898.976 974.997 898.976ZM974.63 900.673C973.804 900.673 973.139 900.834 972.634 901.155C972.129 901.461 971.762 901.927 971.533 902.554C971.304 903.181 971.181 903.976 971.166 904.94V905.33C971.166 906.339 971.273 907.195 971.487 907.899C971.701 908.602 972.061 909.137 972.565 909.504C973.085 909.871 973.789 910.055 974.676 910.055C975.425 910.055 976.037 909.848 976.511 909.436C977 909.023 977.359 908.464 977.589 907.761C977.833 907.042 977.956 906.224 977.956 905.307C977.956 903.9 977.68 902.776 977.13 901.935C976.595 901.094 975.761 900.673 974.63 900.673ZM993.078 899.205V909.803H994.867V915.767H992.917V911.5H984.361V915.767H982.434V909.803H983.42C984.124 908.824 984.705 907.761 985.164 906.614C985.638 905.452 985.99 904.244 986.219 902.99C986.464 901.721 986.594 900.459 986.609 899.205H993.078ZM988.398 900.788C988.337 901.828 988.176 902.906 987.916 904.022C987.656 905.123 987.32 906.178 986.907 907.188C986.509 908.197 986.043 909.069 985.508 909.803H991.128V900.788H988.398ZM999.869 906.706C999.869 906.843 999.861 907.042 999.846 907.302C999.846 907.547 999.838 907.815 999.823 908.105C999.807 908.38 999.792 908.648 999.777 908.908C999.762 909.153 999.746 909.351 999.731 909.504L1006.31 899.205H1008.79V911.5H1006.91V904.251C1006.91 904.007 1006.91 903.686 1006.91 903.288C1006.93 902.89 1006.94 902.5 1006.96 902.118C1006.97 901.721 1006.99 901.422 1007 901.224L1000.46 911.5H997.965V899.205H999.869V906.706ZM1021.88 900.902H1017.87V911.5H1015.87V900.902H1011.9V899.205H1021.88V900.902ZM1030.66 904.251C1031.73 904.251 1032.61 904.381 1033.32 904.641C1034.02 904.901 1034.55 905.291 1034.9 905.811C1035.27 906.316 1035.45 906.958 1035.45 907.738C1035.45 908.503 1035.27 909.168 1034.92 909.734C1034.59 910.3 1034.06 910.735 1033.34 911.041C1032.62 911.347 1031.7 911.5 1030.56 911.5H1024.99V899.205H1027.01V904.251H1030.66ZM1033.43 907.853C1033.43 907.103 1033.16 906.599 1032.63 906.339C1032.11 906.064 1031.37 905.926 1030.43 905.926H1027.01V909.871H1030.47C1031.33 909.871 1032.03 909.718 1032.58 909.413C1033.15 909.107 1033.43 908.587 1033.43 907.853Z" fill="#313144"/>
</g>
<defs>
<filter id="filter0_d_4_1909" x="726" y="254" width="467" height="87" filterUnits="userSpaceOnUse" color-interpolation-filters="sRGB">
<feFlood flood-opacity="0" result="BackgroundImageFix"/>
<feColorMatrix in="SourceAlpha" type="matrix" values="0 0 0 0 0 0 0 0 0 0 0 0 0 0 0 0 0 0 127 0" result="hardAlpha"/>
<feOffset dy="4"/>
<feGaussianBlur stdDeviation="2"/>
<feComposite in2="hardAlpha" operator="out"/>
<feColorMatrix type="matrix" values="0 0 0 0 0 0 0 0 0 0 0 0 0 0 0 0 0 0 0.25 0"/>
<feBlend mode="normal" in2="BackgroundImageFix" result="effect1_dropShadow_4_1909"/>
<feBlend mode="normal" in="SourceGraphic" in2="effect1_dropShadow_4_1909" result="shape"/>
</filter>
<filter id="filter1_d_4_1909" x="726" y="376" width="467" height="87" filterUnits="userSpaceOnUse" color-interpolation-filters="sRGB">
<feFlood flood-opacity="0" result="BackgroundImageFix"/>
<feColorMatrix in="SourceAlpha" type="matrix" values="0 0 0 0 0 0 0 0 0 0 0 0 0 0 0 0 0 0 127 0" result="hardAlpha"/>
<feOffset dy="4"/>
<feGaussianBlur stdDeviation="2"/>
<feComposite in2="hardAlpha" operator="out"/>
<feColorMatrix type="matrix" values="0 0 0 0 0 0 0 0 0 0 0 0 0 0 0 0 0 0 0.25 0"/>
<feBlend mode="normal" in2="BackgroundImageFix" result="effect1_dropShadow_4_1909"/>
<feBlend mode="normal" in="SourceGraphic" in2="effect1_dropShadow_4_1909" result="shape"/>
</filter>
<filter id="filter2_d_4_1909" x="726" y="498" width="467" height="87" filterUnits="userSpaceOnUse" color-interpolation-filters="sRGB">
<feFlood flood-opacity="0" result="BackgroundImageFix"/>
<feColorMatrix in="SourceAlpha" type="matrix" values="0 0 0 0 0 0 0 0 0 0 0 0 0 0 0 0 0 0 127 0" result="hardAlpha"/>
<feOffset dy="4"/>
<feGaussianBlur stdDeviation="2"/>
<feComposite in2="hardAlpha" operator="out"/>
<feColorMatrix type="matrix" values="0 0 0 0 0 0 0 0 0 0 0 0 0 0 0 0 0 0 0.25 0"/>
<feBlend mode="normal" in2="BackgroundImageFix" result="effect1_dropShadow_4_1909"/>
<feBlend mode="normal" in="SourceGraphic" in2="effect1_dropShadow_4_1909" result="shape"/>
</filter>
<filter id="filter3_d_4_1909" x="726" y="620" width="467" height="87" filterUnits="userSpaceOnUse" color-interpolation-filters="sRGB">
<feFlood flood-opacity="0" result="BackgroundImageFix"/>
<feColorMatrix in="SourceAlpha" type="matrix" values="0 0 0 0 0 0 0 0 0 0 0 0 0 0 0 0 0 0 127 0" result="hardAlpha"/>
<feOffset dy="4"/>
<feGaussianBlur stdDeviation="2"/>
<feComposite in2="hardAlpha" operator="out"/>
<feColorMatrix type="matrix" values="0 0 0 0 0 0 0 0 0 0 0 0 0 0 0 0 0 0 0.25 0"/>
<feBlend mode="normal" in2="BackgroundImageFix" result="effect1_dropShadow_4_1909"/>
<feBlend mode="normal" in="SourceGraphic" in2="effect1_dropShadow_4_1909" result="shape"/>
</filter>
<filter id="filter4_d_4_1909" x="726" y="742" width="467" height="87" filterUnits="userSpaceOnUse" color-interpolation-filters="sRGB">
<feFlood flood-opacity="0" result="BackgroundImageFix"/>
<feColorMatrix in="SourceAlpha" type="matrix" values="0 0 0 0 0 0 0 0 0 0 0 0 0 0 0 0 0 0 127 0" result="hardAlpha"/>
<feOffset dy="4"/>
<feGaussianBlur stdDeviation="2"/>
<feComposite in2="hardAlpha" operator="out"/>
<feColorMatrix type="matrix" values="0 0 0 0 0 0 0 0 0 0 0 0 0 0 0 0 0 0 0.25 0"/>
<feBlend mode="normal" in2="BackgroundImageFix" result="effect1_dropShadow_4_1909"/>
<feBlend mode="normal" in="SourceGraphic" in2="effect1_dropShadow_4_1909" result="shape"/>
</filter>
<filter id="filter5_d_4_1909" x="726" y="864" width="467" height="88" filterUnits="userSpaceOnUse" color-interpolation-filters="sRGB">
<feFlood flood-opacity="0" result="BackgroundImageFix"/>
<feColorMatrix in="SourceAlpha" type="matrix" values="0 0 0 0 0 0 0 0 0 0 0 0 0 0 0 0 0 0 127 0" result="hardAlpha"/>
<feOffset dy="4"/>
<feGaussianBlur stdDeviation="2"/>
<feComposite in2="hardAlpha" operator="out"/>
<feColorMatrix type="matrix" values="0 0 0 0 0 0 0 0 0 0 0 0 0 0 0 0 0 0 0.25 0"/>
<feBlend mode="normal" in2="BackgroundImageFix" result="effect1_dropShadow_4_1909"/>
<feBlend mode="normal" in="SourceGraphic" in2="effect1_dropShadow_4_1909" result="shape"/>
</filter>
</defs>
</svg>
