<svg width="1920" height="1080" viewBox="0 0 1920 1080" fill="none" xmlns="http://www.w3.org/2000/svg">
<rect width="1920" height="1080" fill="#EEEEEE"/>
<rect width="1920" height="91" fill="white"/>
<rect width="125" height="91" transform="translate(218)" fill="white"/>
<path d="M242.966 42.5H241.205C241.1 41.9934 240.918 41.5483 240.658 41.1648C240.402 40.7812 240.089 40.4593 239.72 40.1989C239.356 39.9337 238.951 39.7348 238.506 39.6023C238.061 39.4697 237.597 39.4034 237.114 39.4034C236.233 39.4034 235.435 39.6259 234.72 40.071C234.01 40.5161 233.444 41.1719 233.023 42.0384C232.606 42.9048 232.398 43.9678 232.398 45.2273C232.398 46.4867 232.606 47.5497 233.023 48.4162C233.444 49.2827 234.01 49.9384 234.72 50.3835C235.435 50.8286 236.233 51.0511 237.114 51.0511C237.597 51.0511 238.061 50.9848 238.506 50.8523C238.951 50.7197 239.356 50.5232 239.72 50.2628C240.089 49.9976 240.402 49.6733 240.658 49.2898C240.918 48.9015 241.1 48.4564 241.205 47.9545H242.966C242.833 48.6979 242.592 49.3632 242.241 49.9503C241.891 50.5374 241.455 51.0369 240.935 51.4489C240.414 51.8561 239.829 52.1662 239.18 52.3793C238.536 52.5923 237.848 52.6989 237.114 52.6989C235.873 52.6989 234.77 52.3958 233.804 51.7898C232.838 51.1837 232.078 50.322 231.524 49.2045C230.97 48.0871 230.693 46.7614 230.693 45.2273C230.693 43.6932 230.97 42.3674 231.524 41.25C232.078 40.1326 232.838 39.2708 233.804 38.6648C234.77 38.0587 235.873 37.7557 237.114 37.7557C237.848 37.7557 238.536 37.8622 239.18 38.0753C239.829 38.2884 240.414 38.6009 240.935 39.0128C241.455 39.42 241.891 39.9171 242.241 40.5043C242.592 41.0866 242.833 41.7519 242.966 42.5ZM248.795 52.7557C248.104 52.7557 247.476 52.6255 246.913 52.3651C246.35 52.0999 245.902 51.7188 245.571 51.2216C245.239 50.7197 245.074 50.1136 245.074 49.4034C245.074 48.7784 245.197 48.2718 245.443 47.8835C245.689 47.4905 246.018 47.1828 246.43 46.9602C246.842 46.7377 247.297 46.572 247.794 46.4631C248.296 46.3494 248.8 46.2595 249.306 46.1932C249.969 46.108 250.507 46.044 250.919 46.0014C251.335 45.9541 251.638 45.8759 251.828 45.767C252.022 45.6581 252.119 45.4687 252.119 45.1989V45.142C252.119 44.4413 251.927 43.8968 251.544 43.5085C251.165 43.1203 250.59 42.9261 249.818 42.9261C249.018 42.9261 248.39 43.1013 247.936 43.4517C247.481 43.8021 247.162 44.1761 246.977 44.5739L245.386 44.0057C245.67 43.3428 246.049 42.8267 246.522 42.4574C247.001 42.0833 247.521 41.8229 248.085 41.6761C248.653 41.5246 249.212 41.4489 249.761 41.4489C250.111 41.4489 250.514 41.4915 250.968 41.5767C251.428 41.6572 251.87 41.8253 252.297 42.081C252.727 42.3366 253.085 42.7225 253.369 43.2386C253.653 43.7547 253.795 44.446 253.795 45.3125V52.5H252.119V51.0227H252.034C251.92 51.2595 251.731 51.5128 251.466 51.7827C251.2 52.0526 250.848 52.2822 250.407 52.4716C249.967 52.661 249.43 52.7557 248.795 52.7557ZM249.051 51.25C249.714 51.25 250.272 51.1198 250.727 50.8594C251.186 50.599 251.532 50.2628 251.764 49.8509C252.001 49.4389 252.119 49.0057 252.119 48.5511V47.017C252.048 47.1023 251.892 47.1804 251.65 47.2514C251.413 47.3177 251.139 47.3769 250.826 47.429C250.519 47.4763 250.218 47.5189 249.924 47.5568C249.636 47.59 249.401 47.6184 249.221 47.642C248.786 47.6989 248.378 47.7912 248 47.919C247.626 48.0421 247.323 48.2292 247.091 48.4801C246.863 48.7263 246.75 49.0625 246.75 49.4886C246.75 50.071 246.965 50.5114 247.396 50.8097C247.832 51.1032 248.383 51.25 249.051 51.25ZM262.82 50.2273L266.627 41.5909H268.218L263.502 52.5H262.138L257.508 41.5909H259.07L262.82 50.2273ZM258.531 41.5909V52.5H256.854V41.5909H258.531ZM267.11 52.5V41.5909H268.786V52.5H267.11ZM276.286 52.7273C275.301 52.7273 274.437 52.4929 273.694 52.0241C272.955 51.5554 272.378 50.8996 271.961 50.0568C271.549 49.214 271.343 48.2292 271.343 47.1023C271.343 45.9659 271.549 44.974 271.961 44.1264C272.378 43.2789 272.955 42.6207 273.694 42.152C274.437 41.6832 275.301 41.4489 276.286 41.4489C277.271 41.4489 278.133 41.6832 278.871 42.152C279.615 42.6207 280.192 43.2789 280.604 44.1264C281.021 44.974 281.229 45.9659 281.229 47.1023C281.229 48.2292 281.021 49.214 280.604 50.0568C280.192 50.8996 279.615 51.5554 278.871 52.0241C278.133 52.4929 277.271 52.7273 276.286 52.7273ZM276.286 51.2216C277.034 51.2216 277.65 51.0298 278.133 50.6463C278.616 50.2628 278.973 49.7585 279.205 49.1335C279.437 48.5085 279.553 47.8314 279.553 47.1023C279.553 46.3731 279.437 45.6937 279.205 45.0639C278.973 44.4342 278.616 43.9252 278.133 43.5369C277.65 43.1487 277.034 42.9545 276.286 42.9545C275.538 42.9545 274.923 43.1487 274.44 43.5369C273.957 43.9252 273.599 44.4342 273.367 45.0639C273.135 45.6937 273.019 46.3731 273.019 47.1023C273.019 47.8314 273.135 48.5085 273.367 49.1335C273.599 49.7585 273.957 50.2628 274.44 50.6463C274.923 51.0298 275.538 51.2216 276.286 51.2216ZM282.822 52.5V50.9375H283.22C283.547 50.9375 283.819 50.8736 284.037 50.7457C284.254 50.6132 284.43 50.3835 284.562 50.0568C284.699 49.7254 284.804 49.2661 284.875 48.679C284.95 48.0871 285.005 47.3343 285.038 46.4205L285.237 41.5909H292.51V52.5H290.833V43.1534H286.828L286.657 47.0455C286.619 47.9403 286.539 48.7287 286.416 49.4105C286.297 50.0876 286.115 50.6558 285.869 51.1151C285.627 51.5743 285.306 51.92 284.903 52.152C284.501 52.384 283.996 52.5 283.39 52.5H282.822ZM300.159 52.7273C299.108 52.7273 298.201 52.4953 297.439 52.0312C296.681 51.5625 296.096 50.9091 295.684 50.071C295.277 49.2282 295.074 48.2481 295.074 47.1307C295.074 46.0133 295.277 45.0284 295.684 44.1761C296.096 43.3191 296.669 42.6515 297.403 42.1733C298.142 41.6903 299.003 41.4489 299.988 41.4489C300.556 41.4489 301.118 41.5436 301.672 41.733C302.225 41.9223 302.73 42.2301 303.184 42.6562C303.639 43.0777 304.001 43.6364 304.271 44.3324C304.541 45.0284 304.676 45.8854 304.676 46.9034V47.6136H296.267V46.1648H302.971C302.971 45.5492 302.848 45 302.602 44.517C302.36 44.0341 302.015 43.6529 301.565 43.3736C301.12 43.0942 300.594 42.9545 299.988 42.9545C299.321 42.9545 298.743 43.1203 298.255 43.4517C297.772 43.7784 297.401 44.2045 297.14 44.7301C296.88 45.2557 296.75 45.8191 296.75 46.4205V47.3864C296.75 48.2102 296.892 48.9086 297.176 49.4815C297.465 50.0497 297.865 50.483 298.376 50.7812C298.887 51.0748 299.482 51.2216 300.159 51.2216C300.599 51.2216 300.997 51.16 301.352 51.0369C301.712 50.9091 302.022 50.7197 302.282 50.4688C302.543 50.2131 302.744 49.8958 302.886 49.517L304.505 49.9716C304.335 50.5208 304.048 51.0038 303.646 51.4205C303.243 51.8324 302.746 52.1544 302.154 52.3864C301.563 52.6136 300.897 52.7273 300.159 52.7273ZM306.21 43.1534V41.5909H315.074V43.1534H311.494V52.5H309.818V43.1534H306.21ZM318.967 45.5398H322.092C323.371 45.5398 324.348 45.8641 325.026 46.5128C325.703 47.1615 326.041 47.983 326.041 48.9773C326.041 49.6307 325.89 50.2249 325.587 50.7599C325.284 51.2902 324.839 51.714 324.251 52.0312C323.664 52.3438 322.945 52.5 322.092 52.5H317.518V41.5909H319.195V50.9375H322.092C322.755 50.9375 323.3 50.7623 323.726 50.4119C324.152 50.0616 324.365 49.6117 324.365 49.0625C324.365 48.4848 324.152 48.0137 323.726 47.6491C323.3 47.2846 322.755 47.1023 322.092 47.1023H318.967V45.5398ZM327.774 52.5V41.5909H329.45V52.5H327.774Z" fill="black"/>
<rect width="137" height="91" transform="translate(1436)" fill="white"/>
<path d="M1442.76 52.5V37.9545H1447.68C1448.82 37.9545 1449.75 38.1605 1450.47 38.5724C1451.2 38.9796 1451.74 39.5312 1452.09 40.2273C1452.44 40.9233 1452.62 41.6998 1452.62 42.5568C1452.62 43.4138 1452.44 44.1927 1452.09 44.8935C1451.75 45.5942 1451.21 46.1529 1450.49 46.5696C1449.76 46.9815 1448.84 47.1875 1447.7 47.1875H1444.18V45.625H1447.65C1448.43 45.625 1449.06 45.4901 1449.53 45.2202C1450 44.9503 1450.35 44.5857 1450.56 44.1264C1450.78 43.6624 1450.89 43.1392 1450.89 42.5568C1450.89 41.9744 1450.78 41.4536 1450.56 40.9943C1450.35 40.535 1450 40.1752 1449.52 39.9148C1449.04 39.6496 1448.41 39.517 1447.62 39.517H1444.52V52.5H1442.76ZM1459.69 52.7273C1458.63 52.7273 1457.73 52.4953 1456.97 52.0312C1456.21 51.5625 1455.62 50.9091 1455.21 50.071C1454.8 49.2282 1454.6 48.2481 1454.6 47.1307C1454.6 46.0133 1454.8 45.0284 1455.21 44.1761C1455.62 43.3191 1456.2 42.6515 1456.93 42.1733C1457.67 41.6903 1458.53 41.4489 1459.52 41.4489C1460.08 41.4489 1460.64 41.5436 1461.2 41.733C1461.75 41.9223 1462.26 42.2301 1462.71 42.6562C1463.17 43.0777 1463.53 43.6364 1463.8 44.3324C1464.07 45.0284 1464.2 45.8854 1464.2 46.9034V47.6136H1455.79V46.1648H1462.5C1462.5 45.5492 1462.38 45 1462.13 44.517C1461.89 44.0341 1461.54 43.6529 1461.09 43.3736C1460.65 43.0942 1460.12 42.9545 1459.52 42.9545C1458.85 42.9545 1458.27 43.1203 1457.78 43.4517C1457.3 43.7784 1456.93 44.2045 1456.67 44.7301C1456.41 45.2557 1456.28 45.8191 1456.28 46.4205V47.3864C1456.28 48.2102 1456.42 48.9086 1456.7 49.4815C1456.99 50.0497 1457.39 50.483 1457.9 50.7812C1458.41 51.0748 1459.01 51.2216 1459.69 51.2216C1460.13 51.2216 1460.52 51.16 1460.88 51.0369C1461.24 50.9091 1461.55 50.7197 1461.81 50.4688C1462.07 50.2131 1462.27 49.8958 1462.41 49.517L1464.03 49.9716C1463.86 50.5208 1463.58 51.0038 1463.17 51.4205C1462.77 51.8324 1462.27 52.1544 1461.68 52.3864C1461.09 52.6136 1460.42 52.7273 1459.69 52.7273ZM1473.49 41.5909V43.1534H1468.43V52.5H1466.75V41.5909H1473.49ZM1477.61 50.0284L1482.86 41.5909H1484.8V52.5H1483.12V44.0625L1477.89 52.5H1475.93V41.5909H1477.61V50.0284ZM1492.3 52.7273C1491.28 52.7273 1490.39 52.4858 1489.66 52.0028C1488.92 51.5199 1488.35 50.8546 1487.95 50.0071C1487.55 49.1596 1487.35 48.1913 1487.35 47.1023C1487.35 45.9943 1487.56 45.0166 1487.97 44.169C1488.38 43.3168 1488.95 42.6515 1489.68 42.1733C1490.42 41.6903 1491.28 41.4489 1492.27 41.4489C1493.04 41.4489 1493.73 41.5909 1494.34 41.875C1494.96 42.1591 1495.46 42.5568 1495.86 43.0682C1496.25 43.5795 1496.49 44.1761 1496.59 44.858H1494.91C1494.78 44.3608 1494.5 43.9205 1494.06 43.5369C1493.62 43.1487 1493.04 42.9545 1492.3 42.9545C1491.64 42.9545 1491.07 43.125 1490.58 43.4659C1490.09 43.8021 1489.71 44.2779 1489.44 44.8935C1489.17 45.5043 1489.03 46.2216 1489.03 47.0455C1489.03 47.8883 1489.16 48.6222 1489.43 49.2472C1489.7 49.8722 1490.08 50.3575 1490.56 50.7031C1491.06 51.0488 1491.64 51.2216 1492.3 51.2216C1492.73 51.2216 1493.13 51.1458 1493.48 50.9943C1493.84 50.8428 1494.14 50.625 1494.39 50.3409C1494.63 50.0568 1494.81 49.7159 1494.91 49.3182H1496.59C1496.49 49.9621 1496.26 50.5421 1495.88 51.0582C1495.52 51.5696 1495.03 51.9768 1494.41 52.2798C1493.81 52.5781 1493.1 52.7273 1492.3 52.7273ZM1498.18 43.1534V41.5909H1507.04V43.1534H1503.46V52.5H1501.79V43.1534H1498.18ZM1509.49 56.5909V41.5909H1511.11V43.3239H1511.31C1511.43 43.1345 1511.6 42.893 1511.82 42.5994C1512.04 42.3011 1512.36 42.036 1512.77 41.804C1513.19 41.5672 1513.75 41.4489 1514.46 41.4489C1515.38 41.4489 1516.19 41.6785 1516.89 42.1378C1517.59 42.5971 1518.14 43.2481 1518.53 44.0909C1518.92 44.9337 1519.12 45.928 1519.12 47.0739C1519.12 48.2292 1518.92 49.2306 1518.53 50.0781C1518.14 50.9209 1517.59 51.5743 1516.89 52.0384C1516.2 52.4976 1515.4 52.7273 1514.49 52.7273C1513.79 52.7273 1513.23 52.6113 1512.8 52.3793C1512.38 52.1425 1512.06 51.875 1511.83 51.5767C1511.6 51.2737 1511.43 51.0227 1511.31 50.8239H1511.16V56.5909H1509.49ZM1511.13 47.0455C1511.13 47.8693 1511.26 48.5961 1511.5 49.2259C1511.74 49.8509 1512.09 50.3409 1512.56 50.696C1513.02 51.0464 1513.59 51.2216 1514.26 51.2216C1514.96 51.2216 1515.55 51.0369 1516.01 50.6676C1516.49 50.2936 1516.84 49.7917 1517.08 49.1619C1517.32 48.5275 1517.44 47.822 1517.44 47.0455C1517.44 46.2784 1517.32 45.5871 1517.09 44.9716C1516.85 44.3513 1516.5 43.8613 1516.03 43.5014C1515.56 43.1368 1514.97 42.9545 1514.26 42.9545C1513.58 42.9545 1513.01 43.1274 1512.54 43.473C1512.08 43.8139 1511.73 44.2921 1511.49 44.9077C1511.25 45.5185 1511.13 46.2311 1511.13 47.0455ZM1524.88 52.7557C1524.19 52.7557 1523.57 52.6255 1523 52.3651C1522.44 52.0999 1521.99 51.7188 1521.66 51.2216C1521.33 50.7197 1521.16 50.1136 1521.16 49.4034C1521.16 48.7784 1521.29 48.2718 1521.53 47.8835C1521.78 47.4905 1522.11 47.1828 1522.52 46.9602C1522.93 46.7377 1523.39 46.572 1523.88 46.4631C1524.39 46.3494 1524.89 46.2595 1525.4 46.1932C1526.06 46.108 1526.6 46.044 1527.01 46.0014C1527.43 45.9541 1527.73 45.8759 1527.92 45.767C1528.11 45.6581 1528.21 45.4687 1528.21 45.1989V45.142C1528.21 44.4413 1528.02 43.8968 1527.63 43.5085C1527.25 43.1203 1526.68 42.9261 1525.91 42.9261C1525.11 42.9261 1524.48 43.1013 1524.03 43.4517C1523.57 43.8021 1523.25 44.1761 1523.07 44.5739L1521.48 44.0057C1521.76 43.3428 1522.14 42.8267 1522.61 42.4574C1523.09 42.0833 1523.61 41.8229 1524.17 41.6761C1524.74 41.5246 1525.3 41.4489 1525.85 41.4489C1526.2 41.4489 1526.6 41.4915 1527.06 41.5767C1527.52 41.6572 1527.96 41.8253 1528.39 42.081C1528.82 42.3366 1529.17 42.7225 1529.46 43.2386C1529.74 43.7547 1529.88 44.446 1529.88 45.3125V52.5H1528.21V51.0227H1528.12C1528.01 51.2595 1527.82 51.5128 1527.56 51.7827C1527.29 52.0526 1526.94 52.2822 1526.5 52.4716C1526.06 52.661 1525.52 52.7557 1524.88 52.7557ZM1525.14 51.25C1525.8 51.25 1526.36 51.1198 1526.82 50.8594C1527.28 50.599 1527.62 50.2628 1527.85 49.8509C1528.09 49.4389 1528.21 49.0057 1528.21 48.5511V47.017C1528.14 47.1023 1527.98 47.1804 1527.74 47.2514C1527.5 47.3177 1527.23 47.3769 1526.92 47.429C1526.61 47.4763 1526.31 47.5189 1526.01 47.5568C1525.73 47.59 1525.49 47.6184 1525.31 47.642C1524.88 47.6989 1524.47 47.7912 1524.09 47.919C1523.72 48.0421 1523.41 48.2292 1523.18 48.4801C1522.95 48.7263 1522.84 49.0625 1522.84 49.4886C1522.84 50.071 1523.05 50.5114 1523.49 50.8097C1523.92 51.1032 1524.47 51.25 1525.14 51.25ZM1541.52 41.5909V50.9375H1543.06V56.0227H1541.38V52.5H1532.94V41.5909H1534.62V50.9375H1539.85V41.5909H1541.52ZM1547.32 50.0284L1552.57 41.5909H1554.5V52.5H1552.83V44.0625L1547.6 52.5H1545.64V41.5909H1547.32V50.0284ZM1564.14 52.5V43.125H1561.24C1560.58 43.125 1560.07 43.2765 1559.7 43.5795C1559.32 43.8826 1559.14 44.2992 1559.14 44.8295C1559.14 45.3504 1559.3 45.7599 1559.64 46.0582C1559.98 46.3565 1560.45 46.5057 1561.04 46.5057H1564.56V48.0682H1561.04C1560.3 48.0682 1559.66 47.938 1559.13 47.6776C1558.59 47.4171 1558.18 47.0455 1557.89 46.5625C1557.6 46.0748 1557.46 45.4972 1557.46 44.8295C1557.46 44.1572 1557.61 43.5795 1557.91 43.0966C1558.22 42.6136 1558.65 42.242 1559.21 41.9815C1559.78 41.7211 1560.46 41.5909 1561.24 41.5909H1565.73V52.5H1564.14ZM1556.86 52.5L1559.96 47.0739H1561.78L1558.68 52.5H1556.86Z" fill="black"/>
<rect width="75" height="91" transform="translate(1582)" fill="white"/>
<path d="M1597.26 52.5V37.9545H1602.35C1603.36 37.9545 1604.2 38.1297 1604.85 38.4801C1605.51 38.8258 1606 39.2921 1606.32 39.8793C1606.65 40.4616 1606.81 41.108 1606.81 41.8182C1606.81 42.4432 1606.7 42.9593 1606.47 43.3665C1606.26 43.7737 1605.97 44.0956 1605.61 44.3324C1605.25 44.5691 1604.87 44.7443 1604.45 44.858V45C1604.89 45.0284 1605.34 45.1847 1605.79 45.4688C1606.24 45.7528 1606.62 46.16 1606.92 46.6903C1607.22 47.2206 1607.38 47.8693 1607.38 48.6364C1607.38 49.3655 1607.21 50.0213 1606.88 50.6037C1606.55 51.1861 1606.02 51.6477 1605.31 51.9886C1604.59 52.3295 1603.66 52.5 1602.52 52.5H1597.26ZM1599.02 50.9375H1602.52C1603.67 50.9375 1604.48 50.715 1604.97 50.2699C1605.46 49.8201 1605.7 49.2756 1605.7 48.6364C1605.7 48.1439 1605.57 47.6894 1605.32 47.2727C1605.07 46.8513 1604.71 46.5152 1604.25 46.2642C1603.79 46.0085 1603.24 45.8807 1602.6 45.8807H1599.02V50.9375ZM1599.02 44.3466H1602.29C1602.82 44.3466 1603.3 44.2424 1603.72 44.0341C1604.16 43.8258 1604.5 43.5322 1604.75 43.1534C1605 42.7746 1605.13 42.3295 1605.13 41.8182C1605.13 41.179 1604.91 40.6368 1604.46 40.1918C1604.02 39.742 1603.31 39.517 1602.35 39.517H1599.02V44.3466ZM1611.29 41.5909L1613.91 46.0511L1616.52 41.5909H1618.45L1614.93 47.0455L1618.45 52.5H1616.52L1613.91 48.267L1611.29 52.5H1609.36L1612.83 47.0455L1609.36 41.5909H1611.29ZM1624.83 52.7273C1623.84 52.7273 1622.98 52.4929 1622.23 52.0241C1621.49 51.5554 1620.92 50.8996 1620.5 50.0568C1620.09 49.214 1619.88 48.2292 1619.88 47.1023C1619.88 45.9659 1620.09 44.974 1620.5 44.1264C1620.92 43.2789 1621.49 42.6207 1622.23 42.152C1622.98 41.6832 1623.84 41.4489 1624.83 41.4489C1625.81 41.4489 1626.67 41.6832 1627.41 42.152C1628.15 42.6207 1628.73 43.2789 1629.14 44.1264C1629.56 44.974 1629.77 45.9659 1629.77 47.1023C1629.77 48.2292 1629.56 49.214 1629.14 50.0568C1628.73 50.8996 1628.15 51.5554 1627.41 52.0241C1626.67 52.4929 1625.81 52.7273 1624.83 52.7273ZM1624.83 51.2216C1625.57 51.2216 1626.19 51.0298 1626.67 50.6463C1627.15 50.2628 1627.51 49.7585 1627.74 49.1335C1627.98 48.5085 1628.09 47.8314 1628.09 47.1023C1628.09 46.3731 1627.98 45.6937 1627.74 45.0639C1627.51 44.4342 1627.15 43.9252 1626.67 43.5369C1626.19 43.1487 1625.57 42.9545 1624.83 42.9545C1624.08 42.9545 1623.46 43.1487 1622.98 43.5369C1622.5 43.9252 1622.14 44.4342 1621.91 45.0639C1621.67 45.6937 1621.56 46.3731 1621.56 47.1023C1621.56 47.8314 1621.67 48.5085 1621.91 49.1335C1622.14 49.7585 1622.5 50.2628 1622.98 50.6463C1623.46 51.0298 1624.08 51.2216 1624.83 51.2216ZM1631.16 55.625V50.9375H1632.07C1632.29 50.7055 1632.49 50.4545 1632.65 50.1847C1632.81 49.9148 1632.95 49.5952 1633.07 49.2259C1633.19 48.8518 1633.29 48.3973 1633.38 47.8622C1633.46 47.3224 1633.54 46.6714 1633.61 45.9091L1633.97 41.5909H1640.91V50.9375H1642.58V55.625H1640.91V52.5H1632.84V55.625H1631.16ZM1633.97 50.9375H1639.23V43.1534H1635.54L1635.25 45.9091C1635.13 47.0502 1634.99 48.0469 1634.81 48.8991C1634.64 49.7514 1634.36 50.4309 1633.97 50.9375Z" fill="black"/>
<rect width="125" height="91" transform="translate(343)" fill="white"/>
<path d="M375.028 52.6989V51.0511H375.938C376.288 51.0511 376.581 50.9825 376.818 50.8452C377.06 50.7079 377.259 50.5303 377.415 50.3125C377.576 50.0947 377.708 49.8674 377.812 49.6307L378.04 49.0909L373.011 37.9545H374.915L378.92 46.9886L382.585 37.9545H384.46L379.432 50.142C379.233 50.5966 379.006 51.018 378.75 51.4062C378.499 51.7945 378.156 52.107 377.72 52.3438C377.289 52.5805 376.705 52.6989 375.966 52.6989H375.028ZM389.403 52.7273C388.381 52.7273 387.5 52.4858 386.761 52.0028C386.023 51.5199 385.455 50.8546 385.057 50.0071C384.659 49.1596 384.46 48.1913 384.46 47.1023C384.46 45.9943 384.664 45.0166 385.071 44.169C385.483 43.3168 386.056 42.6515 386.79 42.1733C387.528 41.6903 388.39 41.4489 389.375 41.4489C390.142 41.4489 390.833 41.5909 391.449 41.875C392.064 42.1591 392.569 42.5568 392.962 43.0682C393.355 43.5795 393.598 44.1761 393.693 44.858H392.017C391.889 44.3608 391.605 43.9205 391.165 43.5369C390.729 43.1487 390.142 42.9545 389.403 42.9545C388.75 42.9545 388.177 43.125 387.685 43.4659C387.197 43.8021 386.816 44.2779 386.541 44.8935C386.271 45.5043 386.136 46.2216 386.136 47.0455C386.136 47.8883 386.269 48.6222 386.534 49.2472C386.804 49.8722 387.183 50.3575 387.67 50.7031C388.163 51.0488 388.741 51.2216 389.403 51.2216C389.839 51.2216 390.234 51.1458 390.589 50.9943C390.945 50.8428 391.245 50.625 391.491 50.3409C391.738 50.0568 391.913 49.7159 392.017 49.3182H393.693C393.598 49.9621 393.364 50.5421 392.99 51.0582C392.621 51.5696 392.131 51.9768 391.52 52.2798C390.914 52.5781 390.208 52.7273 389.403 52.7273ZM395.178 52.5V50.9375H395.575C395.902 50.9375 396.174 50.8736 396.392 50.7457C396.61 50.6132 396.785 50.3835 396.918 50.0568C397.055 49.7254 397.159 49.2661 397.23 48.679C397.306 48.0871 397.36 47.3343 397.393 46.4205L397.592 41.5909H404.865V52.5H403.189V43.1534H399.183L399.013 47.0455C398.975 47.9403 398.894 48.7287 398.771 49.4105C398.653 50.0876 398.471 50.6558 398.224 51.1151C397.983 51.5743 397.661 51.92 397.259 52.152C396.856 52.384 396.352 52.5 395.746 52.5H395.178ZM408.629 56.5909C408.345 56.5909 408.092 56.5672 407.869 56.5199C407.647 56.4773 407.493 56.4347 407.408 56.392L407.834 54.9148C408.241 55.0189 408.601 55.0568 408.913 55.0284C409.226 55 409.503 54.8603 409.744 54.6094C409.991 54.3632 410.215 53.9631 410.419 53.4091L410.732 52.5568L406.697 41.5909H408.516L411.527 50.2841H411.641L414.652 41.5909H416.47L411.839 54.0909C411.631 54.6544 411.373 55.1207 411.065 55.4901C410.758 55.8641 410.4 56.1411 409.993 56.321C409.59 56.5009 409.136 56.5909 408.629 56.5909ZM425.415 41.5909V43.1534H420.359V52.5H418.683V41.5909H425.415ZM429.538 50.0284L434.794 41.5909H436.726V52.5H435.05V44.0625L429.822 52.5H427.862V41.5909H429.538V50.0284Z" fill="black"/>
<rect width="90" height="91" transform="translate(468)" fill="white"/>
<path d="M477.761 52.5V37.9545H486.54V39.517H479.523V44.0625H483.216C484.258 44.0625 485.136 44.233 485.851 44.5739C486.571 44.9148 487.115 45.3954 487.484 46.0156C487.858 46.6359 488.045 47.3674 488.045 48.2102C488.045 49.053 487.858 49.7964 487.484 50.4403C487.115 51.0843 486.571 51.5885 485.851 51.9531C485.136 52.3177 484.258 52.5 483.216 52.5H477.761ZM479.523 50.9659H483.216C483.879 50.9659 484.44 50.8333 484.899 50.5682C485.363 50.2983 485.714 49.9527 485.95 49.5312C486.192 49.1051 486.312 48.6553 486.312 48.1818C486.312 47.4858 486.045 46.8868 485.51 46.3849C484.975 45.8783 484.21 45.625 483.216 45.625H479.523V50.9659ZM492.394 50.0284L497.65 41.5909H499.581V52.5H497.905V44.0625L492.678 52.5H490.718V41.5909H492.394V50.0284ZM501.685 52.5V50.9375H502.083C502.41 50.9375 502.682 50.8736 502.9 50.7457C503.118 50.6132 503.293 50.3835 503.425 50.0568C503.563 49.7254 503.667 49.2661 503.738 48.679C503.814 48.0871 503.868 47.3343 503.901 46.4205L504.1 41.5909H511.373V52.5H509.697V43.1534H505.691L505.521 47.0455C505.483 47.9403 505.402 48.7287 505.279 49.4105C505.161 50.0876 504.978 50.6558 504.732 51.1151C504.491 51.5743 504.169 51.92 503.766 52.152C503.364 52.384 502.86 52.5 502.254 52.5H501.685ZM519.022 52.7273C517.971 52.7273 517.064 52.4953 516.302 52.0312C515.544 51.5625 514.96 50.9091 514.548 50.071C514.14 49.2282 513.937 48.2481 513.937 47.1307C513.937 46.0133 514.14 45.0284 514.548 44.1761C514.96 43.3191 515.532 42.6515 516.266 42.1733C517.005 41.6903 517.867 41.4489 518.852 41.4489C519.42 41.4489 519.981 41.5436 520.535 41.733C521.089 41.9223 521.593 42.2301 522.048 42.6562C522.502 43.0777 522.864 43.6364 523.134 44.3324C523.404 45.0284 523.539 45.8854 523.539 46.9034V47.6136H515.13V46.1648H521.835C521.835 45.5492 521.711 45 521.465 44.517C521.224 44.0341 520.878 43.6529 520.428 43.3736C519.983 43.0942 519.458 42.9545 518.852 42.9545C518.184 42.9545 517.606 43.1203 517.119 43.4517C516.636 43.7784 516.264 44.2045 516.004 44.7301C515.743 45.2557 515.613 45.8191 515.613 46.4205V47.3864C515.613 48.2102 515.755 48.9086 516.039 49.4815C516.328 50.0497 516.728 50.483 517.239 50.7812C517.751 51.0748 518.345 51.2216 519.022 51.2216C519.462 51.2216 519.86 51.16 520.215 51.0369C520.575 50.9091 520.885 50.7197 521.146 50.4688C521.406 50.2131 521.607 49.8958 521.749 49.517L523.369 49.9716C523.198 50.5208 522.912 51.0038 522.509 51.4205C522.107 51.8324 521.61 52.1544 521.018 52.3864C520.426 52.6136 519.761 52.7273 519.022 52.7273ZM525.073 43.1534V41.5909H533.937V43.1534H530.357V52.5H528.681V43.1534H525.073ZM537.831 45.5398H540.956C542.234 45.5398 543.212 45.8641 543.889 46.5128C544.566 47.1615 544.904 47.983 544.904 48.9773C544.904 49.6307 544.753 50.2249 544.45 50.7599C544.147 51.2902 543.702 51.714 543.115 52.0312C542.528 52.3438 541.808 52.5 540.956 52.5H536.382V41.5909H538.058V50.9375H540.956C541.618 50.9375 542.163 50.7623 542.589 50.4119C543.015 50.0616 543.228 49.6117 543.228 49.0625C543.228 48.4848 543.015 48.0137 542.589 47.6491C542.163 47.2846 541.618 47.1023 540.956 47.1023H537.831V45.5398ZM546.637 52.5V41.5909H548.314V52.5H546.637Z" fill="black"/>
<path d="M906.399 368V333.091H918.604C921.036 333.091 923.041 333.511 924.621 334.352C926.2 335.182 927.376 336.301 928.149 337.71C928.922 339.108 929.308 340.659 929.308 342.364C929.308 343.864 929.041 345.102 928.507 346.08C927.984 347.057 927.291 347.83 926.428 348.398C925.575 348.966 924.649 349.386 923.649 349.659V350C924.717 350.068 925.791 350.443 926.871 351.125C927.95 351.807 928.854 352.784 929.581 354.057C930.308 355.33 930.672 356.886 930.672 358.727C930.672 360.477 930.274 362.051 929.479 363.449C928.683 364.847 927.428 365.955 925.712 366.773C923.996 367.591 921.763 368 919.013 368H906.399ZM910.626 364.25H919.013C921.774 364.25 923.734 363.716 924.893 362.648C926.064 361.568 926.649 360.261 926.649 358.727C926.649 357.545 926.348 356.455 925.746 355.455C925.143 354.443 924.286 353.636 923.172 353.034C922.058 352.42 920.74 352.114 919.217 352.114H910.626V364.25ZM910.626 348.432H918.467C919.74 348.432 920.888 348.182 921.911 347.682C922.945 347.182 923.763 346.477 924.365 345.568C924.979 344.659 925.286 343.591 925.286 342.364C925.286 340.83 924.751 339.528 923.683 338.46C922.615 337.381 920.922 336.841 918.604 336.841H910.626V348.432ZM940.072 341.818L946.345 352.523L952.618 341.818H957.254L948.8 354.909L957.254 368H952.618L946.345 357.841L940.072 368H935.436L943.754 354.909L935.436 341.818H940.072ZM972.553 368.545C970.189 368.545 968.115 367.983 966.331 366.858C964.558 365.733 963.172 364.159 962.172 362.136C961.183 360.114 960.689 357.75 960.689 355.045C960.689 352.318 961.183 349.937 962.172 347.903C963.172 345.869 964.558 344.29 966.331 343.165C968.115 342.04 970.189 341.477 972.553 341.477C974.916 341.477 976.984 342.04 978.757 343.165C980.541 344.29 981.928 345.869 982.916 347.903C983.916 349.937 984.416 352.318 984.416 355.045C984.416 357.75 983.916 360.114 982.916 362.136C981.928 364.159 980.541 365.733 978.757 366.858C976.984 367.983 974.916 368.545 972.553 368.545ZM972.553 364.932C974.348 364.932 975.825 364.472 976.984 363.551C978.143 362.631 979.001 361.42 979.558 359.92C980.115 358.42 980.393 356.795 980.393 355.045C980.393 353.295 980.115 351.665 979.558 350.153C979.001 348.642 978.143 347.42 976.984 346.489C975.825 345.557 974.348 345.091 972.553 345.091C970.757 345.091 969.28 345.557 968.121 346.489C966.962 347.42 966.104 348.642 965.547 350.153C964.99 351.665 964.712 353.295 964.712 355.045C964.712 356.795 964.99 358.42 965.547 359.92C966.104 361.42 966.962 362.631 968.121 363.551C969.28 364.472 970.757 364.932 972.553 364.932ZM987.761 375.5V364.25H989.943C990.477 363.693 990.938 363.091 991.324 362.443C991.71 361.795 992.045 361.028 992.33 360.142C992.625 359.244 992.875 358.153 993.08 356.869C993.284 355.574 993.466 354.011 993.625 352.182L994.511 341.818H1011.15V364.25H1015.17V375.5H1011.15V368H991.784V375.5H987.761ZM994.511 364.25H1007.12V345.568H998.261L997.58 352.182C997.295 354.92 996.943 357.312 996.523 359.358C996.102 361.403 995.432 363.034 994.511 364.25Z" fill="black"/>
<g filter="url(#filter0_d_4_1753)">
<rect x="730" y="440" width="459" height="79" rx="20" fill="white"/>
</g>
<path d="M761.83 489H759.614L766.023 471.545H768.205L774.614 489H772.398L767.182 474.307H767.045L761.83 489ZM762.648 482.182H771.58V484.057H762.648V482.182ZM775.662 492.75V487.125H776.753C777.02 486.847 777.25 486.545 777.443 486.222C777.636 485.898 777.804 485.514 777.946 485.071C778.094 484.622 778.219 484.077 778.321 483.435C778.423 482.787 778.514 482.006 778.594 481.091L779.037 475.909H787.355V487.125H789.366V492.75H787.355V489H777.673V492.75H775.662ZM779.037 487.125H785.344V477.784H780.912L780.571 481.091C780.429 482.46 780.253 483.656 780.043 484.679C779.832 485.702 779.497 486.517 779.037 487.125ZM792.036 493.909V475.909H793.979V477.989H794.218C794.366 477.761 794.57 477.472 794.832 477.119C795.099 476.761 795.479 476.443 795.974 476.165C796.474 475.881 797.15 475.739 798.002 475.739C799.104 475.739 800.076 476.014 800.917 476.565C801.758 477.116 802.414 477.898 802.886 478.909C803.357 479.92 803.593 481.114 803.593 482.489C803.593 483.875 803.357 485.077 802.886 486.094C802.414 487.105 801.761 487.889 800.925 488.446C800.09 488.997 799.127 489.273 798.036 489.273C797.195 489.273 796.522 489.134 796.016 488.855C795.511 488.571 795.121 488.25 794.849 487.892C794.576 487.528 794.366 487.227 794.218 486.989H794.048V493.909H792.036ZM794.013 482.455C794.013 483.443 794.158 484.315 794.448 485.071C794.738 485.821 795.161 486.409 795.718 486.835C796.275 487.256 796.957 487.466 797.763 487.466C798.604 487.466 799.306 487.244 799.869 486.801C800.437 486.352 800.863 485.75 801.147 484.994C801.437 484.233 801.582 483.386 801.582 482.455C801.582 481.534 801.44 480.705 801.156 479.966C800.877 479.222 800.454 478.634 799.886 478.202C799.323 477.764 798.616 477.545 797.763 477.545C796.945 477.545 796.258 477.753 795.701 478.168C795.144 478.577 794.724 479.151 794.44 479.889C794.156 480.622 794.013 481.477 794.013 482.455ZM812.15 489.273C810.888 489.273 809.8 488.994 808.886 488.438C807.977 487.875 807.275 487.091 806.781 486.085C806.292 485.074 806.048 483.898 806.048 482.557C806.048 481.216 806.292 480.034 806.781 479.011C807.275 477.983 807.962 477.182 808.843 476.608C809.729 476.028 810.763 475.739 811.945 475.739C812.627 475.739 813.3 475.852 813.965 476.08C814.63 476.307 815.235 476.676 815.781 477.188C816.326 477.693 816.761 478.364 817.085 479.199C817.408 480.034 817.57 481.062 817.57 482.284V483.136H807.479V481.398H815.525C815.525 480.659 815.377 480 815.082 479.42C814.792 478.841 814.377 478.384 813.837 478.048C813.303 477.713 812.673 477.545 811.945 477.545C811.144 477.545 810.451 477.744 809.866 478.142C809.286 478.534 808.84 479.045 808.528 479.676C808.215 480.307 808.059 480.983 808.059 481.705V482.864C808.059 483.852 808.229 484.69 808.57 485.378C808.917 486.06 809.397 486.58 810.011 486.938C810.624 487.29 811.337 487.466 812.15 487.466C812.678 487.466 813.156 487.392 813.582 487.244C814.013 487.091 814.386 486.864 814.698 486.562C815.011 486.256 815.252 485.875 815.423 485.42L817.366 485.966C817.161 486.625 816.817 487.205 816.335 487.705C815.852 488.199 815.255 488.585 814.545 488.864C813.835 489.136 813.036 489.273 812.15 489.273ZM825.948 489.273C824.721 489.273 823.664 488.983 822.778 488.403C821.891 487.824 821.21 487.026 820.732 486.009C820.255 484.991 820.016 483.83 820.016 482.523C820.016 481.193 820.261 480.02 820.749 479.003C821.244 477.98 821.931 477.182 822.812 476.608C823.698 476.028 824.732 475.739 825.914 475.739C826.835 475.739 827.664 475.909 828.403 476.25C829.141 476.591 829.746 477.068 830.218 477.682C830.69 478.295 830.982 479.011 831.096 479.83H829.085C828.931 479.233 828.59 478.705 828.062 478.244C827.539 477.778 826.835 477.545 825.948 477.545C825.164 477.545 824.477 477.75 823.886 478.159C823.3 478.562 822.843 479.134 822.513 479.872C822.19 480.605 822.028 481.466 822.028 482.455C822.028 483.466 822.187 484.347 822.505 485.097C822.829 485.847 823.283 486.429 823.869 486.844C824.46 487.259 825.153 487.466 825.948 487.466C826.471 487.466 826.945 487.375 827.371 487.193C827.798 487.011 828.158 486.75 828.454 486.409C828.749 486.068 828.96 485.659 829.085 485.182H831.096C830.982 485.955 830.701 486.651 830.252 487.27C829.809 487.884 829.221 488.372 828.488 488.736C827.761 489.094 826.914 489.273 825.948 489.273ZM845.116 477.614C844.661 477.619 844.204 477.736 843.744 477.963C843.289 478.19 842.908 478.491 842.602 478.866C842.3 479.236 842.15 479.648 842.15 480.102H840.173C840.173 479.534 840.309 478.989 840.582 478.466C840.854 477.943 841.221 477.477 841.681 477.068C842.147 476.659 842.675 476.335 843.266 476.097C843.863 475.858 844.479 475.739 845.116 475.739C846.309 475.739 847.32 476.04 848.15 476.642C848.985 477.244 849.619 478.04 850.05 479.028C850.488 480.017 850.707 481.091 850.707 482.25V482.727C850.707 483.881 850.488 484.955 850.05 485.949C849.619 486.937 848.985 487.733 848.15 488.335C847.32 488.937 846.309 489.239 845.116 489.239C844.161 489.239 843.312 489.028 842.567 488.608C841.823 488.182 841.238 487.614 840.812 486.903C840.386 486.193 840.173 485.403 840.173 484.534H842.15C842.15 485.028 842.289 485.491 842.567 485.923C842.852 486.349 843.218 486.696 843.667 486.963C844.121 487.224 844.604 487.358 845.116 487.364C845.877 487.358 846.525 487.119 847.059 486.648C847.593 486.176 847.999 485.585 848.278 484.875C848.556 484.165 848.695 483.449 848.695 482.727V482.25C848.695 481.511 848.556 480.79 848.278 480.085C848.005 479.375 847.602 478.787 847.067 478.321C846.539 477.855 845.888 477.619 845.116 477.614ZM849.513 481.466V483.341H843.786V481.466H849.513ZM852.612 489V487.125H853.089C853.481 487.125 853.808 487.048 854.069 486.895C854.33 486.736 854.54 486.46 854.7 486.068C854.864 485.67 854.989 485.119 855.075 484.415C855.165 483.705 855.231 482.801 855.271 481.705L855.509 475.909H864.237V489H862.225V477.784H857.418L857.214 482.455C857.168 483.528 857.072 484.474 856.924 485.293C856.782 486.105 856.563 486.787 856.268 487.338C855.978 487.889 855.592 488.304 855.109 488.582C854.626 488.861 854.021 489 853.293 489H852.612ZM873.415 489.273C872.154 489.273 871.066 488.994 870.151 488.438C869.242 487.875 868.54 487.091 868.046 486.085C867.558 485.074 867.313 483.898 867.313 482.557C867.313 481.216 867.558 480.034 868.046 479.011C868.54 477.983 869.228 477.182 870.109 476.608C870.995 476.028 872.029 475.739 873.211 475.739C873.893 475.739 874.566 475.852 875.231 476.08C875.896 476.307 876.501 476.676 877.046 477.188C877.592 477.693 878.026 478.364 878.35 479.199C878.674 480.034 878.836 481.062 878.836 482.284V483.136H868.745V481.398H876.79C876.79 480.659 876.643 480 876.347 479.42C876.058 478.841 875.643 478.384 875.103 478.048C874.569 477.713 873.938 477.545 873.211 477.545C872.41 477.545 871.717 477.744 871.131 478.142C870.552 478.534 870.106 479.045 869.793 479.676C869.481 480.307 869.325 480.983 869.325 481.705V482.864C869.325 483.852 869.495 484.69 869.836 485.378C870.183 486.06 870.663 486.58 871.276 486.938C871.89 487.29 872.603 487.466 873.415 487.466C873.944 487.466 874.421 487.392 874.847 487.244C875.279 487.091 875.651 486.864 875.964 486.562C876.276 486.256 876.518 485.875 876.688 485.42L878.631 485.966C878.427 486.625 878.083 487.205 877.6 487.705C877.117 488.199 876.521 488.585 875.81 488.864C875.1 489.136 874.302 489.273 873.415 489.273ZM881.896 489V475.909H883.907V481.602H885.237L889.941 475.909H892.532L887.248 482.216L892.6 489H890.009L885.714 483.477H883.907V489H881.896ZM894.036 477.784V475.909H904.673V477.784H900.377V489H898.366V477.784H894.036ZM907.607 493.909V475.909H909.55V477.989H909.788C909.936 477.761 910.141 477.472 910.402 477.119C910.669 476.761 911.05 476.443 911.544 476.165C912.044 475.881 912.72 475.739 913.572 475.739C914.675 475.739 915.646 476.014 916.487 476.565C917.328 477.116 917.984 477.898 918.456 478.909C918.928 479.92 919.163 481.114 919.163 482.489C919.163 483.875 918.928 485.077 918.456 486.094C917.984 487.105 917.331 487.889 916.496 488.446C915.661 488.997 914.697 489.273 913.607 489.273C912.766 489.273 912.092 489.134 911.587 488.855C911.081 488.571 910.692 488.25 910.419 487.892C910.146 487.528 909.936 487.227 909.788 486.989H909.618V493.909H907.607ZM909.584 482.455C909.584 483.443 909.729 484.315 910.018 485.071C910.308 485.821 910.732 486.409 911.288 486.835C911.845 487.256 912.527 487.466 913.334 487.466C914.175 487.466 914.876 487.244 915.439 486.801C916.007 486.352 916.433 485.75 916.717 484.994C917.007 484.233 917.152 483.386 917.152 482.455C917.152 481.534 917.01 480.705 916.726 479.966C916.447 479.222 916.024 478.634 915.456 478.202C914.893 477.764 914.186 477.545 913.334 477.545C912.516 477.545 911.828 477.753 911.271 478.168C910.714 478.577 910.294 479.151 910.01 479.889C909.726 480.622 909.584 481.477 909.584 482.455ZM927.55 489.273C926.368 489.273 925.331 488.991 924.439 488.429C923.553 487.866 922.859 487.08 922.359 486.068C921.865 485.057 921.618 483.875 921.618 482.523C921.618 481.159 921.865 479.969 922.359 478.952C922.859 477.935 923.553 477.145 924.439 476.582C925.331 476.02 926.368 475.739 927.55 475.739C928.732 475.739 929.766 476.02 930.652 476.582C931.544 477.145 932.237 477.935 932.732 478.952C933.232 479.969 933.482 481.159 933.482 482.523C933.482 483.875 933.232 485.057 932.732 486.068C932.237 487.08 931.544 487.866 930.652 488.429C929.766 488.991 928.732 489.273 927.55 489.273ZM927.55 487.466C928.447 487.466 929.186 487.236 929.766 486.776C930.345 486.315 930.774 485.71 931.053 484.96C931.331 484.21 931.47 483.398 931.47 482.523C931.47 481.648 931.331 480.832 931.053 480.077C930.774 479.321 930.345 478.71 929.766 478.244C929.186 477.778 928.447 477.545 927.55 477.545C926.652 477.545 925.913 477.778 925.334 478.244C924.754 478.71 924.325 479.321 924.047 480.077C923.768 480.832 923.629 481.648 923.629 482.523C923.629 483.398 923.768 484.21 924.047 484.96C924.325 485.71 924.754 486.315 925.334 486.776C925.913 487.236 926.652 487.466 927.55 487.466ZM945.313 481.534V483.409H938.086V481.534H945.313ZM938.563 475.909V489H936.552V475.909H938.563ZM946.847 475.909V489H944.836V475.909H946.847ZM959.282 481.534V483.409H952.055V481.534H959.282ZM952.532 475.909V489H950.521V475.909H952.532ZM960.816 475.909V489H958.805V475.909H960.816ZM969.808 489.273C968.626 489.273 967.589 488.991 966.697 488.429C965.81 487.866 965.117 487.08 964.617 486.068C964.123 485.057 963.876 483.875 963.876 482.523C963.876 481.159 964.123 479.969 964.617 478.952C965.117 477.935 965.81 477.145 966.697 476.582C967.589 476.02 968.626 475.739 969.808 475.739C970.989 475.739 972.023 476.02 972.91 476.582C973.802 477.145 974.495 477.935 974.989 478.952C975.489 479.969 975.739 481.159 975.739 482.523C975.739 483.875 975.489 485.057 974.989 486.068C974.495 487.08 973.802 487.866 972.91 488.429C972.023 488.991 970.989 489.273 969.808 489.273ZM969.808 487.466C970.705 487.466 971.444 487.236 972.023 486.776C972.603 486.315 973.032 485.71 973.31 484.96C973.589 484.21 973.728 483.398 973.728 482.523C973.728 481.648 973.589 480.832 973.31 480.077C973.032 479.321 972.603 478.71 972.023 478.244C971.444 477.778 970.705 477.545 969.808 477.545C968.91 477.545 968.171 477.778 967.592 478.244C967.012 478.71 966.583 479.321 966.305 480.077C966.026 480.832 965.887 481.648 965.887 482.523C965.887 483.398 966.026 484.21 966.305 484.96C966.583 485.71 967.012 486.315 967.592 486.776C968.171 487.236 968.91 487.466 969.808 487.466ZM980.821 486.034L987.128 475.909H989.446V489H987.435V478.875L981.162 489H978.81V475.909H980.821V486.034ZM985.798 471.545H987.673C987.673 472.466 987.355 473.219 986.719 473.804C986.082 474.389 985.219 474.682 984.128 474.682C983.054 474.682 982.199 474.389 981.562 473.804C980.932 473.219 980.616 472.466 980.616 471.545H982.491C982.491 471.989 982.614 472.378 982.858 472.713C983.108 473.048 983.531 473.216 984.128 473.216C984.724 473.216 985.151 473.048 985.406 472.713C985.668 472.378 985.798 471.989 985.798 471.545ZM999.88 489V475.909H1010.18V489H1008.16V477.784H1001.89V489H999.88ZM1019.17 489.273C1017.99 489.273 1016.95 488.991 1016.06 488.429C1015.17 487.866 1014.48 487.08 1013.98 486.068C1013.48 485.057 1013.24 483.875 1013.24 482.523C1013.24 481.159 1013.48 479.969 1013.98 478.952C1014.48 477.935 1015.17 477.145 1016.06 476.582C1016.95 476.02 1017.99 475.739 1019.17 475.739C1020.35 475.739 1021.38 476.02 1022.27 476.582C1023.16 477.145 1023.85 477.935 1024.35 478.952C1024.85 479.969 1025.1 481.159 1025.1 482.523C1025.1 483.875 1024.85 485.057 1024.35 486.068C1023.85 487.08 1023.16 487.866 1022.27 488.429C1021.38 488.991 1020.35 489.273 1019.17 489.273ZM1019.17 487.466C1020.06 487.466 1020.8 487.236 1021.38 486.776C1021.96 486.315 1022.39 485.71 1022.67 484.96C1022.95 484.21 1023.09 483.398 1023.09 482.523C1023.09 481.648 1022.95 480.832 1022.67 480.077C1022.39 479.321 1021.96 478.71 1021.38 478.244C1020.8 477.778 1020.06 477.545 1019.17 477.545C1018.27 477.545 1017.53 477.778 1016.95 478.244C1016.37 478.71 1015.94 479.321 1015.66 480.077C1015.39 480.832 1015.25 481.648 1015.25 482.523C1015.25 483.398 1015.39 484.21 1015.66 484.96C1015.94 485.71 1016.37 486.315 1016.95 486.776C1017.53 487.236 1018.27 487.466 1019.17 487.466ZM1038.26 475.909V489H1036.25V475.909H1038.26ZM1037.48 482.148V484.023C1037.02 484.193 1036.57 484.344 1036.12 484.474C1035.67 484.599 1035.2 484.699 1034.71 484.773C1034.21 484.841 1033.67 484.875 1033.08 484.875C1031.6 484.875 1030.4 484.474 1029.51 483.673C1028.62 482.872 1028.17 481.67 1028.17 480.068V475.875H1030.18V480.068C1030.18 480.739 1030.31 481.29 1030.56 481.722C1030.82 482.153 1031.17 482.474 1031.6 482.685C1032.04 482.895 1032.53 483 1033.08 483C1033.93 483 1034.7 482.923 1035.39 482.77C1036.08 482.611 1036.78 482.403 1037.48 482.148ZM1040.17 477.784V475.909H1050.81V477.784H1046.51V489H1044.5V477.784H1040.17ZM1055.48 480.648H1059.23C1060.76 480.648 1061.94 481.037 1062.75 481.815C1063.56 482.594 1063.97 483.58 1063.97 484.773C1063.97 485.557 1063.78 486.27 1063.42 486.912C1063.06 487.548 1062.52 488.057 1061.82 488.438C1061.11 488.812 1060.25 489 1059.23 489H1053.74V475.909H1055.75V487.125H1059.23C1060.02 487.125 1060.68 486.915 1061.19 486.494C1061.7 486.074 1061.96 485.534 1061.96 484.875C1061.96 484.182 1061.7 483.616 1061.19 483.179C1060.68 482.741 1060.02 482.523 1059.23 482.523H1055.48V480.648ZM1066.05 489V475.909H1068.06V489H1066.05Z" fill="#747373"/>
<g filter="url(#filter1_d_4_1753)">
<rect x="730" y="562" width="459" height="79" rx="20" fill="white"/>
</g>
<path d="M774.17 593.545V611H772.057V595.42H763.261V611H761.148V593.545H774.17ZM782.013 611.307C781.184 611.307 780.431 611.151 779.755 610.838C779.079 610.52 778.542 610.062 778.144 609.466C777.746 608.864 777.548 608.136 777.548 607.284C777.548 606.534 777.695 605.926 777.991 605.46C778.286 604.989 778.681 604.619 779.175 604.352C779.67 604.085 780.215 603.886 780.812 603.756C781.414 603.619 782.019 603.511 782.627 603.432C783.423 603.33 784.067 603.253 784.562 603.202C785.062 603.145 785.425 603.051 785.653 602.92C785.886 602.79 786.002 602.562 786.002 602.239V602.17C786.002 601.33 785.772 600.676 785.312 600.21C784.857 599.744 784.167 599.511 783.241 599.511C782.281 599.511 781.528 599.722 780.982 600.142C780.437 600.562 780.053 601.011 779.832 601.489L777.923 600.807C778.263 600.011 778.718 599.392 779.286 598.949C779.86 598.5 780.485 598.187 781.161 598.011C781.843 597.83 782.513 597.739 783.173 597.739C783.593 597.739 784.076 597.79 784.621 597.892C785.173 597.989 785.704 598.19 786.215 598.497C786.732 598.804 787.161 599.267 787.502 599.886C787.843 600.506 788.013 601.335 788.013 602.375V611H786.002V609.227H785.9C785.763 609.511 785.536 609.815 785.218 610.139C784.9 610.463 784.477 610.739 783.948 610.966C783.42 611.193 782.775 611.307 782.013 611.307ZM782.32 609.5C783.116 609.5 783.786 609.344 784.332 609.031C784.883 608.719 785.298 608.315 785.576 607.821C785.86 607.327 786.002 606.807 786.002 606.261V604.42C785.917 604.523 785.729 604.616 785.44 604.702C785.156 604.781 784.826 604.852 784.451 604.915C784.082 604.972 783.721 605.023 783.369 605.068C783.022 605.108 782.741 605.142 782.525 605.17C782.002 605.239 781.513 605.349 781.059 605.503C780.61 605.651 780.246 605.875 779.968 606.176C779.695 606.472 779.559 606.875 779.559 607.386C779.559 608.085 779.817 608.614 780.335 608.972C780.857 609.324 781.519 609.5 782.32 609.5ZM791.685 615.909V597.909H793.628V599.989H793.866C794.014 599.761 794.219 599.472 794.48 599.119C794.747 598.761 795.128 598.443 795.622 598.165C796.122 597.881 796.798 597.739 797.651 597.739C798.753 597.739 799.724 598.014 800.565 598.565C801.406 599.116 802.063 599.898 802.534 600.909C803.006 601.92 803.241 603.114 803.241 604.489C803.241 605.875 803.006 607.077 802.534 608.094C802.063 609.105 801.409 609.889 800.574 610.446C799.739 610.997 798.776 611.273 797.685 611.273C796.844 611.273 796.17 611.134 795.665 610.855C795.159 610.571 794.77 610.25 794.497 609.892C794.224 609.528 794.014 609.227 793.866 608.989H793.696V615.909H791.685ZM793.662 604.455C793.662 605.443 793.807 606.315 794.097 607.071C794.386 607.821 794.81 608.409 795.366 608.835C795.923 609.256 796.605 609.466 797.412 609.466C798.253 609.466 798.955 609.244 799.517 608.801C800.085 608.352 800.511 607.75 800.795 606.994C801.085 606.233 801.23 605.386 801.23 604.455C801.23 603.534 801.088 602.705 800.804 601.966C800.526 601.222 800.102 600.634 799.534 600.202C798.972 599.764 798.264 599.545 797.412 599.545C796.594 599.545 795.906 599.753 795.349 600.168C794.793 600.577 794.372 601.151 794.088 601.889C793.804 602.622 793.662 603.477 793.662 604.455ZM811.628 611.273C810.446 611.273 809.409 610.991 808.517 610.429C807.631 609.866 806.938 609.08 806.438 608.068C805.943 607.057 805.696 605.875 805.696 604.523C805.696 603.159 805.943 601.969 806.438 600.952C806.938 599.935 807.631 599.145 808.517 598.582C809.409 598.02 810.446 597.739 811.628 597.739C812.81 597.739 813.844 598.02 814.73 598.582C815.622 599.145 816.315 599.935 816.81 600.952C817.31 601.969 817.56 603.159 817.56 604.523C817.56 605.875 817.31 607.057 816.81 608.068C816.315 609.08 815.622 609.866 814.73 610.429C813.844 610.991 812.81 611.273 811.628 611.273ZM811.628 609.466C812.526 609.466 813.264 609.236 813.844 608.776C814.423 608.315 814.852 607.71 815.131 606.96C815.409 606.21 815.548 605.398 815.548 604.523C815.548 603.648 815.409 602.832 815.131 602.077C814.852 601.321 814.423 600.71 813.844 600.244C813.264 599.778 812.526 599.545 811.628 599.545C810.73 599.545 809.991 599.778 809.412 600.244C808.832 600.71 808.403 601.321 808.125 602.077C807.847 602.832 807.707 603.648 807.707 604.523C807.707 605.398 807.847 606.21 808.125 606.96C808.403 607.71 808.832 608.315 809.412 608.776C809.991 609.236 810.73 609.466 811.628 609.466ZM819.471 611V609.125H819.948C820.34 609.125 820.667 609.048 820.928 608.895C821.19 608.736 821.4 608.46 821.559 608.068C821.724 607.67 821.849 607.119 821.934 606.415C822.025 605.705 822.09 604.801 822.13 603.705L822.369 597.909H831.096V611H829.085V599.784H824.278L824.073 604.455C824.028 605.528 823.931 606.474 823.783 607.293C823.641 608.105 823.423 608.787 823.127 609.338C822.837 609.889 822.451 610.304 821.968 610.582C821.485 610.861 820.88 611 820.153 611H819.471ZM836.525 602.648H840.275C841.809 602.648 842.982 603.037 843.795 603.815C844.607 604.594 845.013 605.58 845.013 606.773C845.013 607.557 844.832 608.27 844.468 608.912C844.104 609.548 843.57 610.057 842.866 610.438C842.161 610.812 841.298 611 840.275 611H834.786V597.909H836.798V609.125H840.275C841.07 609.125 841.724 608.915 842.235 608.494C842.746 608.074 843.002 607.534 843.002 606.875C843.002 606.182 842.746 605.616 842.235 605.179C841.724 604.741 841.07 604.523 840.275 604.523H836.525V602.648Z" fill="#747373"/>
<g filter="url(#filter2_d_4_1753)">
<rect x="730" y="684" width="459" height="80" rx="20" fill="#C7DDFF"/>
<path d="M930.404 715.122C931.765 715.122 932.905 715.252 933.822 715.512C934.755 715.772 935.451 716.2 935.91 716.796C936.384 717.393 936.621 718.188 936.621 719.182C936.621 719.824 936.498 720.398 936.254 720.902C936.024 721.392 935.673 721.805 935.199 722.141C934.74 722.462 934.174 722.684 933.501 722.806V722.921C934.189 723.028 934.809 723.227 935.359 723.517C935.925 723.808 936.368 724.221 936.69 724.756C937.011 725.291 937.171 725.987 937.171 726.843C937.171 727.837 936.942 728.686 936.483 729.39C936.024 730.078 935.367 730.605 934.51 730.972C933.669 731.324 932.66 731.5 931.483 731.5H925.725V715.122H930.404ZM930.817 722.095C932.224 722.095 933.188 721.873 933.708 721.43C934.228 720.971 934.488 720.298 934.488 719.411C934.488 718.509 934.166 717.867 933.524 717.485C932.897 717.087 931.888 716.888 930.496 716.888H927.789V722.095H930.817ZM927.789 723.816V729.757H931.093C932.545 729.757 933.555 729.474 934.121 728.908C934.686 728.342 934.969 727.6 934.969 726.683C934.969 726.102 934.839 725.597 934.579 725.169C934.335 724.741 933.914 724.412 933.318 724.183C932.737 723.938 931.941 723.816 930.932 723.816H927.789ZM951.746 725.33C951.746 726.354 951.609 727.264 951.333 728.059C951.073 728.839 950.691 729.504 950.186 730.055C949.697 730.605 949.093 731.026 948.374 731.316C947.671 731.592 946.883 731.729 946.012 731.729C945.201 731.729 944.452 731.592 943.764 731.316C943.075 731.026 942.479 730.605 941.974 730.055C941.47 729.504 941.072 728.839 940.782 728.059C940.506 727.264 940.369 726.354 940.369 725.33C940.369 723.969 940.598 722.822 941.057 721.889C941.516 720.941 942.173 720.222 943.03 719.733C943.886 719.228 944.903 718.976 946.08 718.976C947.197 718.976 948.175 719.228 949.017 719.733C949.873 720.222 950.538 720.941 951.012 721.889C951.502 722.822 951.746 723.969 951.746 725.33ZM942.456 725.33C942.456 726.293 942.578 727.134 942.823 727.853C943.083 728.556 943.481 729.099 944.016 729.481C944.551 729.864 945.232 730.055 946.057 730.055C946.883 730.055 947.564 729.864 948.099 729.481C948.634 729.099 949.024 728.556 949.269 727.853C949.529 727.134 949.659 726.293 949.659 725.33C949.659 724.351 949.529 723.517 949.269 722.829C949.009 722.141 948.611 721.614 948.076 721.247C947.556 720.864 946.876 720.673 946.035 720.673C944.781 720.673 943.871 721.086 943.305 721.912C942.739 722.738 942.456 723.877 942.456 725.33ZM965.589 714.113C965.528 714.877 965.337 715.52 965.015 716.039C964.71 716.559 964.251 716.949 963.639 717.209C963.027 717.469 962.232 717.599 961.253 717.599C960.259 717.599 959.457 717.469 958.845 717.209C958.249 716.949 957.813 716.567 957.537 716.062C957.262 715.542 957.094 714.893 957.033 714.113H958.914C958.99 714.938 959.204 715.497 959.556 715.787C959.923 716.062 960.504 716.2 961.299 716.2C962.003 716.2 962.553 716.055 962.951 715.764C963.364 715.458 963.608 714.908 963.685 714.113H965.589ZM957.537 726.706C957.537 726.843 957.53 727.042 957.515 727.302C957.515 727.547 957.507 727.815 957.492 728.105C957.476 728.38 957.461 728.648 957.446 728.908C957.43 729.153 957.415 729.351 957.4 729.504L963.983 719.205H966.461V731.5H964.58V724.251C964.58 724.007 964.58 723.686 964.58 723.288C964.595 722.89 964.61 722.5 964.625 722.118C964.641 721.721 964.656 721.422 964.671 721.224L958.134 731.5H955.634V719.205H957.537V726.706ZM979.549 720.902H975.534V731.5H973.539V720.902H969.57V719.205H979.549V720.902ZM984.563 726.706C984.563 726.843 984.555 727.042 984.54 727.302C984.54 727.547 984.532 727.815 984.517 728.105C984.502 728.38 984.486 728.648 984.471 728.908C984.456 729.153 984.44 729.351 984.425 729.504L991.008 719.205H993.486V731.5H991.605V724.251C991.605 724.007 991.605 723.686 991.605 723.288C991.62 722.89 991.635 722.5 991.651 722.118C991.666 721.721 991.681 721.422 991.697 721.224L985.159 731.5H982.659V719.205H984.563V726.706Z" fill="#313144"/>
</g>
<defs>
<filter id="filter0_d_4_1753" x="726" y="440" width="467" height="87" filterUnits="userSpaceOnUse" color-interpolation-filters="sRGB">
<feFlood flood-opacity="0" result="BackgroundImageFix"/>
<feColorMatrix in="SourceAlpha" type="matrix" values="0 0 0 0 0 0 0 0 0 0 0 0 0 0 0 0 0 0 127 0" result="hardAlpha"/>
<feOffset dy="4"/>
<feGaussianBlur stdDeviation="2"/>
<feComposite in2="hardAlpha" operator="out"/>
<feColorMatrix type="matrix" values="0 0 0 0 0 0 0 0 0 0 0 0 0 0 0 0 0 0 0.25 0"/>
<feBlend mode="normal" in2="BackgroundImageFix" result="effect1_dropShadow_4_1753"/>
<feBlend mode="normal" in="SourceGraphic" in2="effect1_dropShadow_4_1753" result="shape"/>
</filter>
<filter id="filter1_d_4_1753" x="726" y="562" width="467" height="87" filterUnits="userSpaceOnUse" color-interpolation-filters="sRGB">
<feFlood flood-opacity="0" result="BackgroundImageFix"/>
<feColorMatrix in="SourceAlpha" type="matrix" values="0 0 0 0 0 0 0 0 0 0 0 0 0 0 0 0 0 0 127 0" result="hardAlpha"/>
<feOffset dy="4"/>
<feGaussianBlur stdDeviation="2"/>
<feComposite in2="hardAlpha" operator="out"/>
<feColorMatrix type="matrix" values="0 0 0 0 0 0 0 0 0 0 0 0 0 0 0 0 0 0 0.25 0"/>
<feBlend mode="normal" in2="BackgroundImageFix" result="effect1_dropShadow_4_1753"/>
<feBlend mode="normal" in="SourceGraphic" in2="effect1_dropShadow_4_1753" result="shape"/>
</filter>
<filter id="filter2_d_4_1753" x="726" y="684" width="467" height="88" filterUnits="userSpaceOnUse" color-interpolation-filters="sRGB">
<feFlood flood-opacity="0" result="BackgroundImageFix"/>
<feColorMatrix in="SourceAlpha" type="matrix" values="0 0 0 0 0 0 0 0 0 0 0 0 0 0 0 0 0 0 127 0" result="hardAlpha"/>
<feOffset dy="4"/>
<feGaussianBlur stdDeviation="2"/>
<feComposite in2="hardAlpha" operator="out"/>
<feColorMatrix type="matrix" values="0 0 0 0 0 0 0 0 0 0 0 0 0 0 0 0 0 0 0.25 0"/>
<feBlend mode="normal" in2="BackgroundImageFix" result="effect1_dropShadow_4_1753"/>
<feBlend mode="normal" in="SourceGraphic" in2="effect1_dropShadow_4_1753" result="shape"/>
</filter>
</defs>
</svg>
