<svg width="1920" height="1080" viewBox="0 0 1920 1080" fill="none" xmlns="http://www.w3.org/2000/svg">
<rect width="1920" height="1080" fill="#EEEEEE"/>
<rect width="1920" height="91" fill="white"/>
<rect width="125" height="91" transform="translate(218)" fill="white"/>
<path d="M242.966 42.5H241.205C241.1 41.9934 240.918 41.5483 240.658 41.1648C240.402 40.7812 240.089 40.4593 239.72 40.1989C239.356 39.9337 238.951 39.7348 238.506 39.6023C238.061 39.4697 237.597 39.4034 237.114 39.4034C236.233 39.4034 235.435 39.6259 234.72 40.071C234.01 40.5161 233.444 41.1719 233.023 42.0384C232.606 42.9048 232.398 43.9678 232.398 45.2273C232.398 46.4867 232.606 47.5497 233.023 48.4162C233.444 49.2827 234.01 49.9384 234.72 50.3835C235.435 50.8286 236.233 51.0511 237.114 51.0511C237.597 51.0511 238.061 50.9848 238.506 50.8523C238.951 50.7197 239.356 50.5232 239.72 50.2628C240.089 49.9976 240.402 49.6733 240.658 49.2898C240.918 48.9015 241.1 48.4564 241.205 47.9545H242.966C242.833 48.6979 242.592 49.3632 242.241 49.9503C241.891 50.5374 241.455 51.0369 240.935 51.4489C240.414 51.8561 239.829 52.1662 239.18 52.3793C238.536 52.5923 237.848 52.6989 237.114 52.6989C235.873 52.6989 234.77 52.3958 233.804 51.7898C232.838 51.1837 232.078 50.322 231.524 49.2045C230.97 48.0871 230.693 46.7614 230.693 45.2273C230.693 43.6932 230.97 42.3674 231.524 41.25C232.078 40.1326 232.838 39.2708 233.804 38.6648C234.77 38.0587 235.873 37.7557 237.114 37.7557C237.848 37.7557 238.536 37.8622 239.18 38.0753C239.829 38.2884 240.414 38.6009 240.935 39.0128C241.455 39.42 241.891 39.9171 242.241 40.5043C242.592 41.0866 242.833 41.7519 242.966 42.5ZM248.795 52.7557C248.104 52.7557 247.476 52.6255 246.913 52.3651C246.35 52.0999 245.902 51.7188 245.571 51.2216C245.239 50.7197 245.074 50.1136 245.074 49.4034C245.074 48.7784 245.197 48.2718 245.443 47.8835C245.689 47.4905 246.018 47.1828 246.43 46.9602C246.842 46.7377 247.297 46.572 247.794 46.4631C248.296 46.3494 248.8 46.2595 249.306 46.1932C249.969 46.108 250.507 46.044 250.919 46.0014C251.335 45.9541 251.638 45.8759 251.828 45.767C252.022 45.6581 252.119 45.4687 252.119 45.1989V45.142C252.119 44.4413 251.927 43.8968 251.544 43.5085C251.165 43.1203 250.59 42.9261 249.818 42.9261C249.018 42.9261 248.39 43.1013 247.936 43.4517C247.481 43.8021 247.162 44.1761 246.977 44.5739L245.386 44.0057C245.67 43.3428 246.049 42.8267 246.522 42.4574C247.001 42.0833 247.521 41.8229 248.085 41.6761C248.653 41.5246 249.212 41.4489 249.761 41.4489C250.111 41.4489 250.514 41.4915 250.968 41.5767C251.428 41.6572 251.87 41.8253 252.297 42.081C252.727 42.3366 253.085 42.7225 253.369 43.2386C253.653 43.7547 253.795 44.446 253.795 45.3125V52.5H252.119V51.0227H252.034C251.92 51.2595 251.731 51.5128 251.466 51.7827C251.2 52.0526 250.848 52.2822 250.407 52.4716C249.967 52.661 249.43 52.7557 248.795 52.7557ZM249.051 51.25C249.714 51.25 250.272 51.1198 250.727 50.8594C251.186 50.599 251.532 50.2628 251.764 49.8509C252.001 49.4389 252.119 49.0057 252.119 48.5511V47.017C252.048 47.1023 251.892 47.1804 251.65 47.2514C251.413 47.3177 251.139 47.3769 250.826 47.429C250.519 47.4763 250.218 47.5189 249.924 47.5568C249.636 47.59 249.401 47.6184 249.221 47.642C248.786 47.6989 248.378 47.7912 248 47.919C247.626 48.0421 247.323 48.2292 247.091 48.4801C246.863 48.7263 246.75 49.0625 246.75 49.4886C246.75 50.071 246.965 50.5114 247.396 50.8097C247.832 51.1032 248.383 51.25 249.051 51.25ZM262.82 50.2273L266.627 41.5909H268.218L263.502 52.5H262.138L257.508 41.5909H259.07L262.82 50.2273ZM258.531 41.5909V52.5H256.854V41.5909H258.531ZM267.11 52.5V41.5909H268.786V52.5H267.11ZM276.286 52.7273C275.301 52.7273 274.437 52.4929 273.694 52.0241C272.955 51.5554 272.378 50.8996 271.961 50.0568C271.549 49.214 271.343 48.2292 271.343 47.1023C271.343 45.9659 271.549 44.974 271.961 44.1264C272.378 43.2789 272.955 42.6207 273.694 42.152C274.437 41.6832 275.301 41.4489 276.286 41.4489C277.271 41.4489 278.133 41.6832 278.871 42.152C279.615 42.6207 280.192 43.2789 280.604 44.1264C281.021 44.974 281.229 45.9659 281.229 47.1023C281.229 48.2292 281.021 49.214 280.604 50.0568C280.192 50.8996 279.615 51.5554 278.871 52.0241C278.133 52.4929 277.271 52.7273 276.286 52.7273ZM276.286 51.2216C277.034 51.2216 277.65 51.0298 278.133 50.6463C278.616 50.2628 278.973 49.7585 279.205 49.1335C279.437 48.5085 279.553 47.8314 279.553 47.1023C279.553 46.3731 279.437 45.6937 279.205 45.0639C278.973 44.4342 278.616 43.9252 278.133 43.5369C277.65 43.1487 277.034 42.9545 276.286 42.9545C275.538 42.9545 274.923 43.1487 274.44 43.5369C273.957 43.9252 273.599 44.4342 273.367 45.0639C273.135 45.6937 273.019 46.3731 273.019 47.1023C273.019 47.8314 273.135 48.5085 273.367 49.1335C273.599 49.7585 273.957 50.2628 274.44 50.6463C274.923 51.0298 275.538 51.2216 276.286 51.2216ZM282.822 52.5V50.9375H283.22C283.547 50.9375 283.819 50.8736 284.037 50.7457C284.254 50.6132 284.43 50.3835 284.562 50.0568C284.699 49.7254 284.804 49.2661 284.875 48.679C284.95 48.0871 285.005 47.3343 285.038 46.4205L285.237 41.5909H292.51V52.5H290.833V43.1534H286.828L286.657 47.0455C286.619 47.9403 286.539 48.7287 286.416 49.4105C286.297 50.0876 286.115 50.6558 285.869 51.1151C285.627 51.5743 285.306 51.92 284.903 52.152C284.501 52.384 283.996 52.5 283.39 52.5H282.822ZM300.159 52.7273C299.108 52.7273 298.201 52.4953 297.439 52.0312C296.681 51.5625 296.096 50.9091 295.684 50.071C295.277 49.2282 295.074 48.2481 295.074 47.1307C295.074 46.0133 295.277 45.0284 295.684 44.1761C296.096 43.3191 296.669 42.6515 297.403 42.1733C298.142 41.6903 299.003 41.4489 299.988 41.4489C300.556 41.4489 301.118 41.5436 301.672 41.733C302.225 41.9223 302.73 42.2301 303.184 42.6562C303.639 43.0777 304.001 43.6364 304.271 44.3324C304.541 45.0284 304.676 45.8854 304.676 46.9034V47.6136H296.267V46.1648H302.971C302.971 45.5492 302.848 45 302.602 44.517C302.36 44.0341 302.015 43.6529 301.565 43.3736C301.12 43.0942 300.594 42.9545 299.988 42.9545C299.321 42.9545 298.743 43.1203 298.255 43.4517C297.772 43.7784 297.401 44.2045 297.14 44.7301C296.88 45.2557 296.75 45.8191 296.75 46.4205V47.3864C296.75 48.2102 296.892 48.9086 297.176 49.4815C297.465 50.0497 297.865 50.483 298.376 50.7812C298.887 51.0748 299.482 51.2216 300.159 51.2216C300.599 51.2216 300.997 51.16 301.352 51.0369C301.712 50.9091 302.022 50.7197 302.282 50.4688C302.543 50.2131 302.744 49.8958 302.886 49.517L304.505 49.9716C304.335 50.5208 304.048 51.0038 303.646 51.4205C303.243 51.8324 302.746 52.1544 302.154 52.3864C301.563 52.6136 300.897 52.7273 300.159 52.7273ZM306.21 43.1534V41.5909H315.074V43.1534H311.494V52.5H309.818V43.1534H306.21ZM318.967 45.5398H322.092C323.371 45.5398 324.348 45.8641 325.026 46.5128C325.703 47.1615 326.041 47.983 326.041 48.9773C326.041 49.6307 325.89 50.2249 325.587 50.7599C325.284 51.2902 324.839 51.714 324.251 52.0312C323.664 52.3438 322.945 52.5 322.092 52.5H317.518V41.5909H319.195V50.9375H322.092C322.755 50.9375 323.3 50.7623 323.726 50.4119C324.152 50.0616 324.365 49.6117 324.365 49.0625C324.365 48.4848 324.152 48.0137 323.726 47.6491C323.3 47.2846 322.755 47.1023 322.092 47.1023H318.967V45.5398ZM327.774 52.5V41.5909H329.45V52.5H327.774Z" fill="black"/>
<rect width="137" height="91" transform="translate(1436)" fill="white"/>
<path d="M1442.76 52.5V37.9545H1447.68C1448.82 37.9545 1449.75 38.1605 1450.47 38.5724C1451.2 38.9796 1451.74 39.5312 1452.09 40.2273C1452.44 40.9233 1452.62 41.6998 1452.62 42.5568C1452.62 43.4138 1452.44 44.1927 1452.09 44.8935C1451.75 45.5942 1451.21 46.1529 1450.49 46.5696C1449.76 46.9815 1448.84 47.1875 1447.7 47.1875H1444.18V45.625H1447.65C1448.43 45.625 1449.06 45.4901 1449.53 45.2202C1450 44.9503 1450.35 44.5857 1450.56 44.1264C1450.78 43.6624 1450.89 43.1392 1450.89 42.5568C1450.89 41.9744 1450.78 41.4536 1450.56 40.9943C1450.35 40.535 1450 40.1752 1449.52 39.9148C1449.04 39.6496 1448.41 39.517 1447.62 39.517H1444.52V52.5H1442.76ZM1459.69 52.7273C1458.63 52.7273 1457.73 52.4953 1456.97 52.0312C1456.21 51.5625 1455.62 50.9091 1455.21 50.071C1454.8 49.2282 1454.6 48.2481 1454.6 47.1307C1454.6 46.0133 1454.8 45.0284 1455.21 44.1761C1455.62 43.3191 1456.2 42.6515 1456.93 42.1733C1457.67 41.6903 1458.53 41.4489 1459.52 41.4489C1460.08 41.4489 1460.64 41.5436 1461.2 41.733C1461.75 41.9223 1462.26 42.2301 1462.71 42.6562C1463.17 43.0777 1463.53 43.6364 1463.8 44.3324C1464.07 45.0284 1464.2 45.8854 1464.2 46.9034V47.6136H1455.79V46.1648H1462.5C1462.5 45.5492 1462.38 45 1462.13 44.517C1461.89 44.0341 1461.54 43.6529 1461.09 43.3736C1460.65 43.0942 1460.12 42.9545 1459.52 42.9545C1458.85 42.9545 1458.27 43.1203 1457.78 43.4517C1457.3 43.7784 1456.93 44.2045 1456.67 44.7301C1456.41 45.2557 1456.28 45.8191 1456.28 46.4205V47.3864C1456.28 48.2102 1456.42 48.9086 1456.7 49.4815C1456.99 50.0497 1457.39 50.483 1457.9 50.7812C1458.41 51.0748 1459.01 51.2216 1459.69 51.2216C1460.13 51.2216 1460.52 51.16 1460.88 51.0369C1461.24 50.9091 1461.55 50.7197 1461.81 50.4688C1462.07 50.2131 1462.27 49.8958 1462.41 49.517L1464.03 49.9716C1463.86 50.5208 1463.58 51.0038 1463.17 51.4205C1462.77 51.8324 1462.27 52.1544 1461.68 52.3864C1461.09 52.6136 1460.42 52.7273 1459.69 52.7273ZM1473.49 41.5909V43.1534H1468.43V52.5H1466.75V41.5909H1473.49ZM1477.61 50.0284L1482.86 41.5909H1484.8V52.5H1483.12V44.0625L1477.89 52.5H1475.93V41.5909H1477.61V50.0284ZM1492.3 52.7273C1491.28 52.7273 1490.39 52.4858 1489.66 52.0028C1488.92 51.5199 1488.35 50.8546 1487.95 50.0071C1487.55 49.1596 1487.35 48.1913 1487.35 47.1023C1487.35 45.9943 1487.56 45.0166 1487.97 44.169C1488.38 43.3168 1488.95 42.6515 1489.68 42.1733C1490.42 41.6903 1491.28 41.4489 1492.27 41.4489C1493.04 41.4489 1493.73 41.5909 1494.34 41.875C1494.96 42.1591 1495.46 42.5568 1495.86 43.0682C1496.25 43.5795 1496.49 44.1761 1496.59 44.858H1494.91C1494.78 44.3608 1494.5 43.9205 1494.06 43.5369C1493.62 43.1487 1493.04 42.9545 1492.3 42.9545C1491.64 42.9545 1491.07 43.125 1490.58 43.4659C1490.09 43.8021 1489.71 44.2779 1489.44 44.8935C1489.17 45.5043 1489.03 46.2216 1489.03 47.0455C1489.03 47.8883 1489.16 48.6222 1489.43 49.2472C1489.7 49.8722 1490.08 50.3575 1490.56 50.7031C1491.06 51.0488 1491.64 51.2216 1492.3 51.2216C1492.73 51.2216 1493.13 51.1458 1493.48 50.9943C1493.84 50.8428 1494.14 50.625 1494.39 50.3409C1494.63 50.0568 1494.81 49.7159 1494.91 49.3182H1496.59C1496.49 49.9621 1496.26 50.5421 1495.88 51.0582C1495.52 51.5696 1495.03 51.9768 1494.41 52.2798C1493.81 52.5781 1493.1 52.7273 1492.3 52.7273ZM1498.18 43.1534V41.5909H1507.04V43.1534H1503.46V52.5H1501.79V43.1534H1498.18ZM1509.49 56.5909V41.5909H1511.11V43.3239H1511.31C1511.43 43.1345 1511.6 42.893 1511.82 42.5994C1512.04 42.3011 1512.36 42.036 1512.77 41.804C1513.19 41.5672 1513.75 41.4489 1514.46 41.4489C1515.38 41.4489 1516.19 41.6785 1516.89 42.1378C1517.59 42.5971 1518.14 43.2481 1518.53 44.0909C1518.92 44.9337 1519.12 45.928 1519.12 47.0739C1519.12 48.2292 1518.92 49.2306 1518.53 50.0781C1518.14 50.9209 1517.59 51.5743 1516.89 52.0384C1516.2 52.4976 1515.4 52.7273 1514.49 52.7273C1513.79 52.7273 1513.23 52.6113 1512.8 52.3793C1512.38 52.1425 1512.06 51.875 1511.83 51.5767C1511.6 51.2737 1511.43 51.0227 1511.31 50.8239H1511.16V56.5909H1509.49ZM1511.13 47.0455C1511.13 47.8693 1511.26 48.5961 1511.5 49.2259C1511.74 49.8509 1512.09 50.3409 1512.56 50.696C1513.02 51.0464 1513.59 51.2216 1514.26 51.2216C1514.96 51.2216 1515.55 51.0369 1516.01 50.6676C1516.49 50.2936 1516.84 49.7917 1517.08 49.1619C1517.32 48.5275 1517.44 47.822 1517.44 47.0455C1517.44 46.2784 1517.32 45.5871 1517.09 44.9716C1516.85 44.3513 1516.5 43.8613 1516.03 43.5014C1515.56 43.1368 1514.97 42.9545 1514.26 42.9545C1513.58 42.9545 1513.01 43.1274 1512.54 43.473C1512.08 43.8139 1511.73 44.2921 1511.49 44.9077C1511.25 45.5185 1511.13 46.2311 1511.13 47.0455ZM1524.88 52.7557C1524.19 52.7557 1523.57 52.6255 1523 52.3651C1522.44 52.0999 1521.99 51.7188 1521.66 51.2216C1521.33 50.7197 1521.16 50.1136 1521.16 49.4034C1521.16 48.7784 1521.29 48.2718 1521.53 47.8835C1521.78 47.4905 1522.11 47.1828 1522.52 46.9602C1522.93 46.7377 1523.39 46.572 1523.88 46.4631C1524.39 46.3494 1524.89 46.2595 1525.4 46.1932C1526.06 46.108 1526.6 46.044 1527.01 46.0014C1527.43 45.9541 1527.73 45.8759 1527.92 45.767C1528.11 45.6581 1528.21 45.4687 1528.21 45.1989V45.142C1528.21 44.4413 1528.02 43.8968 1527.63 43.5085C1527.25 43.1203 1526.68 42.9261 1525.91 42.9261C1525.11 42.9261 1524.48 43.1013 1524.03 43.4517C1523.57 43.8021 1523.25 44.1761 1523.07 44.5739L1521.48 44.0057C1521.76 43.3428 1522.14 42.8267 1522.61 42.4574C1523.09 42.0833 1523.61 41.8229 1524.17 41.6761C1524.74 41.5246 1525.3 41.4489 1525.85 41.4489C1526.2 41.4489 1526.6 41.4915 1527.06 41.5767C1527.52 41.6572 1527.96 41.8253 1528.39 42.081C1528.82 42.3366 1529.17 42.7225 1529.46 43.2386C1529.74 43.7547 1529.88 44.446 1529.88 45.3125V52.5H1528.21V51.0227H1528.12C1528.01 51.2595 1527.82 51.5128 1527.56 51.7827C1527.29 52.0526 1526.94 52.2822 1526.5 52.4716C1526.06 52.661 1525.52 52.7557 1524.88 52.7557ZM1525.14 51.25C1525.8 51.25 1526.36 51.1198 1526.82 50.8594C1527.28 50.599 1527.62 50.2628 1527.85 49.8509C1528.09 49.4389 1528.21 49.0057 1528.21 48.5511V47.017C1528.14 47.1023 1527.98 47.1804 1527.74 47.2514C1527.5 47.3177 1527.23 47.3769 1526.92 47.429C1526.61 47.4763 1526.31 47.5189 1526.01 47.5568C1525.73 47.59 1525.49 47.6184 1525.31 47.642C1524.88 47.6989 1524.47 47.7912 1524.09 47.919C1523.72 48.0421 1523.41 48.2292 1523.18 48.4801C1522.95 48.7263 1522.84 49.0625 1522.84 49.4886C1522.84 50.071 1523.05 50.5114 1523.49 50.8097C1523.92 51.1032 1524.47 51.25 1525.14 51.25ZM1541.52 41.5909V50.9375H1543.06V56.0227H1541.38V52.5H1532.94V41.5909H1534.62V50.9375H1539.85V41.5909H1541.52ZM1547.32 50.0284L1552.57 41.5909H1554.5V52.5H1552.83V44.0625L1547.6 52.5H1545.64V41.5909H1547.32V50.0284ZM1564.14 52.5V43.125H1561.24C1560.58 43.125 1560.07 43.2765 1559.7 43.5795C1559.32 43.8826 1559.14 44.2992 1559.14 44.8295C1559.14 45.3504 1559.3 45.7599 1559.64 46.0582C1559.98 46.3565 1560.45 46.5057 1561.04 46.5057H1564.56V48.0682H1561.04C1560.3 48.0682 1559.66 47.938 1559.13 47.6776C1558.59 47.4171 1558.18 47.0455 1557.89 46.5625C1557.6 46.0748 1557.46 45.4972 1557.46 44.8295C1557.46 44.1572 1557.61 43.5795 1557.91 43.0966C1558.22 42.6136 1558.65 42.242 1559.21 41.9815C1559.78 41.7211 1560.46 41.5909 1561.24 41.5909H1565.73V52.5H1564.14ZM1556.86 52.5L1559.96 47.0739H1561.78L1558.68 52.5H1556.86Z" fill="black"/>
<rect width="75" height="91" transform="translate(1582)" fill="white"/>
<path d="M1597.26 52.5V37.9545H1602.35C1603.36 37.9545 1604.2 38.1297 1604.85 38.4801C1605.51 38.8258 1606 39.2921 1606.32 39.8793C1606.65 40.4616 1606.81 41.108 1606.81 41.8182C1606.81 42.4432 1606.7 42.9593 1606.47 43.3665C1606.26 43.7737 1605.97 44.0956 1605.61 44.3324C1605.25 44.5691 1604.87 44.7443 1604.45 44.858V45C1604.89 45.0284 1605.34 45.1847 1605.79 45.4688C1606.24 45.7528 1606.62 46.16 1606.92 46.6903C1607.22 47.2206 1607.38 47.8693 1607.38 48.6364C1607.38 49.3655 1607.21 50.0213 1606.88 50.6037C1606.55 51.1861 1606.02 51.6477 1605.31 51.9886C1604.59 52.3295 1603.66 52.5 1602.52 52.5H1597.26ZM1599.02 50.9375H1602.52C1603.67 50.9375 1604.48 50.715 1604.97 50.2699C1605.46 49.8201 1605.7 49.2756 1605.7 48.6364C1605.7 48.1439 1605.57 47.6894 1605.32 47.2727C1605.07 46.8513 1604.71 46.5152 1604.25 46.2642C1603.79 46.0085 1603.24 45.8807 1602.6 45.8807H1599.02V50.9375ZM1599.02 44.3466H1602.29C1602.82 44.3466 1603.3 44.2424 1603.72 44.0341C1604.16 43.8258 1604.5 43.5322 1604.75 43.1534C1605 42.7746 1605.13 42.3295 1605.13 41.8182C1605.13 41.179 1604.91 40.6368 1604.46 40.1918C1604.02 39.742 1603.31 39.517 1602.35 39.517H1599.02V44.3466ZM1611.29 41.5909L1613.91 46.0511L1616.52 41.5909H1618.45L1614.93 47.0455L1618.45 52.5H1616.52L1613.91 48.267L1611.29 52.5H1609.36L1612.83 47.0455L1609.36 41.5909H1611.29ZM1624.83 52.7273C1623.84 52.7273 1622.98 52.4929 1622.23 52.0241C1621.49 51.5554 1620.92 50.8996 1620.5 50.0568C1620.09 49.214 1619.88 48.2292 1619.88 47.1023C1619.88 45.9659 1620.09 44.974 1620.5 44.1264C1620.92 43.2789 1621.49 42.6207 1622.23 42.152C1622.98 41.6832 1623.84 41.4489 1624.83 41.4489C1625.81 41.4489 1626.67 41.6832 1627.41 42.152C1628.15 42.6207 1628.73 43.2789 1629.14 44.1264C1629.56 44.974 1629.77 45.9659 1629.77 47.1023C1629.77 48.2292 1629.56 49.214 1629.14 50.0568C1628.73 50.8996 1628.15 51.5554 1627.41 52.0241C1626.67 52.4929 1625.81 52.7273 1624.83 52.7273ZM1624.83 51.2216C1625.57 51.2216 1626.19 51.0298 1626.67 50.6463C1627.15 50.2628 1627.51 49.7585 1627.74 49.1335C1627.98 48.5085 1628.09 47.8314 1628.09 47.1023C1628.09 46.3731 1627.98 45.6937 1627.74 45.0639C1627.51 44.4342 1627.15 43.9252 1626.67 43.5369C1626.19 43.1487 1625.57 42.9545 1624.83 42.9545C1624.08 42.9545 1623.46 43.1487 1622.98 43.5369C1622.5 43.9252 1622.14 44.4342 1621.91 45.0639C1621.67 45.6937 1621.56 46.3731 1621.56 47.1023C1621.56 47.8314 1621.67 48.5085 1621.91 49.1335C1622.14 49.7585 1622.5 50.2628 1622.98 50.6463C1623.46 51.0298 1624.08 51.2216 1624.83 51.2216ZM1631.16 55.625V50.9375H1632.07C1632.29 50.7055 1632.49 50.4545 1632.65 50.1847C1632.81 49.9148 1632.95 49.5952 1633.07 49.2259C1633.19 48.8518 1633.29 48.3973 1633.38 47.8622C1633.46 47.3224 1633.54 46.6714 1633.61 45.9091L1633.97 41.5909H1640.91V50.9375H1642.58V55.625H1640.91V52.5H1632.84V55.625H1631.16ZM1633.97 50.9375H1639.23V43.1534H1635.54L1635.25 45.9091C1635.13 47.0502 1634.99 48.0469 1634.81 48.8991C1634.64 49.7514 1634.36 50.4309 1633.97 50.9375Z" fill="black"/>
<rect width="125" height="91" transform="translate(343)" fill="white"/>
<path d="M375.028 52.6989V51.0511H375.938C376.288 51.0511 376.581 50.9825 376.818 50.8452C377.06 50.7079 377.259 50.5303 377.415 50.3125C377.576 50.0947 377.708 49.8674 377.812 49.6307L378.04 49.0909L373.011 37.9545H374.915L378.92 46.9886L382.585 37.9545H384.46L379.432 50.142C379.233 50.5966 379.006 51.018 378.75 51.4062C378.499 51.7945 378.156 52.107 377.72 52.3438C377.289 52.5805 376.705 52.6989 375.966 52.6989H375.028ZM389.403 52.7273C388.381 52.7273 387.5 52.4858 386.761 52.0028C386.023 51.5199 385.455 50.8546 385.057 50.0071C384.659 49.1596 384.46 48.1913 384.46 47.1023C384.46 45.9943 384.664 45.0166 385.071 44.169C385.483 43.3168 386.056 42.6515 386.79 42.1733C387.528 41.6903 388.39 41.4489 389.375 41.4489C390.142 41.4489 390.833 41.5909 391.449 41.875C392.064 42.1591 392.569 42.5568 392.962 43.0682C393.355 43.5795 393.598 44.1761 393.693 44.858H392.017C391.889 44.3608 391.605 43.9205 391.165 43.5369C390.729 43.1487 390.142 42.9545 389.403 42.9545C388.75 42.9545 388.177 43.125 387.685 43.4659C387.197 43.8021 386.816 44.2779 386.541 44.8935C386.271 45.5043 386.136 46.2216 386.136 47.0455C386.136 47.8883 386.269 48.6222 386.534 49.2472C386.804 49.8722 387.183 50.3575 387.67 50.7031C388.163 51.0488 388.741 51.2216 389.403 51.2216C389.839 51.2216 390.234 51.1458 390.589 50.9943C390.945 50.8428 391.245 50.625 391.491 50.3409C391.738 50.0568 391.913 49.7159 392.017 49.3182H393.693C393.598 49.9621 393.364 50.5421 392.99 51.0582C392.621 51.5696 392.131 51.9768 391.52 52.2798C390.914 52.5781 390.208 52.7273 389.403 52.7273ZM395.178 52.5V50.9375H395.575C395.902 50.9375 396.174 50.8736 396.392 50.7457C396.61 50.6132 396.785 50.3835 396.918 50.0568C397.055 49.7254 397.159 49.2661 397.23 48.679C397.306 48.0871 397.36 47.3343 397.393 46.4205L397.592 41.5909H404.865V52.5H403.189V43.1534H399.183L399.013 47.0455C398.975 47.9403 398.894 48.7287 398.771 49.4105C398.653 50.0876 398.471 50.6558 398.224 51.1151C397.983 51.5743 397.661 51.92 397.259 52.152C396.856 52.384 396.352 52.5 395.746 52.5H395.178ZM408.629 56.5909C408.345 56.5909 408.092 56.5672 407.869 56.5199C407.647 56.4773 407.493 56.4347 407.408 56.392L407.834 54.9148C408.241 55.0189 408.601 55.0568 408.913 55.0284C409.226 55 409.503 54.8603 409.744 54.6094C409.991 54.3632 410.215 53.9631 410.419 53.4091L410.732 52.5568L406.697 41.5909H408.516L411.527 50.2841H411.641L414.652 41.5909H416.47L411.839 54.0909C411.631 54.6544 411.373 55.1207 411.065 55.4901C410.758 55.8641 410.4 56.1411 409.993 56.321C409.59 56.5009 409.136 56.5909 408.629 56.5909ZM425.415 41.5909V43.1534H420.359V52.5H418.683V41.5909H425.415ZM429.538 50.0284L434.794 41.5909H436.726V52.5H435.05V44.0625L429.822 52.5H427.862V41.5909H429.538V50.0284Z" fill="black"/>
<rect width="90" height="91" transform="translate(468)" fill="white"/>
<path d="M477.761 52.5V37.9545H486.54V39.517H479.523V44.0625H483.216C484.258 44.0625 485.136 44.233 485.851 44.5739C486.571 44.9148 487.115 45.3954 487.484 46.0156C487.858 46.6359 488.045 47.3674 488.045 48.2102C488.045 49.053 487.858 49.7964 487.484 50.4403C487.115 51.0843 486.571 51.5885 485.851 51.9531C485.136 52.3177 484.258 52.5 483.216 52.5H477.761ZM479.523 50.9659H483.216C483.879 50.9659 484.44 50.8333 484.899 50.5682C485.363 50.2983 485.714 49.9527 485.95 49.5312C486.192 49.1051 486.312 48.6553 486.312 48.1818C486.312 47.4858 486.045 46.8868 485.51 46.3849C484.975 45.8783 484.21 45.625 483.216 45.625H479.523V50.9659ZM492.394 50.0284L497.65 41.5909H499.581V52.5H497.905V44.0625L492.678 52.5H490.718V41.5909H492.394V50.0284ZM501.685 52.5V50.9375H502.083C502.41 50.9375 502.682 50.8736 502.9 50.7457C503.118 50.6132 503.293 50.3835 503.425 50.0568C503.563 49.7254 503.667 49.2661 503.738 48.679C503.814 48.0871 503.868 47.3343 503.901 46.4205L504.1 41.5909H511.373V52.5H509.697V43.1534H505.691L505.521 47.0455C505.483 47.9403 505.402 48.7287 505.279 49.4105C505.161 50.0876 504.978 50.6558 504.732 51.1151C504.491 51.5743 504.169 51.92 503.766 52.152C503.364 52.384 502.86 52.5 502.254 52.5H501.685ZM519.022 52.7273C517.971 52.7273 517.064 52.4953 516.302 52.0312C515.544 51.5625 514.96 50.9091 514.548 50.071C514.14 49.2282 513.937 48.2481 513.937 47.1307C513.937 46.0133 514.14 45.0284 514.548 44.1761C514.96 43.3191 515.532 42.6515 516.266 42.1733C517.005 41.6903 517.867 41.4489 518.852 41.4489C519.42 41.4489 519.981 41.5436 520.535 41.733C521.089 41.9223 521.593 42.2301 522.048 42.6562C522.502 43.0777 522.864 43.6364 523.134 44.3324C523.404 45.0284 523.539 45.8854 523.539 46.9034V47.6136H515.13V46.1648H521.835C521.835 45.5492 521.711 45 521.465 44.517C521.224 44.0341 520.878 43.6529 520.428 43.3736C519.983 43.0942 519.458 42.9545 518.852 42.9545C518.184 42.9545 517.606 43.1203 517.119 43.4517C516.636 43.7784 516.264 44.2045 516.004 44.7301C515.743 45.2557 515.613 45.8191 515.613 46.4205V47.3864C515.613 48.2102 515.755 48.9086 516.039 49.4815C516.328 50.0497 516.728 50.483 517.239 50.7812C517.751 51.0748 518.345 51.2216 519.022 51.2216C519.462 51.2216 519.86 51.16 520.215 51.0369C520.575 50.9091 520.885 50.7197 521.146 50.4688C521.406 50.2131 521.607 49.8958 521.749 49.517L523.369 49.9716C523.198 50.5208 522.912 51.0038 522.509 51.4205C522.107 51.8324 521.61 52.1544 521.018 52.3864C520.426 52.6136 519.761 52.7273 519.022 52.7273ZM525.073 43.1534V41.5909H533.937V43.1534H530.357V52.5H528.681V43.1534H525.073ZM537.831 45.5398H540.956C542.234 45.5398 543.212 45.8641 543.889 46.5128C544.566 47.1615 544.904 47.983 544.904 48.9773C544.904 49.6307 544.753 50.2249 544.45 50.7599C544.147 51.2902 543.702 51.714 543.115 52.0312C542.528 52.3438 541.808 52.5 540.956 52.5H536.382V41.5909H538.058V50.9375H540.956C541.618 50.9375 542.163 50.7623 542.589 50.4119C543.015 50.0616 543.228 49.6117 543.228 49.0625C543.228 48.4848 543.015 48.0137 542.589 47.6491C542.163 47.2846 541.618 47.1023 540.956 47.1023H537.831V45.5398ZM546.637 52.5V41.5909H548.314V52.5H546.637Z" fill="black"/>
<path d="M812.204 368V333.091H823.999C826.738 333.091 828.977 333.585 830.715 334.574C832.465 335.551 833.761 336.875 834.602 338.545C835.442 340.216 835.863 342.08 835.863 344.136C835.863 346.193 835.442 348.062 834.602 349.744C833.772 351.426 832.488 352.767 830.749 353.767C829.011 354.756 826.783 355.25 824.067 355.25H815.613V351.5H823.931C825.806 351.5 827.312 351.176 828.448 350.528C829.585 349.881 830.408 349.006 830.92 347.903C831.442 346.79 831.704 345.534 831.704 344.136C831.704 342.739 831.442 341.489 830.92 340.386C830.408 339.284 829.579 338.42 828.431 337.795C827.283 337.159 825.761 336.841 823.863 336.841H816.431V368H812.204ZM852.823 368.545C850.3 368.545 848.124 367.989 846.295 366.875C844.477 365.75 843.073 364.182 842.085 362.17C841.107 360.148 840.619 357.795 840.619 355.114C840.619 352.432 841.107 350.068 842.085 348.023C843.073 345.966 844.448 344.364 846.21 343.216C847.982 342.057 850.05 341.477 852.414 341.477C853.778 341.477 855.124 341.705 856.454 342.159C857.783 342.614 858.994 343.352 860.085 344.375C861.175 345.386 862.045 346.727 862.692 348.398C863.34 350.068 863.664 352.125 863.664 354.568V356.273H843.482V352.795H859.573C859.573 351.318 859.278 350 858.687 348.841C858.107 347.682 857.278 346.767 856.198 346.097C855.13 345.426 853.869 345.091 852.414 345.091C850.812 345.091 849.425 345.489 848.255 346.284C847.096 347.068 846.204 348.091 845.579 349.352C844.954 350.614 844.641 351.966 844.641 353.409V355.727C844.641 357.705 844.982 359.381 845.664 360.756C846.357 362.119 847.317 363.159 848.545 363.875C849.772 364.58 851.198 364.932 852.823 364.932C853.88 364.932 854.835 364.784 855.687 364.489C856.55 364.182 857.295 363.727 857.92 363.125C858.545 362.511 859.028 361.75 859.369 360.841L863.255 361.932C862.846 363.25 862.158 364.409 861.192 365.409C860.227 366.398 859.033 367.17 857.613 367.727C856.192 368.273 854.596 368.545 852.823 368.545ZM885.942 341.818V345.568H873.806V368H869.783V341.818H885.942ZM895.837 362.068L908.451 341.818H913.087V368H909.065V347.75L896.519 368H891.815V341.818H895.837V362.068ZM931.092 368.545C928.637 368.545 926.523 367.966 924.751 366.807C922.978 365.648 921.614 364.051 920.66 362.017C919.705 359.983 919.228 357.659 919.228 355.045C919.228 352.386 919.717 350.04 920.694 348.006C921.683 345.96 923.058 344.364 924.819 343.216C926.592 342.057 928.66 341.477 931.023 341.477C932.864 341.477 934.523 341.818 936.001 342.5C937.478 343.182 938.688 344.136 939.631 345.364C940.575 346.591 941.16 348.023 941.387 349.659H937.364C937.058 348.466 936.376 347.409 935.319 346.489C934.273 345.557 932.864 345.091 931.092 345.091C929.523 345.091 928.148 345.5 926.967 346.318C925.796 347.125 924.881 348.267 924.222 349.744C923.575 351.21 923.251 352.932 923.251 354.909C923.251 356.932 923.569 358.693 924.205 360.193C924.853 361.693 925.762 362.858 926.933 363.688C928.114 364.517 929.501 364.932 931.092 364.932C932.137 364.932 933.086 364.75 933.938 364.386C934.79 364.023 935.512 363.5 936.103 362.818C936.694 362.136 937.114 361.318 937.364 360.364H941.387C941.16 361.909 940.597 363.301 939.7 364.54C938.813 365.767 937.637 366.744 936.171 367.472C934.717 368.188 933.023 368.545 931.092 368.545ZM945.205 345.568V341.818H966.478V345.568H957.887V368H953.864V345.568H945.205ZM972.346 377.818V341.818H976.232V345.977H976.71C977.005 345.523 977.414 344.943 977.937 344.239C978.471 343.523 979.232 342.886 980.221 342.33C981.221 341.761 982.573 341.477 984.278 341.477C986.482 341.477 988.425 342.028 990.107 343.131C991.789 344.233 993.102 345.795 994.045 347.818C994.988 349.841 995.46 352.227 995.46 354.977C995.46 357.75 994.988 360.153 994.045 362.188C993.102 364.21 991.795 365.778 990.124 366.892C988.454 367.994 986.528 368.545 984.346 368.545C982.664 368.545 981.317 368.267 980.306 367.71C979.295 367.142 978.516 366.5 977.971 365.784C977.425 365.057 977.005 364.455 976.71 363.977H976.369V377.818H972.346ZM976.3 354.909C976.3 356.886 976.59 358.631 977.17 360.142C977.749 361.642 978.596 362.818 979.71 363.67C980.823 364.511 982.187 364.932 983.8 364.932C985.482 364.932 986.886 364.489 988.011 363.602C989.147 362.705 989.999 361.5 990.567 359.989C991.147 358.466 991.437 356.773 991.437 354.909C991.437 353.068 991.153 351.409 990.585 349.932C990.028 348.443 989.181 347.267 988.045 346.403C986.92 345.528 985.505 345.091 983.8 345.091C982.164 345.091 980.789 345.506 979.675 346.335C978.562 347.153 977.721 348.301 977.153 349.778C976.585 351.244 976.3 352.955 976.3 354.909ZM1009.3 368.614C1007.64 368.614 1006.14 368.301 1004.78 367.676C1003.43 367.04 1002.36 366.125 1001.56 364.932C1000.77 363.727 1000.37 362.273 1000.37 360.568C1000.37 359.068 1000.66 357.852 1001.25 356.92C1001.85 355.977 1002.64 355.239 1003.62 354.705C1004.61 354.17 1005.7 353.773 1006.9 353.511C1008.1 353.239 1009.31 353.023 1010.53 352.864C1012.12 352.659 1013.41 352.506 1014.4 352.403C1015.4 352.29 1016.12 352.102 1016.58 351.841C1017.04 351.58 1017.28 351.125 1017.28 350.477V350.341C1017.28 348.659 1016.82 347.352 1015.9 346.42C1014.99 345.489 1013.61 345.023 1011.75 345.023C1009.83 345.023 1008.33 345.443 1007.24 346.284C1006.15 347.125 1005.38 348.023 1004.94 348.977L1001.12 347.614C1001.8 346.023 1002.71 344.784 1003.85 343.898C1004.99 343 1006.24 342.375 1007.6 342.023C1008.96 341.659 1010.3 341.477 1011.62 341.477C1012.46 341.477 1013.43 341.58 1014.52 341.784C1015.62 341.977 1016.68 342.381 1017.7 342.994C1018.74 343.608 1019.6 344.534 1020.28 345.773C1020.96 347.011 1021.3 348.67 1021.3 350.75V368H1017.28V364.455H1017.07C1016.8 365.023 1016.35 365.631 1015.71 366.278C1015.07 366.926 1014.23 367.477 1013.17 367.932C1012.11 368.386 1010.82 368.614 1009.3 368.614ZM1009.91 365C1011.5 365 1012.85 364.688 1013.94 364.062C1015.04 363.438 1015.87 362.631 1016.43 361.642C1016.99 360.653 1017.28 359.614 1017.28 358.523V354.841C1017.11 355.045 1016.73 355.233 1016.15 355.403C1015.58 355.562 1014.93 355.705 1014.18 355.83C1013.44 355.943 1012.72 356.045 1012.01 356.136C1011.32 356.216 1010.75 356.284 1010.32 356.341C1009.28 356.477 1008.3 356.699 1007.39 357.006C1006.49 357.301 1005.77 357.75 1005.21 358.352C1004.66 358.943 1004.39 359.75 1004.39 360.773C1004.39 362.17 1004.91 363.227 1005.94 363.943C1006.99 364.648 1008.31 365 1009.91 365ZM1049.23 341.818V364.25H1052.92V376.455H1048.89V368H1028.64V341.818H1032.67V364.25H1045.21V341.818H1049.23ZM1063.13 362.068L1075.75 341.818H1080.38V368H1076.36V347.75L1063.82 368H1059.11V341.818H1063.13V362.068ZM1103.5 368V345.5H1096.55C1094.98 345.5 1093.75 345.864 1092.85 346.591C1091.95 347.318 1091.5 348.318 1091.5 349.591C1091.5 350.841 1091.91 351.824 1092.71 352.54C1093.53 353.256 1094.65 353.614 1096.07 353.614H1104.52V357.364H1096.07C1094.3 357.364 1092.77 357.051 1091.49 356.426C1090.2 355.801 1089.21 354.909 1088.52 353.75C1087.83 352.58 1087.48 351.193 1087.48 349.591C1087.48 347.977 1087.84 346.591 1088.57 345.432C1089.3 344.273 1090.34 343.381 1091.69 342.756C1093.05 342.131 1094.67 341.818 1096.55 341.818H1107.32V368H1103.5ZM1086.05 368L1093.48 354.977H1097.84L1090.41 368H1086.05Z" fill="black"/>
<g filter="url(#filter0_d_4_1107)">
<rect x="730" y="440" width="459" height="79" rx="20" fill="white"/>
</g>
<path d="M761.83 489H759.614L766.023 471.545H768.205L774.614 489H772.398L767.182 474.307H767.045L761.83 489ZM762.648 482.182H771.58V484.057H762.648V482.182ZM775.662 492.75V487.125H776.753C777.02 486.847 777.25 486.545 777.443 486.222C777.636 485.898 777.804 485.514 777.946 485.071C778.094 484.622 778.219 484.077 778.321 483.435C778.423 482.787 778.514 482.006 778.594 481.091L779.037 475.909H787.355V487.125H789.366V492.75H787.355V489H777.673V492.75H775.662ZM779.037 487.125H785.344V477.784H780.912L780.571 481.091C780.429 482.46 780.253 483.656 780.043 484.679C779.832 485.702 779.497 486.517 779.037 487.125ZM792.036 493.909V475.909H793.979V477.989H794.218C794.366 477.761 794.57 477.472 794.832 477.119C795.099 476.761 795.479 476.443 795.974 476.165C796.474 475.881 797.15 475.739 798.002 475.739C799.104 475.739 800.076 476.014 800.917 476.565C801.758 477.116 802.414 477.898 802.886 478.909C803.357 479.92 803.593 481.114 803.593 482.489C803.593 483.875 803.357 485.077 802.886 486.094C802.414 487.105 801.761 487.889 800.925 488.446C800.09 488.997 799.127 489.273 798.036 489.273C797.195 489.273 796.522 489.134 796.016 488.855C795.511 488.571 795.121 488.25 794.849 487.892C794.576 487.528 794.366 487.227 794.218 486.989H794.048V493.909H792.036ZM794.013 482.455C794.013 483.443 794.158 484.315 794.448 485.071C794.738 485.821 795.161 486.409 795.718 486.835C796.275 487.256 796.957 487.466 797.763 487.466C798.604 487.466 799.306 487.244 799.869 486.801C800.437 486.352 800.863 485.75 801.147 484.994C801.437 484.233 801.582 483.386 801.582 482.455C801.582 481.534 801.44 480.705 801.156 479.966C800.877 479.222 800.454 478.634 799.886 478.202C799.323 477.764 798.616 477.545 797.763 477.545C796.945 477.545 796.258 477.753 795.701 478.168C795.144 478.577 794.724 479.151 794.44 479.889C794.156 480.622 794.013 481.477 794.013 482.455ZM812.15 489.273C810.888 489.273 809.8 488.994 808.886 488.438C807.977 487.875 807.275 487.091 806.781 486.085C806.292 485.074 806.048 483.898 806.048 482.557C806.048 481.216 806.292 480.034 806.781 479.011C807.275 477.983 807.962 477.182 808.843 476.608C809.729 476.028 810.763 475.739 811.945 475.739C812.627 475.739 813.3 475.852 813.965 476.08C814.63 476.307 815.235 476.676 815.781 477.188C816.326 477.693 816.761 478.364 817.085 479.199C817.408 480.034 817.57 481.062 817.57 482.284V483.136H807.479V481.398H815.525C815.525 480.659 815.377 480 815.082 479.42C814.792 478.841 814.377 478.384 813.837 478.048C813.303 477.713 812.673 477.545 811.945 477.545C811.144 477.545 810.451 477.744 809.866 478.142C809.286 478.534 808.84 479.045 808.528 479.676C808.215 480.307 808.059 480.983 808.059 481.705V482.864C808.059 483.852 808.229 484.69 808.57 485.378C808.917 486.06 809.397 486.58 810.011 486.938C810.624 487.29 811.337 487.466 812.15 487.466C812.678 487.466 813.156 487.392 813.582 487.244C814.013 487.091 814.386 486.864 814.698 486.562C815.011 486.256 815.252 485.875 815.423 485.42L817.366 485.966C817.161 486.625 816.817 487.205 816.335 487.705C815.852 488.199 815.255 488.585 814.545 488.864C813.835 489.136 813.036 489.273 812.15 489.273ZM825.948 489.273C824.721 489.273 823.664 488.983 822.778 488.403C821.891 487.824 821.21 487.026 820.732 486.009C820.255 484.991 820.016 483.83 820.016 482.523C820.016 481.193 820.261 480.02 820.749 479.003C821.244 477.98 821.931 477.182 822.812 476.608C823.698 476.028 824.732 475.739 825.914 475.739C826.835 475.739 827.664 475.909 828.403 476.25C829.141 476.591 829.746 477.068 830.218 477.682C830.69 478.295 830.982 479.011 831.096 479.83H829.085C828.931 479.233 828.59 478.705 828.062 478.244C827.539 477.778 826.835 477.545 825.948 477.545C825.164 477.545 824.477 477.75 823.886 478.159C823.3 478.562 822.843 479.134 822.513 479.872C822.19 480.605 822.028 481.466 822.028 482.455C822.028 483.466 822.187 484.347 822.505 485.097C822.829 485.847 823.283 486.429 823.869 486.844C824.46 487.259 825.153 487.466 825.948 487.466C826.471 487.466 826.945 487.375 827.371 487.193C827.798 487.011 828.158 486.75 828.454 486.409C828.749 486.068 828.96 485.659 829.085 485.182H831.096C830.982 485.955 830.701 486.651 830.252 487.27C829.809 487.884 829.221 488.372 828.488 488.736C827.761 489.094 826.914 489.273 825.948 489.273ZM845.116 477.614C844.661 477.619 844.204 477.736 843.744 477.963C843.289 478.19 842.908 478.491 842.602 478.866C842.3 479.236 842.15 479.648 842.15 480.102H840.173C840.173 479.534 840.309 478.989 840.582 478.466C840.854 477.943 841.221 477.477 841.681 477.068C842.147 476.659 842.675 476.335 843.266 476.097C843.863 475.858 844.479 475.739 845.116 475.739C846.309 475.739 847.32 476.04 848.15 476.642C848.985 477.244 849.619 478.04 850.05 479.028C850.488 480.017 850.707 481.091 850.707 482.25V482.727C850.707 483.881 850.488 484.955 850.05 485.949C849.619 486.937 848.985 487.733 848.15 488.335C847.32 488.937 846.309 489.239 845.116 489.239C844.161 489.239 843.312 489.028 842.567 488.608C841.823 488.182 841.238 487.614 840.812 486.903C840.386 486.193 840.173 485.403 840.173 484.534H842.15C842.15 485.028 842.289 485.491 842.567 485.923C842.852 486.349 843.218 486.696 843.667 486.963C844.121 487.224 844.604 487.358 845.116 487.364C845.877 487.358 846.525 487.119 847.059 486.648C847.593 486.176 847.999 485.585 848.278 484.875C848.556 484.165 848.695 483.449 848.695 482.727V482.25C848.695 481.511 848.556 480.79 848.278 480.085C848.005 479.375 847.602 478.787 847.067 478.321C846.539 477.855 845.888 477.619 845.116 477.614ZM849.513 481.466V483.341H843.786V481.466H849.513ZM852.612 489V487.125H853.089C853.481 487.125 853.808 487.048 854.069 486.895C854.33 486.736 854.54 486.46 854.7 486.068C854.864 485.67 854.989 485.119 855.075 484.415C855.165 483.705 855.231 482.801 855.271 481.705L855.509 475.909H864.237V489H862.225V477.784H857.418L857.214 482.455C857.168 483.528 857.072 484.474 856.924 485.293C856.782 486.105 856.563 486.787 856.268 487.338C855.978 487.889 855.592 488.304 855.109 488.582C854.626 488.861 854.021 489 853.293 489H852.612ZM873.415 489.273C872.154 489.273 871.066 488.994 870.151 488.438C869.242 487.875 868.54 487.091 868.046 486.085C867.558 485.074 867.313 483.898 867.313 482.557C867.313 481.216 867.558 480.034 868.046 479.011C868.54 477.983 869.228 477.182 870.109 476.608C870.995 476.028 872.029 475.739 873.211 475.739C873.893 475.739 874.566 475.852 875.231 476.08C875.896 476.307 876.501 476.676 877.046 477.188C877.592 477.693 878.026 478.364 878.35 479.199C878.674 480.034 878.836 481.062 878.836 482.284V483.136H868.745V481.398H876.79C876.79 480.659 876.643 480 876.347 479.42C876.058 478.841 875.643 478.384 875.103 478.048C874.569 477.713 873.938 477.545 873.211 477.545C872.41 477.545 871.717 477.744 871.131 478.142C870.552 478.534 870.106 479.045 869.793 479.676C869.481 480.307 869.325 480.983 869.325 481.705V482.864C869.325 483.852 869.495 484.69 869.836 485.378C870.183 486.06 870.663 486.58 871.276 486.938C871.89 487.29 872.603 487.466 873.415 487.466C873.944 487.466 874.421 487.392 874.847 487.244C875.279 487.091 875.651 486.864 875.964 486.562C876.276 486.256 876.518 485.875 876.688 485.42L878.631 485.966C878.427 486.625 878.083 487.205 877.6 487.705C877.117 488.199 876.521 488.585 875.81 488.864C875.1 489.136 874.302 489.273 873.415 489.273ZM881.896 489V475.909H883.907V481.602H885.237L889.941 475.909H892.532L887.248 482.216L892.6 489H890.009L885.714 483.477H883.907V489H881.896ZM894.036 477.784V475.909H904.673V477.784H900.377V489H898.366V477.784H894.036ZM907.607 493.909V475.909H909.55V477.989H909.788C909.936 477.761 910.141 477.472 910.402 477.119C910.669 476.761 911.05 476.443 911.544 476.165C912.044 475.881 912.72 475.739 913.572 475.739C914.675 475.739 915.646 476.014 916.487 476.565C917.328 477.116 917.984 477.898 918.456 478.909C918.928 479.92 919.163 481.114 919.163 482.489C919.163 483.875 918.928 485.077 918.456 486.094C917.984 487.105 917.331 487.889 916.496 488.446C915.661 488.997 914.697 489.273 913.607 489.273C912.766 489.273 912.092 489.134 911.587 488.855C911.081 488.571 910.692 488.25 910.419 487.892C910.146 487.528 909.936 487.227 909.788 486.989H909.618V493.909H907.607ZM909.584 482.455C909.584 483.443 909.729 484.315 910.018 485.071C910.308 485.821 910.732 486.409 911.288 486.835C911.845 487.256 912.527 487.466 913.334 487.466C914.175 487.466 914.876 487.244 915.439 486.801C916.007 486.352 916.433 485.75 916.717 484.994C917.007 484.233 917.152 483.386 917.152 482.455C917.152 481.534 917.01 480.705 916.726 479.966C916.447 479.222 916.024 478.634 915.456 478.202C914.893 477.764 914.186 477.545 913.334 477.545C912.516 477.545 911.828 477.753 911.271 478.168C910.714 478.577 910.294 479.151 910.01 479.889C909.726 480.622 909.584 481.477 909.584 482.455ZM927.55 489.273C926.368 489.273 925.331 488.991 924.439 488.429C923.553 487.866 922.859 487.08 922.359 486.068C921.865 485.057 921.618 483.875 921.618 482.523C921.618 481.159 921.865 479.969 922.359 478.952C922.859 477.935 923.553 477.145 924.439 476.582C925.331 476.02 926.368 475.739 927.55 475.739C928.732 475.739 929.766 476.02 930.652 476.582C931.544 477.145 932.237 477.935 932.732 478.952C933.232 479.969 933.482 481.159 933.482 482.523C933.482 483.875 933.232 485.057 932.732 486.068C932.237 487.08 931.544 487.866 930.652 488.429C929.766 488.991 928.732 489.273 927.55 489.273ZM927.55 487.466C928.447 487.466 929.186 487.236 929.766 486.776C930.345 486.315 930.774 485.71 931.053 484.96C931.331 484.21 931.47 483.398 931.47 482.523C931.47 481.648 931.331 480.832 931.053 480.077C930.774 479.321 930.345 478.71 929.766 478.244C929.186 477.778 928.447 477.545 927.55 477.545C926.652 477.545 925.913 477.778 925.334 478.244C924.754 478.71 924.325 479.321 924.047 480.077C923.768 480.832 923.629 481.648 923.629 482.523C923.629 483.398 923.768 484.21 924.047 484.96C924.325 485.71 924.754 486.315 925.334 486.776C925.913 487.236 926.652 487.466 927.55 487.466ZM945.313 481.534V483.409H938.086V481.534H945.313ZM938.563 475.909V489H936.552V475.909H938.563ZM946.847 475.909V489H944.836V475.909H946.847ZM959.282 481.534V483.409H952.055V481.534H959.282ZM952.532 475.909V489H950.521V475.909H952.532ZM960.816 475.909V489H958.805V475.909H960.816ZM969.808 489.273C968.626 489.273 967.589 488.991 966.697 488.429C965.81 487.866 965.117 487.08 964.617 486.068C964.123 485.057 963.876 483.875 963.876 482.523C963.876 481.159 964.123 479.969 964.617 478.952C965.117 477.935 965.81 477.145 966.697 476.582C967.589 476.02 968.626 475.739 969.808 475.739C970.989 475.739 972.023 476.02 972.91 476.582C973.802 477.145 974.495 477.935 974.989 478.952C975.489 479.969 975.739 481.159 975.739 482.523C975.739 483.875 975.489 485.057 974.989 486.068C974.495 487.08 973.802 487.866 972.91 488.429C972.023 488.991 970.989 489.273 969.808 489.273ZM969.808 487.466C970.705 487.466 971.444 487.236 972.023 486.776C972.603 486.315 973.032 485.71 973.31 484.96C973.589 484.21 973.728 483.398 973.728 482.523C973.728 481.648 973.589 480.832 973.31 480.077C973.032 479.321 972.603 478.71 972.023 478.244C971.444 477.778 970.705 477.545 969.808 477.545C968.91 477.545 968.171 477.778 967.592 478.244C967.012 478.71 966.583 479.321 966.305 480.077C966.026 480.832 965.887 481.648 965.887 482.523C965.887 483.398 966.026 484.21 966.305 484.96C966.583 485.71 967.012 486.315 967.592 486.776C968.171 487.236 968.91 487.466 969.808 487.466ZM980.821 486.034L987.128 475.909H989.446V489H987.435V478.875L981.162 489H978.81V475.909H980.821V486.034ZM985.798 471.545H987.673C987.673 472.466 987.355 473.219 986.719 473.804C986.082 474.389 985.219 474.682 984.128 474.682C983.054 474.682 982.199 474.389 981.562 473.804C980.932 473.219 980.616 472.466 980.616 471.545H982.491C982.491 471.989 982.614 472.378 982.858 472.713C983.108 473.048 983.531 473.216 984.128 473.216C984.724 473.216 985.151 473.048 985.406 472.713C985.668 472.378 985.798 471.989 985.798 471.545ZM999.88 489V475.909H1010.18V489H1008.16V477.784H1001.89V489H999.88ZM1019.17 489.273C1017.99 489.273 1016.95 488.991 1016.06 488.429C1015.17 487.866 1014.48 487.08 1013.98 486.068C1013.48 485.057 1013.24 483.875 1013.24 482.523C1013.24 481.159 1013.48 479.969 1013.98 478.952C1014.48 477.935 1015.17 477.145 1016.06 476.582C1016.95 476.02 1017.99 475.739 1019.17 475.739C1020.35 475.739 1021.38 476.02 1022.27 476.582C1023.16 477.145 1023.85 477.935 1024.35 478.952C1024.85 479.969 1025.1 481.159 1025.1 482.523C1025.1 483.875 1024.85 485.057 1024.35 486.068C1023.85 487.08 1023.16 487.866 1022.27 488.429C1021.38 488.991 1020.35 489.273 1019.17 489.273ZM1019.17 487.466C1020.06 487.466 1020.8 487.236 1021.38 486.776C1021.96 486.315 1022.39 485.71 1022.67 484.96C1022.95 484.21 1023.09 483.398 1023.09 482.523C1023.09 481.648 1022.95 480.832 1022.67 480.077C1022.39 479.321 1021.96 478.71 1021.38 478.244C1020.8 477.778 1020.06 477.545 1019.17 477.545C1018.27 477.545 1017.53 477.778 1016.95 478.244C1016.37 478.71 1015.94 479.321 1015.66 480.077C1015.39 480.832 1015.25 481.648 1015.25 482.523C1015.25 483.398 1015.39 484.21 1015.66 484.96C1015.94 485.71 1016.37 486.315 1016.95 486.776C1017.53 487.236 1018.27 487.466 1019.17 487.466ZM1038.26 475.909V489H1036.25V475.909H1038.26ZM1037.48 482.148V484.023C1037.02 484.193 1036.57 484.344 1036.12 484.474C1035.67 484.599 1035.2 484.699 1034.71 484.773C1034.21 484.841 1033.67 484.875 1033.08 484.875C1031.6 484.875 1030.4 484.474 1029.51 483.673C1028.62 482.872 1028.17 481.67 1028.17 480.068V475.875H1030.18V480.068C1030.18 480.739 1030.31 481.29 1030.56 481.722C1030.82 482.153 1031.17 482.474 1031.6 482.685C1032.04 482.895 1032.53 483 1033.08 483C1033.93 483 1034.7 482.923 1035.39 482.77C1036.08 482.611 1036.78 482.403 1037.48 482.148ZM1040.17 477.784V475.909H1050.81V477.784H1046.51V489H1044.5V477.784H1040.17ZM1055.48 480.648H1059.23C1060.76 480.648 1061.94 481.037 1062.75 481.815C1063.56 482.594 1063.97 483.58 1063.97 484.773C1063.97 485.557 1063.78 486.27 1063.42 486.912C1063.06 487.548 1062.52 488.057 1061.82 488.438C1061.11 488.812 1060.25 489 1059.23 489H1053.74V475.909H1055.75V487.125H1059.23C1060.02 487.125 1060.68 486.915 1061.19 486.494C1061.7 486.074 1061.96 485.534 1061.96 484.875C1061.96 484.182 1061.7 483.616 1061.19 483.179C1060.68 482.741 1060.02 482.523 1059.23 482.523H1055.48V480.648ZM1066.05 489V475.909H1068.06V489H1066.05Z" fill="#747373"/>
<g filter="url(#filter1_d_4_1107)">
<rect x="730" y="562" width="459" height="79" rx="20" fill="white"/>
</g>
<path d="M774.17 593.545V611H772.057V595.42H763.261V611H761.148V593.545H774.17ZM782.013 611.307C781.184 611.307 780.431 611.151 779.755 610.838C779.079 610.52 778.542 610.062 778.144 609.466C777.746 608.864 777.548 608.136 777.548 607.284C777.548 606.534 777.695 605.926 777.991 605.46C778.286 604.989 778.681 604.619 779.175 604.352C779.67 604.085 780.215 603.886 780.812 603.756C781.414 603.619 782.019 603.511 782.627 603.432C783.423 603.33 784.067 603.253 784.562 603.202C785.062 603.145 785.425 603.051 785.653 602.92C785.886 602.79 786.002 602.562 786.002 602.239V602.17C786.002 601.33 785.772 600.676 785.312 600.21C784.857 599.744 784.167 599.511 783.241 599.511C782.281 599.511 781.528 599.722 780.982 600.142C780.437 600.562 780.053 601.011 779.832 601.489L777.923 600.807C778.263 600.011 778.718 599.392 779.286 598.949C779.86 598.5 780.485 598.187 781.161 598.011C781.843 597.83 782.513 597.739 783.173 597.739C783.593 597.739 784.076 597.79 784.621 597.892C785.173 597.989 785.704 598.19 786.215 598.497C786.732 598.804 787.161 599.267 787.502 599.886C787.843 600.506 788.013 601.335 788.013 602.375V611H786.002V609.227H785.9C785.763 609.511 785.536 609.815 785.218 610.139C784.9 610.463 784.477 610.739 783.948 610.966C783.42 611.193 782.775 611.307 782.013 611.307ZM782.32 609.5C783.116 609.5 783.786 609.344 784.332 609.031C784.883 608.719 785.298 608.315 785.576 607.821C785.86 607.327 786.002 606.807 786.002 606.261V604.42C785.917 604.523 785.729 604.616 785.44 604.702C785.156 604.781 784.826 604.852 784.451 604.915C784.082 604.972 783.721 605.023 783.369 605.068C783.022 605.108 782.741 605.142 782.525 605.17C782.002 605.239 781.513 605.349 781.059 605.503C780.61 605.651 780.246 605.875 779.968 606.176C779.695 606.472 779.559 606.875 779.559 607.386C779.559 608.085 779.817 608.614 780.335 608.972C780.857 609.324 781.519 609.5 782.32 609.5ZM791.685 615.909V597.909H793.628V599.989H793.866C794.014 599.761 794.219 599.472 794.48 599.119C794.747 598.761 795.128 598.443 795.622 598.165C796.122 597.881 796.798 597.739 797.651 597.739C798.753 597.739 799.724 598.014 800.565 598.565C801.406 599.116 802.063 599.898 802.534 600.909C803.006 601.92 803.241 603.114 803.241 604.489C803.241 605.875 803.006 607.077 802.534 608.094C802.063 609.105 801.409 609.889 800.574 610.446C799.739 610.997 798.776 611.273 797.685 611.273C796.844 611.273 796.17 611.134 795.665 610.855C795.159 610.571 794.77 610.25 794.497 609.892C794.224 609.528 794.014 609.227 793.866 608.989H793.696V615.909H791.685ZM793.662 604.455C793.662 605.443 793.807 606.315 794.097 607.071C794.386 607.821 794.81 608.409 795.366 608.835C795.923 609.256 796.605 609.466 797.412 609.466C798.253 609.466 798.955 609.244 799.517 608.801C800.085 608.352 800.511 607.75 800.795 606.994C801.085 606.233 801.23 605.386 801.23 604.455C801.23 603.534 801.088 602.705 800.804 601.966C800.526 601.222 800.102 600.634 799.534 600.202C798.972 599.764 798.264 599.545 797.412 599.545C796.594 599.545 795.906 599.753 795.349 600.168C794.793 600.577 794.372 601.151 794.088 601.889C793.804 602.622 793.662 603.477 793.662 604.455ZM811.628 611.273C810.446 611.273 809.409 610.991 808.517 610.429C807.631 609.866 806.938 609.08 806.438 608.068C805.943 607.057 805.696 605.875 805.696 604.523C805.696 603.159 805.943 601.969 806.438 600.952C806.938 599.935 807.631 599.145 808.517 598.582C809.409 598.02 810.446 597.739 811.628 597.739C812.81 597.739 813.844 598.02 814.73 598.582C815.622 599.145 816.315 599.935 816.81 600.952C817.31 601.969 817.56 603.159 817.56 604.523C817.56 605.875 817.31 607.057 816.81 608.068C816.315 609.08 815.622 609.866 814.73 610.429C813.844 610.991 812.81 611.273 811.628 611.273ZM811.628 609.466C812.526 609.466 813.264 609.236 813.844 608.776C814.423 608.315 814.852 607.71 815.131 606.96C815.409 606.21 815.548 605.398 815.548 604.523C815.548 603.648 815.409 602.832 815.131 602.077C814.852 601.321 814.423 600.71 813.844 600.244C813.264 599.778 812.526 599.545 811.628 599.545C810.73 599.545 809.991 599.778 809.412 600.244C808.832 600.71 808.403 601.321 808.125 602.077C807.847 602.832 807.707 603.648 807.707 604.523C807.707 605.398 807.847 606.21 808.125 606.96C808.403 607.71 808.832 608.315 809.412 608.776C809.991 609.236 810.73 609.466 811.628 609.466ZM819.471 611V609.125H819.948C820.34 609.125 820.667 609.048 820.928 608.895C821.19 608.736 821.4 608.46 821.559 608.068C821.724 607.67 821.849 607.119 821.934 606.415C822.025 605.705 822.09 604.801 822.13 603.705L822.369 597.909H831.096V611H829.085V599.784H824.278L824.073 604.455C824.028 605.528 823.931 606.474 823.783 607.293C823.641 608.105 823.423 608.787 823.127 609.338C822.837 609.889 822.451 610.304 821.968 610.582C821.485 610.861 820.88 611 820.153 611H819.471ZM836.525 602.648H840.275C841.809 602.648 842.982 603.037 843.795 603.815C844.607 604.594 845.013 605.58 845.013 606.773C845.013 607.557 844.832 608.27 844.468 608.912C844.104 609.548 843.57 610.057 842.866 610.438C842.161 610.812 841.298 611 840.275 611H834.786V597.909H836.798V609.125H840.275C841.07 609.125 841.724 608.915 842.235 608.494C842.746 608.074 843.002 607.534 843.002 606.875C843.002 606.182 842.746 605.616 842.235 605.179C841.724 604.741 841.07 604.523 840.275 604.523H836.525V602.648Z" fill="#747373"/>
<g filter="url(#filter2_d_4_1107)">
<rect x="730" y="684" width="459" height="80" rx="20" fill="#C7DDFF"/>
<path d="M849.905 718.953C849.905 720.069 849.553 720.956 848.85 721.614C848.146 722.256 847.206 722.669 846.028 722.852V722.944C847.405 723.127 848.452 723.556 849.171 724.229C849.89 724.901 850.249 725.781 850.249 726.866C850.249 727.83 850.004 728.679 849.515 729.413C849.026 730.131 848.292 730.697 847.313 731.11C846.334 731.523 845.111 731.729 843.643 731.729C842.756 731.729 841.907 731.661 841.097 731.523C840.301 731.401 839.56 731.171 838.872 730.835V728.954C839.346 729.183 839.85 729.382 840.386 729.55C840.936 729.703 841.487 729.825 842.037 729.917C842.588 729.994 843.115 730.032 843.62 730.032C845.088 730.032 846.197 729.757 846.946 729.206C847.711 728.656 848.093 727.876 848.093 726.866C848.093 725.827 847.649 725.07 846.762 724.596C845.876 724.121 844.637 723.884 843.046 723.884H840.707V722.164H842.932C844.018 722.164 844.912 722.042 845.616 721.797C846.334 721.552 846.87 721.208 847.221 720.765C847.588 720.306 847.772 719.771 847.772 719.159C847.772 718.333 847.466 717.699 846.854 717.255C846.243 716.812 845.447 716.59 844.469 716.59C843.444 716.59 842.588 716.72 841.9 716.98C841.227 717.24 840.569 717.576 839.927 717.989L838.94 716.59C839.369 716.269 839.858 715.986 840.409 715.741C840.974 715.481 841.601 715.275 842.289 715.122C842.978 714.969 843.712 714.893 844.492 714.893C845.669 714.893 846.655 715.068 847.451 715.42C848.261 715.772 848.873 716.254 849.286 716.865C849.699 717.462 849.905 718.157 849.905 718.953ZM858.78 718.999C860.278 718.999 861.387 719.327 862.106 719.985C862.825 720.642 863.184 721.69 863.184 723.127V731.5H861.716L861.326 729.757H861.234C860.882 730.2 860.515 730.575 860.133 730.881C859.766 731.171 859.338 731.385 858.849 731.523C858.374 731.661 857.793 731.729 857.105 731.729C856.371 731.729 855.706 731.599 855.11 731.339C854.528 731.079 854.07 730.682 853.733 730.147C853.397 729.596 853.229 728.908 853.229 728.082C853.229 726.859 853.71 725.918 854.674 725.261C855.637 724.588 857.121 724.221 859.124 724.16L861.211 724.091V723.357C861.211 722.332 860.989 721.621 860.546 721.224C860.103 720.826 859.476 720.627 858.665 720.627C858.023 720.627 857.411 720.727 856.83 720.925C856.249 721.109 855.706 721.323 855.201 721.568L854.582 720.054C855.117 719.763 855.752 719.518 856.486 719.32C857.22 719.106 857.985 718.999 858.78 718.999ZM859.376 725.559C857.847 725.62 856.784 725.865 856.188 726.293C855.607 726.721 855.316 727.325 855.316 728.105C855.316 728.793 855.522 729.298 855.935 729.619C856.364 729.94 856.906 730.101 857.564 730.101C858.604 730.101 859.468 729.818 860.156 729.252C860.844 728.671 861.188 727.784 861.188 726.591V725.49L859.376 725.559ZM873.519 718.976C875.033 718.976 876.248 719.503 877.166 720.558C878.099 721.614 878.565 723.204 878.565 725.33C878.565 726.721 878.351 727.899 877.923 728.862C877.51 729.81 876.921 730.529 876.157 731.018C875.407 731.492 874.52 731.729 873.496 731.729C872.869 731.729 872.311 731.645 871.821 731.477C871.332 731.309 870.911 731.095 870.56 730.835C870.223 730.56 869.933 730.261 869.688 729.94H869.55C869.581 730.2 869.612 730.529 869.642 730.927C869.673 731.324 869.688 731.668 869.688 731.959V737.005H867.669V719.205H869.321L869.596 720.879H869.688C869.933 720.528 870.223 720.207 870.56 719.916C870.911 719.626 871.324 719.396 871.798 719.228C872.288 719.06 872.861 718.976 873.519 718.976ZM873.152 720.673C872.326 720.673 871.661 720.834 871.156 721.155C870.651 721.461 870.284 721.927 870.055 722.554C869.826 723.181 869.703 723.976 869.688 724.94V725.33C869.688 726.339 869.795 727.195 870.009 727.899C870.223 728.602 870.583 729.137 871.087 729.504C871.607 729.871 872.311 730.055 873.198 730.055C873.947 730.055 874.559 729.848 875.033 729.436C875.522 729.023 875.881 728.464 876.111 727.761C876.355 727.042 876.478 726.224 876.478 725.307C876.478 723.9 876.203 722.776 875.652 721.935C875.117 721.094 874.283 720.673 873.152 720.673ZM887.218 718.976C888.274 718.976 889.176 719.205 889.925 719.664C890.69 720.123 891.271 720.772 891.668 721.614C892.081 722.439 892.288 723.41 892.288 724.527V725.742H883.869C883.9 727.134 884.252 728.197 884.925 728.931C885.613 729.65 886.568 730.009 887.792 730.009C888.572 730.009 889.26 729.94 889.856 729.803C890.468 729.65 891.095 729.436 891.737 729.16V730.927C891.11 731.202 890.491 731.401 889.879 731.523C889.268 731.661 888.541 731.729 887.7 731.729C886.538 731.729 885.506 731.492 884.603 731.018C883.716 730.544 883.021 729.841 882.516 728.908C882.027 727.96 881.782 726.805 881.782 725.444C881.782 724.099 882.004 722.944 882.447 721.981C882.906 721.017 883.541 720.275 884.351 719.756C885.177 719.236 886.133 718.976 887.218 718.976ZM887.195 720.627C886.232 720.627 885.467 720.941 884.902 721.568C884.351 722.179 884.022 723.036 883.915 724.137H890.177C890.177 723.433 890.07 722.822 889.856 722.302C889.642 721.782 889.313 721.376 888.87 721.086C888.442 720.78 887.884 720.627 887.195 720.627ZM903.607 719.205V720.902H898.125V731.5H896.106V719.205H903.607ZM908.622 726.706C908.622 726.843 908.614 727.042 908.599 727.302C908.599 727.547 908.591 727.815 908.576 728.105C908.56 728.38 908.545 728.648 908.53 728.908C908.515 729.153 908.499 729.351 908.484 729.504L915.067 719.205H917.545V731.5H915.664V724.251C915.664 724.007 915.664 723.686 915.664 723.288C915.679 722.89 915.694 722.5 915.71 722.118C915.725 721.721 915.74 721.422 915.755 721.224L909.218 731.5H906.718V719.205H908.622V726.706ZM927.077 731.729C925.992 731.729 925.021 731.508 924.164 731.064C923.323 730.621 922.658 729.933 922.169 729C921.695 728.067 921.457 726.874 921.457 725.421C921.457 723.907 921.71 722.676 922.214 721.728C922.719 720.78 923.4 720.084 924.256 719.641C925.128 719.197 926.114 718.976 927.215 718.976C927.842 718.976 928.446 719.044 929.027 719.182C929.608 719.304 930.082 719.457 930.449 719.641L929.83 721.315C929.463 721.178 929.035 721.048 928.545 720.925C928.056 720.803 927.597 720.742 927.169 720.742C926.343 720.742 925.663 720.918 925.128 721.269C924.592 721.621 924.195 722.141 923.935 722.829C923.675 723.517 923.545 724.374 923.545 725.398C923.545 726.377 923.675 727.211 923.935 727.899C924.195 728.587 924.585 729.107 925.105 729.458C925.625 729.81 926.275 729.986 927.054 729.986C927.727 729.986 928.316 729.917 928.821 729.78C929.341 729.642 929.815 729.474 930.243 729.275V731.064C929.83 731.278 929.371 731.439 928.867 731.546C928.377 731.668 927.781 731.729 927.077 731.729ZM942.342 720.902H938.328V731.5H936.332V720.902H932.364V719.205H942.342V720.902ZM951.302 718.976C952.816 718.976 954.031 719.503 954.949 720.558C955.882 721.614 956.348 723.204 956.348 725.33C956.348 726.721 956.134 727.899 955.706 728.862C955.293 729.81 954.704 730.529 953.94 731.018C953.19 731.492 952.303 731.729 951.279 731.729C950.652 731.729 950.094 731.645 949.604 731.477C949.115 731.309 948.694 731.095 948.343 730.835C948.006 730.56 947.716 730.261 947.471 729.94H947.333C947.364 730.2 947.394 730.529 947.425 730.927C947.456 731.324 947.471 731.668 947.471 731.959V737.005H945.452V719.205H947.104L947.379 720.879H947.471C947.716 720.528 948.006 720.207 948.343 719.916C948.694 719.626 949.107 719.396 949.581 719.228C950.071 719.06 950.644 718.976 951.302 718.976ZM950.935 720.673C950.109 720.673 949.444 720.834 948.939 721.155C948.434 721.461 948.067 721.927 947.838 722.554C947.609 723.181 947.486 723.976 947.471 724.94V725.33C947.471 726.339 947.578 727.195 947.792 727.899C948.006 728.602 948.366 729.137 948.87 729.504C949.39 729.871 950.094 730.055 950.981 730.055C951.73 730.055 952.342 729.848 952.816 729.436C953.305 729.023 953.664 728.464 953.894 727.761C954.138 727.042 954.261 726.224 954.261 725.307C954.261 723.9 953.985 722.776 953.435 721.935C952.9 721.094 952.066 720.673 950.935 720.673ZM962.157 726.706C962.157 726.843 962.149 727.042 962.134 727.302C962.134 727.547 962.126 727.815 962.111 728.105C962.096 728.38 962.08 728.648 962.065 728.908C962.05 729.153 962.035 729.351 962.019 729.504L968.603 719.205H971.08V731.5H969.199V724.251C969.199 724.007 969.199 723.686 969.199 723.288C969.214 722.89 969.23 722.5 969.245 722.118C969.26 721.721 969.275 721.422 969.291 721.224L962.753 731.5H960.253V719.205H962.157V726.706ZM981.53 718.976C983.044 718.976 984.26 719.503 985.177 720.558C986.11 721.614 986.577 723.204 986.577 725.33C986.577 726.721 986.363 727.899 985.934 728.862C985.522 729.81 984.933 730.529 984.168 731.018C983.419 731.492 982.532 731.729 981.507 731.729C980.88 731.729 980.322 731.645 979.833 731.477C979.343 731.309 978.923 731.095 978.571 730.835C978.235 730.56 977.944 730.261 977.7 729.94H977.562C977.592 730.2 977.623 730.529 977.654 730.927C977.684 731.324 977.7 731.668 977.7 731.959V737.005H975.681V719.205H977.333L977.608 720.879H977.7C977.944 720.528 978.235 720.207 978.571 719.916C978.923 719.626 979.336 719.396 979.81 719.228C980.299 719.06 980.873 718.976 981.53 718.976ZM981.163 720.673C980.337 720.673 979.672 720.834 979.168 721.155C978.663 721.461 978.296 721.927 978.067 722.554C977.837 723.181 977.715 723.976 977.7 724.94V725.33C977.7 726.339 977.807 727.195 978.021 727.899C978.235 728.602 978.594 729.137 979.099 729.504C979.619 729.871 980.322 730.055 981.209 730.055C981.958 730.055 982.57 729.848 983.044 729.436C983.534 729.023 983.893 728.464 984.122 727.761C984.367 727.042 984.489 726.224 984.489 725.307C984.489 723.9 984.214 722.776 983.664 721.935C983.128 721.094 982.295 720.673 981.163 720.673ZM1001.17 725.33C1001.17 726.354 1001.03 727.264 1000.76 728.059C1000.5 728.839 1000.12 729.504 999.611 730.055C999.122 730.605 998.518 731.026 997.799 731.316C997.096 731.592 996.308 731.729 995.436 731.729C994.626 731.729 993.877 731.592 993.188 731.316C992.5 731.026 991.904 730.605 991.399 730.055C990.895 729.504 990.497 728.839 990.206 728.059C989.931 727.264 989.793 726.354 989.793 725.33C989.793 723.969 990.023 722.822 990.482 721.889C990.94 720.941 991.598 720.222 992.454 719.733C993.311 719.228 994.328 718.976 995.505 718.976C996.621 718.976 997.6 719.228 998.441 719.733C999.298 720.222 999.963 720.941 1000.44 721.889C1000.93 722.822 1001.17 723.969 1001.17 725.33ZM991.881 725.33C991.881 726.293 992.003 727.134 992.248 727.853C992.508 728.556 992.905 729.099 993.441 729.481C993.976 729.864 994.656 730.055 995.482 730.055C996.308 730.055 996.989 729.864 997.524 729.481C998.059 729.099 998.449 728.556 998.694 727.853C998.954 727.134 999.084 726.293 999.084 725.33C999.084 724.351 998.954 723.517 998.694 722.829C998.434 722.141 998.036 721.614 997.501 721.247C996.981 720.864 996.3 720.673 995.459 720.673C994.205 720.673 993.295 721.086 992.73 721.912C992.164 722.738 991.881 723.877 991.881 725.33ZM1014.94 722.302C1014.94 723.066 1014.72 723.663 1014.26 724.091C1013.8 724.519 1013.21 724.81 1012.49 724.963V725.054C1013.25 725.161 1013.92 725.437 1014.49 725.88C1015.05 726.308 1015.33 726.981 1015.33 727.899C1015.33 728.419 1015.24 728.9 1015.04 729.344C1014.85 729.787 1014.56 730.17 1014.16 730.491C1013.77 730.812 1013.25 731.064 1012.63 731.248C1012 731.416 1011.24 731.5 1010.36 731.5H1005.06V719.205H1010.33C1011.21 719.205 1011.99 719.304 1012.67 719.503C1013.38 719.687 1013.93 720.008 1014.33 720.467C1014.74 720.91 1014.94 721.522 1014.94 722.302ZM1013.25 727.899C1013.25 727.195 1012.98 726.691 1012.44 726.385C1011.91 726.079 1011.12 725.926 1010.08 725.926H1007.08V729.871H1010.13C1011.14 729.871 1011.91 729.726 1012.44 729.436C1012.98 729.13 1013.25 728.617 1013.25 727.899ZM1012.9 722.554C1012.9 721.973 1012.69 721.552 1012.26 721.292C1011.85 721.017 1011.17 720.879 1010.22 720.879H1007.08V724.251H1009.85C1010.85 724.251 1011.6 724.114 1012.12 723.839C1012.64 723.563 1012.9 723.135 1012.9 722.554ZM1023.62 718.999C1025.12 718.999 1026.23 719.327 1026.95 719.985C1027.66 720.642 1028.02 721.69 1028.02 723.127V731.5H1026.56L1026.17 729.757H1026.07C1025.72 730.2 1025.36 730.575 1024.97 730.881C1024.61 731.171 1024.18 731.385 1023.69 731.523C1023.21 731.661 1022.63 731.729 1021.94 731.729C1021.21 731.729 1020.55 731.599 1019.95 731.339C1019.37 731.079 1018.91 730.682 1018.57 730.147C1018.24 729.596 1018.07 728.908 1018.07 728.082C1018.07 726.859 1018.55 725.918 1019.51 725.261C1020.48 724.588 1021.96 724.221 1023.96 724.16L1026.05 724.091V723.357C1026.05 722.332 1025.83 721.621 1025.39 721.224C1024.94 720.826 1024.32 720.627 1023.5 720.627C1022.86 720.627 1022.25 720.727 1021.67 720.925C1021.09 721.109 1020.55 721.323 1020.04 721.568L1019.42 720.054C1019.96 719.763 1020.59 719.518 1021.33 719.32C1022.06 719.106 1022.82 718.999 1023.62 718.999ZM1024.22 725.559C1022.69 725.62 1021.62 725.865 1021.03 726.293C1020.45 726.721 1020.16 727.325 1020.16 728.105C1020.16 728.793 1020.36 729.298 1020.78 729.619C1021.2 729.94 1021.75 730.101 1022.4 730.101C1023.44 730.101 1024.31 729.818 1025 729.252C1025.68 728.671 1026.03 727.784 1026.03 726.591V725.49L1024.22 725.559ZM1041 720.902H1036.98V731.5H1034.99V720.902H1031.02V719.205H1041V720.902ZM1049.77 724.251C1050.84 724.251 1051.73 724.381 1052.43 724.641C1053.14 724.901 1053.66 725.291 1054.02 725.811C1054.38 726.316 1054.57 726.958 1054.57 727.738C1054.57 728.503 1054.39 729.168 1054.04 729.734C1053.7 730.3 1053.17 730.735 1052.46 731.041C1051.74 731.347 1050.81 731.5 1049.68 731.5H1044.11V719.205H1046.13V724.251H1049.77ZM1052.55 727.853C1052.55 727.103 1052.28 726.599 1051.75 726.339C1051.23 726.064 1050.49 725.926 1049.54 725.926H1046.13V729.871H1049.59C1050.45 729.871 1051.15 729.718 1051.7 729.413C1052.26 729.107 1052.55 728.587 1052.55 727.853ZM1063.35 731.729C1062.26 731.729 1061.29 731.508 1060.43 731.064C1059.59 730.621 1058.93 729.933 1058.44 729C1057.96 728.067 1057.73 726.874 1057.73 725.421C1057.73 723.907 1057.98 722.676 1058.48 721.728C1058.99 720.78 1059.67 720.084 1060.52 719.641C1061.4 719.197 1062.38 718.976 1063.48 718.976C1064.11 718.976 1064.71 719.044 1065.3 719.182C1065.88 719.304 1066.35 719.457 1066.72 719.641L1066.1 721.315C1065.73 721.178 1065.3 721.048 1064.81 720.925C1064.32 720.803 1063.87 720.742 1063.44 720.742C1062.61 720.742 1061.93 720.918 1061.4 721.269C1060.86 721.621 1060.46 722.141 1060.2 722.829C1059.94 723.517 1059.81 724.374 1059.81 725.398C1059.81 726.377 1059.94 727.211 1060.2 727.899C1060.46 728.587 1060.85 729.107 1061.37 729.458C1061.89 729.81 1062.54 729.986 1063.32 729.986C1064 729.986 1064.58 729.917 1065.09 729.78C1065.61 729.642 1066.08 729.474 1066.51 729.275V731.064C1066.1 731.278 1065.64 731.439 1065.14 731.546C1064.65 731.668 1064.05 731.729 1063.35 731.729ZM1070.88 731.5H1068.54L1072.05 726.339C1071.58 726.217 1071.12 726.025 1070.67 725.765C1070.23 725.49 1069.87 725.115 1069.6 724.641C1069.32 724.152 1069.18 723.548 1069.18 722.829C1069.18 721.652 1069.58 720.757 1070.38 720.145C1071.17 719.518 1072.23 719.205 1073.54 719.205H1079.05V731.5H1077.03V726.614H1074.05L1070.88 731.5ZM1071.13 722.852C1071.13 723.556 1071.39 724.083 1071.91 724.435C1072.45 724.771 1073.19 724.94 1074.14 724.94H1077.03V720.879H1073.75C1072.82 720.879 1072.14 721.063 1071.73 721.43C1071.33 721.797 1071.13 722.271 1071.13 722.852Z" fill="#313144"/>
</g>
<defs>
<filter id="filter0_d_4_1107" x="726" y="440" width="467" height="87" filterUnits="userSpaceOnUse" color-interpolation-filters="sRGB">
<feFlood flood-opacity="0" result="BackgroundImageFix"/>
<feColorMatrix in="SourceAlpha" type="matrix" values="0 0 0 0 0 0 0 0 0 0 0 0 0 0 0 0 0 0 127 0" result="hardAlpha"/>
<feOffset dy="4"/>
<feGaussianBlur stdDeviation="2"/>
<feComposite in2="hardAlpha" operator="out"/>
<feColorMatrix type="matrix" values="0 0 0 0 0 0 0 0 0 0 0 0 0 0 0 0 0 0 0.25 0"/>
<feBlend mode="normal" in2="BackgroundImageFix" result="effect1_dropShadow_4_1107"/>
<feBlend mode="normal" in="SourceGraphic" in2="effect1_dropShadow_4_1107" result="shape"/>
</filter>
<filter id="filter1_d_4_1107" x="726" y="562" width="467" height="87" filterUnits="userSpaceOnUse" color-interpolation-filters="sRGB">
<feFlood flood-opacity="0" result="BackgroundImageFix"/>
<feColorMatrix in="SourceAlpha" type="matrix" values="0 0 0 0 0 0 0 0 0 0 0 0 0 0 0 0 0 0 127 0" result="hardAlpha"/>
<feOffset dy="4"/>
<feGaussianBlur stdDeviation="2"/>
<feComposite in2="hardAlpha" operator="out"/>
<feColorMatrix type="matrix" values="0 0 0 0 0 0 0 0 0 0 0 0 0 0 0 0 0 0 0.25 0"/>
<feBlend mode="normal" in2="BackgroundImageFix" result="effect1_dropShadow_4_1107"/>
<feBlend mode="normal" in="SourceGraphic" in2="effect1_dropShadow_4_1107" result="shape"/>
</filter>
<filter id="filter2_d_4_1107" x="726" y="684" width="467" height="88" filterUnits="userSpaceOnUse" color-interpolation-filters="sRGB">
<feFlood flood-opacity="0" result="BackgroundImageFix"/>
<feColorMatrix in="SourceAlpha" type="matrix" values="0 0 0 0 0 0 0 0 0 0 0 0 0 0 0 0 0 0 127 0" result="hardAlpha"/>
<feOffset dy="4"/>
<feGaussianBlur stdDeviation="2"/>
<feComposite in2="hardAlpha" operator="out"/>
<feColorMatrix type="matrix" values="0 0 0 0 0 0 0 0 0 0 0 0 0 0 0 0 0 0 0.25 0"/>
<feBlend mode="normal" in2="BackgroundImageFix" result="effect1_dropShadow_4_1107"/>
<feBlend mode="normal" in="SourceGraphic" in2="effect1_dropShadow_4_1107" result="shape"/>
</filter>
</defs>
</svg>
